{
.appVersion = FontCreator15.0.0.3024;
.formatVersion = 3;
axes = (
{
name = Weight;
tag = wght;
},
{
name = "Dots Style";
tag = DSTY;
}
);
customParameters = (
{
name = fsType;
value = (
8
);
},
{
name = "Use Typo Metrics";
value = 1;
},
{
name = "Variable Font Origin";
value = m004;
}
);
date = "2024-04-26 18:30:00";
familyName = AradNLVF;
featurePrefixes = (
{
automatic = 1;
code = "languagesystem DFLT dflt;
languagesystem latn dflt; # Latin default
languagesystem latn AZE;  # Latin Azerbaijani
languagesystem latn TRK;  # Latin Turkish
languagesystem arab dflt; # Arabic default
languagesystem arab FAR;  # Arabic Persian
languagesystem arab KUR;  # Arabic Kurdish
languagesystem arab URD;  # Arabic Urdu
";
name = Languagesystems;
},
{
code = "
#
# Global glyph class definitions
#

@group-dotless-3 = [peh-arab.init peh-arab.medi farsiyeh-arab.init farsiyeh-arab.medi uE028 uE029];
@group-dotless-4 = [peh-arab.init.1 peh-arab.medi.1 farsiyeh-arab.init.1 farsiyeh-arab.medi.1 uE046 uE062];
@CG_4 = [alefhamzabelow-arab alefhamzabelow-arab.fina peh-arab.init peh-arab.medi peh-arab.init.1 peh-arab.medi.1 peh-arab.init.2 peh-arab.medi.2 reh-arab reh-arab.fina zain-arab zain-arab.fina jeh-arab jeh-arab.fina farsiyeh-arab.init farsiyeh-arab.medi farsiyeh-arab.init.1 farsiyeh-arab.medi.1 farsiyeh-arab.init.2 farsiyeh-arab.medi.2 uE028 uE029 uE046 uE047 uE059 uE062 uE080 uE081 uE082 uE083 uE084 uE085 uE086 uE087 uE088 uE089];

glyphs = (
{
glyphname = .notdef;
layers = (
{
anchors = (
{
name = "top-arab";
pos = (650,1400);
}
);
layerId = m004;
shapes = (
{
closed = 1;
nodes = (
(1150,0,l),
(150,0,l),
(150,1400,l),
(1150,1400,l)
);
},
{
closed = 1;
nodes = (
(250,1300,l),
(250,100,l),
(1050,100,l),
(1050,1300,l)
);
}
);
width = 1300;
},
{
anchors = (
{
name = "top-arab";
pos = (650,1400);
}
);
associatedMasterId = m004;
attr = {
coordinates = (
800,
1
);
};
layerId = m005;
name = ExtraBold;
shapes = (
{
closed = 1;
nodes = (
(1200,0,l),
(100,0,l),
(100,1400,l),
(1200,1400,l)
);
},
{
closed = 1;
nodes = (
(350,1150,l),
(350,250,l),
(950,250,l),
(950,1150,l)
);
}
);
width = 1300;
},
{
anchors = (
{
name = "top-arab";
pos = (650,1400);
}
);
associatedMasterId = m004;
attr = {
coordinates = (
1000,
1
);
};
layerId = m006;
name = ExtraBlack;
shapes = (
{
closed = 1;
nodes = (
(1229,0,l),
(71,0,l),
(71,1400,l),
(1229,1400,l)
);
},
{
closed = 1;
nodes = (
(407,1064,l),
(407,336,l),
(893,336,l),
(893,1064,l)
);
}
);
width = 1300;
}
);
},
{
glyphname = "rialsign-arab.isol";
layers = (
{
layerId = m004;
shapes = (
{
closed = 1;
nodes = (
(2580,-477,l),
(2612,-471,l),
(2803,-435,o),
(3059,-174,o),
(3059,7,qs),
(3059,632,l),
(3118,632,l),
(3118,5,l),
(3118,-199,o),
(2828,-492,o),
(2612,-531,qs),
(2589,-535,l)
);
},
{
closed = 1;
nodes = (
(1778,-519,l),
(1778,-434,l),
(2287,-434,l),
(2287,-519,l)
);
},
{
closed = 1;
nodes = (
(1315,1453,l),
(1890,1513,l),
(1890,329,l),
(1890,217,o),
(2046,60,o),
(2158,60,qs),
(2327,60,l),
(2438,60,o),
(2595,217,o),
(2595,329,qs),
(2595,632,l),
(2654,632,l),
(2654,326,l),
(2654,191,o),
(2462,0,o),
(2327,0,qs),
(2158,0,l),
(2021,0,o),
(1831,191,o),
(1831,326,qs),
(1831,1451,l),
(1374,1404,l),
(1373,44,l),
(1374,-138,o),
(1230,-394,o),
(991,-531,o),
(853,-541,qs),
(698,-551,l),
(479,-561,o),
(261,-395,o),
(157,-133,o),
(157,15,qs),
(157,162,o),
(236,391,o),
(266,468,q),
(323,443,l),
(295,382,o),
(216,155,o),
(216,18,qs),
(216,-178,o),
(425,-509,o),
(698,-491,qs),
(853,-481,l),
(977,-471,o),
(1186,-352,o),
(1313,-129,o),
(1313,47,qs)
);
}
);
width = 3289;
},
{
associatedMasterId = m004;
attr = {
coordinates = (
800,
1
);
};
layerId = m005;
name = ExtraBold;
shapes = (
{
closed = 1;
nodes = (
(2705,-220,l),
(2861,-186,l),
(2971,-164,o),
(3114,15,o),
(3114,117,qs),
(3114,816,l),
(3432,816,l),
(3432,94,l),
(3432,-139,o),
(3160,-474,o),
(2918,-526,qs),
(2780,-555,l)
);
},
{
closed = 1;
nodes = (
(1801,-511,l),
(1800,-250,l),
(2491,-250,l),
(2491,-511,l)
);
},
{
closed = 1;
nodes = (
(1195,1473,l),
(2132,1564,l),
(2133,451,l),
(2133,405,o),
(2198,340,o),
(2244,340,qs),
(2461,340,l),
(2507,340,o),
(2572,405,o),
(2572,451,qs),
(2572,816,l),
(2891,816,l),
(2891,409,l),
(2891,246,o),
(2657,0,o),
(2461,0,qs),
(2244,0,l),
(2049,0,o),
(1814,246,o),
(1814,409,qs),
(1814,1260,l),
(1513,1231,l),
(1513,80,l),
(1512,-73,o),
(1364,-346,o),
(1084,-529,o),
(892,-539,qs),
(774,-548,l),
(560,-558,o),
(270,-366,o),
(110,-65,o),
(110,64,qs),
(111,241,o),
(162,506,o),
(220,667,q),
(512,549,l),
(484,462,o),
(428,235,o),
(428,108,qs),
(430,-34,o),
(573,-225,o),
(774,-208,qs),
(892,-199,l),
(992,-192,o),
(1116,-113,o),
(1196,17,o),
(1196,116,qs)
);
}
);
width = 3551;
},
{
associatedMasterId = m004;
attr = {
coordinates = (
1000,
1
);
};
layerId = m006;
name = ExtraBlack;
shapes = (
{
closed = 1;
nodes = (
(2807,-73,l),
(3033,-23,l),
(3096,-9,o),
(3174,123,o),
(3174,180,qs),
(3174,922,l),
(3641,922,l),
(3641,146,l),
(3641,-104,o),
(3379,-464,o),
(3123,-523,qs),
(2919,-566,l)
);
},
{
closed = 1;
nodes = (
(1843,-506,l),
(1843,-145,l),
(2638,-145,l),
(2639,-506,l)
);
},
{
closed = 1;
nodes = (
(1126,1484,l),
(2271,1593,l),
(2271,521,l),
(2271,512,o),
(2284,500,o),
(2294,500,qs),
(2487,500,l),
(2496,500,o),
(2509,513,o),
(2509,521,qs),
(2509,922,l),
(2976,922,l),
(2976,457,l),
(2976,278,o),
(2719,0,o),
(2487,0,qs),
(2294,0,l),
(2065,0,o),
(1804,278,o),
(1804,457,qs),
(1804,1150,l),
(1592,1132,l),
(1593,101,l),
(1590,-36,o),
(1440,-318,o),
(1137,-528,o),
(915,-538,q),
(817,-546,l),
(606,-556,o),
(276,-399,o),
(83,-56,o),
(83,93,qs),
(85,286,o),
(120,571,o),
(194,781,q),
(621,610,l),
(592,509,o),
(549,280,o),
(550,159,qs),
(552,48,o),
(657,-63,o),
(817,-46,qs),
(915,-38,l),
(1001,-33,o),
(1076,23,o),
(1129,100,o),
(1129,156,qs)
);
}
);
width = 3730;
}
);
unicode = 65020;
},
{
glyphname = "percentsign-arab";
layers = (
{
layerId = m004;
shapes = (
{
closed = 1;
nodes = (
(254,-11,l),
(1018,1220,l),
(972,1246,l),
(208,15,l)
);
},
{
closed = 1;
nodes = (
(230,1146,cs),
(197,1146,o),
(171,1120,o),
(171,1087,cs),
(171,1054,o),
(197,1028,o),
(230,1028,cs),
(263,1028,o),
(289,1054,o),
(289,1087,cs),
(289,1120,o),
(263,1146,o)
);
},
{
closed = 1;
nodes = (
(996,207,cs),
(963,207,o),
(937,181,o),
(937,148,cs),
(937,115,o),
(963,89,o),
(996,89,cs),
(1029,89,o),
(1055,115,o),
(1055,148,cs),
(1055,181,o),
(1029,207,o)
);
}
);
width = 1226;
},
{
associatedMasterId = m004;
attr = {
coordinates = (
800,
1
);
};
layerId = m005;
name = ExtraBold;
shapes = (
{
closed = 1;
nodes = (
(424,-29,l),
(1091,1350,l),
(873,1449,l),
(206,69,l)
);
},
{
closed = 1;
nodes = (
(304,1341,cs),
(202,1341,o),
(120,1258,o),
(120,1156,cs),
(120,1054,o),
(202,971,o),
(304,971,cs),
(405,971,o),
(489,1055,o),
(489,1156,cs),
(489,1258,o),
(407,1341,o)
);
},
{
closed = 1;
nodes = (
(994,449,cs),
(892,449,o),
(810,366,o),
(810,264,cs),
(810,161,o),
(892,79,o),
(994,79,cs),
(1096,79,o),
(1178,162,o),
(1178,264,cs),
(1178,366,o),
(1097,449,o)
);
}
);
width = 1298;
},
{
associatedMasterId = m004;
attr = {
coordinates = (
1000,
1
);
};
layerId = m006;
name = ExtraBlack;
shapes = (
{
closed = 1;
nodes = (
(522,-39,l),
(1133,1424,l),
(817,1564,l),
(205,100,l)
);
},
{
closed = 1;
nodes = (
(347,1452,cs),
(205,1452,o),
(91,1337,o),
(91,1195,cs),
(91,1054,o),
(205,939,o),
(347,939,cs),
(486,939,o),
(603,1056,o),
(603,1195,cs),
(603,1337,o),
(489,1452,o)
);
},
{
closed = 1;
nodes = (
(993,587,cs),
(851,587,o),
(737,472,o),
(737,329,cs),
(737,187,o),
(851,73,o),
(993,73,cs),
(1134,73,o),
(1249,189,o),
(1249,329,cs),
(1249,472,o),
(1135,587,o)
);
}
);
width = 1339;
}
);
unicode = 1642;
},
{
glyphname = "fivepointedstar-arab";
layers = (
{
layerId = m004;
shapes = (
{
closed = 1;
nodes = (
(554,767,l),
(171,767,l),
(481,540,l),
(361,176,l),
(674,401,l),
(987,176,l),
(867,540,l),
(1177,767,l),
(794,767,l),
(674,1131,l)
);
}
);
width = 1348;
},
{
associatedMasterId = m004;
attr = {
coordinates = (
800,
1
);
};
layerId = m005;
name = ExtraBold;
shapes = (
{
closed = 1;
nodes = (
(531,824,l),
(120,824,l),
(453,579,l),
(324,189,l),
(659,430,l),
(995,189,l),
(867,579,l),
(1200,824,l),
(788,824,l),
(659,1214,l)
);
}
);
width = 1319;
},
{
associatedMasterId = m004;
attr = {
coordinates = (
1000,
1
);
};
layerId = m006;
name = ExtraBlack;
shapes = (
{
closed = 1;
nodes = (
(518,856,l),
(91,856,l),
(436,602,l),
(302,196,l),
(651,447,l),
(1000,196,l),
(867,602,l),
(1213,856,l),
(785,856,l),
(651,1262,l)
);
}
);
width = 1302;
}
);
unicode = 1645;
},
{
glyphname = arabiccomma;
layers = (
{
layerId = m004;
shapes = (
{
closed = 1;
nodes = (
(420,95,cs),
(420,164,o),
(339,211,o),
(257,145,c),
(257,360,l),
(256,461,o),
(334,543,o),
(411,558,c),
(423,560,l),
(416,611,l),
(406,610,l),
(295,599,o),
(200,487,o),
(201,356,cs),
(201,104,l),
(201,44,o),
(249,-5,o),
(310,-5,cs),
(371,-5,o),
(420,34,o)
);
}
);
width = 623;
},
{
associatedMasterId = m004;
attr = {
coordinates = (
800,
1
);
};
layerId = m005;
name = ExtraBold;
shapes = (
{
closed = 1;
nodes = (
(560,219,cs),
(560,373,o),
(486,403,o),
(376,402,c),
(376,508,l),
(376,536,o),
(395,561,o),
(424,565,cs),
(561,587,l),
(531,813,l),
(433,796,l),
(252,767,o),
(120,610,o),
(120,426,cs),
(120,229,l),
(120,92,o),
(216,-5,o),
(335,-5,cs),
(454,-5,o),
(560,62,o)
);
}
);
width = 680;
},
{
associatedMasterId = m004;
attr = {
coordinates = (
1000,
1
);
};
layerId = m006;
name = ExtraBlack;
shapes = (
{
closed = 1;
nodes = (
(641,290,cs),
(641,492,o),
(570,513,o),
(445,548,c),
(445,592,l),
(445,579,o),
(429,571,o),
(432,569,c),
(640,602,l),
(597,929,l),
(448,903,l),
(228,862,o),
(74,680,o),
(74,465,cs),
(74,301,l),
(74,119,o),
(197,-5,o),
(350,-5,cs),
(501,-5,o),
(641,77,o)
);
}
);
width = 712;
}
);
unicode = 1548;
},
{
glyphname = arabicsemicolon;
layers = (
{
layerId = m004;
metricLeft = "base()";
metricRight = "base()";
shapes = (
{
pos = (0,299);
ref = arabiccomma;
},
{
closed = 1;
nodes = (
(372.008,0,l),
(252.008,0,l),
(252.008,100,l),
(372.008,100,l)
);
}
);
width = 623;
},
{
associatedMasterId = m004;
attr = {
coordinates = (
800,
1
);
};
layerId = m005;
metricLeft = "base()";
metricRight = "base()";
name = ExtraBold;
shapes = (
{
pos = (0,418);
ref = arabiccomma;
},
{
closed = 1;
nodes = (
(496,0,l),
(204,0,l),
(204,281,l),
(496,281,l)
);
}
);
width = 680;
},
{
associatedMasterId = m004;
attr = {
coordinates = (
1000,
1
);
};
layerId = m006;
metricLeft = "base()";
metricRight = "base()";
name = ExtraBlack;
shapes = (
{
pos = (0,487);
ref = arabiccomma;
},
{
closed = 1;
nodes = (
(567,0,l),
(177,0,l),
(177,385,l),
(567,385,l)
);
}
);
width = 712;
}
);
unicode = 1563;
},
{
glyphname = arabicquestionmark;
layers = (
{
layerId = m004;
shapes = (
{
closed = 1;
nodes = (
(615,397,l),
(615,500,o),
(569,635,o),
(479,740,o),
(371,830,o),
(272,930,o),
(206,1057,o),
(206,1146,qs),
(206,1242,o),
(261,1376,o),
(359,1454,o),
(493,1489,o),
(574,1489,qs),
(666,1489,o),
(842,1452,o),
(905,1416,q),
(924,1467,l),
(849,1515,o),
(655,1548,o),
(570,1548,qs),
(478,1548,o),
(323,1504,o),
(212,1411,o),
(148,1258,o),
(148,1146,qs),
(148,1050,o),
(215,919,o),
(314,814,o),
(419,724,o),
(509,624,o),
(556,491,o),
(556,397,q)
);
},
{
closed = 1;
nodes = (
(641,12,l),
(641,110,l),
(527,110,l),
(527,12,l)
);
}
);
width = 1089;
},
{
associatedMasterId = m004;
attr = {
coordinates = (
800,
1
);
};
layerId = m005;
name = ExtraBold;
shapes = (
{
closed = 1;
nodes = (
(759,471,l),
(759,552,o),
(715,668,o),
(636,771,o),
(557,850,o),
(478,929,o),
(426,999,o),
(426,1054,qs),
(426,1115,o),
(471,1183,o),
(543,1216,o),
(631,1224,o),
(673,1224,qs),
(752,1224,o),
(884,1189,o),
(927,1170,q),
(991,1454,l),
(897,1506,o),
(684,1548,o),
(579,1548,qs),
(481,1548,o),
(331,1502,o),
(205,1399,o),
(124,1229,o),
(124,1104,qs),
(124,1008,o),
(158,875,o),
(228,757,o),
(311,681,o),
(395,604,o),
(452,522,o),
(452,471,q)
);
},
{
closed = 1;
nodes = (
(771,12,l),
(771,313,l),
(442,313,l),
(442,12,l)
);
}
);
width = 1115;
},
{
associatedMasterId = m004;
attr = {
coordinates = (
1000,
1
);
};
layerId = m006;
name = ExtraBlack;
shapes = (
{
closed = 1;
nodes = (
(837,513,l),
(837,581,o),
(795,687,o),
(722,789,o),
(658,862,o),
(591,928,o),
(548,966,o),
(548,1001,qs),
(548,1043,o),
(587,1074,o),
(644,1080,o),
(705,1073,o),
(726,1073,qs),
(797,1073,o),
(904,1038,o),
(936,1029,q),
(1025,1446,l),
(920,1501,o),
(696,1548,o),
(580,1548,qs),
(479,1548,o),
(332,1501,o),
(197,1392,o),
(106,1213,o),
(106,1081,qs),
(106,984,o),
(122,850,o),
(174,725,o),
(245,657,o),
(325,593,o),
(388,540,o),
(388,513,q)
);
},
{
closed = 1;
nodes = (
(841,12,l),
(841,429,l),
(388,429,l),
(388,12,l)
);
}
);
width = 1121;
}
);
unicode = 1567;
},
{
glyphname = "decimalseparator-arab";
layers = (
{
layerId = m004;
shapes = (
{
closed = 1;
nodes = (
(47,-402,l),
(393,360,l),
(346,380,l),
(0,-380,l)
);
}
);
width = 564;
},
{
associatedMasterId = m004;
attr = {
coordinates = (
800,
1
);
};
layerId = m005;
name = ExtraBold;
shapes = (
{
closed = 1;
nodes = (
(194,-431,l),
(576,412,l),
(383,498,l),
(0,-344,l)
);
}
);
width = 696;
},
{
associatedMasterId = m004;
attr = {
coordinates = (
1000,
1
);
};
layerId = m006;
name = ExtraBlack;
shapes = (
{
closed = 1;
nodes = (
(278,-448,l),
(681,442,l),
(405,566,l),
(0,-323,l)
);
}
);
width = 772;
}
);
unicode = 1643;
},
{
glyphname = "thousandsseparator-arab";
layers = (
{
layerId = m004;
shapes = (
{
closed = 1;
nodes = (
(121,-208,l),
(144,-195,l),
(229,-149,o),
(279,-53,o),
(279,67,cs),
(279,240,l),
(228,240,l),
(228,67,l),
(228,-32,o),
(189,-112,o),
(119,-150,cs),
(96,-163,l)
);
}
);
width = 450;
},
{
associatedMasterId = m004;
attr = {
coordinates = (
800,
1
);
};
layerId = m005;
name = ExtraBold;
shapes = (
{
closed = 1;
nodes = (
(146,-322,l),
(240,-270,l),
(346,-214,o),
(405,-99,o),
(405,41,cs),
(405,281,l),
(193,281,l),
(193,41,l),
(193,11,o),
(187,-57,o),
(138,-83,cs),
(44,-135,l)
);
}
);
width = 525;
},
{
associatedMasterId = m004;
attr = {
coordinates = (
1000,
1
);
};
layerId = m006;
name = ExtraBlack;
shapes = (
{
closed = 1;
nodes = (
(161,-386,l),
(295,-313,l),
(412,-251,o),
(477,-125,o),
(477,25,cs),
(477,305,l),
(173,305,l),
(173,25,l),
(173,36,o),
(186,-26,o),
(148,-45,c),
(14,-118,l)
);
}
);
width = 568;
}
);
unicode = 1644;
},
{
glyphname = "symboldotaccentmod-arab";
layers = (
{
associatedMasterId = m004;
attr = {
coordinates = (
100,
3
);
};
layerId = m000;
name = "Thin Dots3";
shapes = (
{
closed = 1;
nodes = (
(0,-42,c),
(23,-19,o),
(67,25,o),
(89,47,c),
(65,72,o),
(20,116,o),
(0,136,c),
(-22,114,o),
(-66,70,o),
(-89,47,c),
(-67,25,o),
(-22,-20,o)
);
}
);
},
{
associatedMasterId = m004;
attr = {
coordinates = (
100,
2
);
};
layerId = m001;
name = "Thin Dots2";
shapes = (
{
closed = 1;
nodes = (
(66,0,c),
(66,41,o),
(66,61,o),
(66,101,c),
(10,101,o),
(-10,101,o),
(-66,101,c),
(-66,61,o),
(-66,41,o),
(-66,0,c),
(-10,0,o),
(10,0,o)
);
}
);
},
{
associatedMasterId = m004;
attr = {
coordinates = (
800,
3
);
};
layerId = m002;
name = "ExtraBold Dots3";
shapes = (
{
closed = 1;
nodes = (
(0,-77,c),
(54,-23,o),
(160,83,o),
(212,136,c),
(154,194,o),
(48,300,o),
(0,348,c),
(-52,296,o),
(-159,189,o),
(-212,136,c),
(-159,82,o),
(-53,-24,o)
);
}
);
},
{
associatedMasterId = m004;
attr = {
coordinates = (
800,
2
);
};
layerId = m003;
name = "ExtraBold Dots2";
shapes = (
{
closed = 1;
nodes = (
(166,0,c),
(166,113,o),
(166,163,o),
(166,273,c),
(22,273,o),
(-22,273,o),
(-165,273,c),
(-166,163,o),
(-166,113,o),
(-165,0,c),
(-22,0,o),
(22,0,o)
);
}
);
},
{
layerId = m004;
shapes = (
{
closed = 1;
nodes = (
(66,0,c),
(66,41,o),
(66,61,o),
(66,101,c),
(10,101,o),
(-10,101,o),
(-66,101,c),
(-66,61,o),
(-66,41,o),
(-66,0,c),
(-10,0,o),
(10,0,o)
);
}
);
},
{
associatedMasterId = m004;
attr = {
coordinates = (
800,
1
);
};
layerId = m005;
name = ExtraBold;
shapes = (
{
closed = 1;
nodes = (
(166,0,c),
(166,113,o),
(166,163,o),
(166,273,c),
(22,273,o),
(-22,273,o),
(-165,273,c),
(-166,163,o),
(-166,113,o),
(-165,0,c),
(-22,0,o),
(22,0,o)
);
}
);
},
{
associatedMasterId = m004;
attr = {
coordinates = (
1000,
1
);
};
layerId = m006;
name = ExtraBlack;
shapes = (
{
closed = 1;
nodes = (
(223,0,c),
(223,153,o),
(223,221,o),
(223,371,c),
(29,371,o),
(-29,371,o),
(-223,371,c),
(-223,221,o),
(-223,153,o),
(-223,0,c),
(-29,0,o),
(29,0,o)
);
}
);
},
{
associatedMasterId = m004;
attr = {
coordinates = (
1000,
2
);
};
layerId = m007;
name = "ExtraBlack Dots2";
shapes = (
{
closed = 1;
nodes = (
(223,0,c),
(223,153,o),
(223,221,o),
(223,371,c),
(29,371,o),
(-29,371,o),
(-223,371,c),
(-223,221,o),
(-223,153,o),
(-223,0,c),
(-29,0,o),
(29,0,o)
);
}
);
},
{
associatedMasterId = m004;
attr = {
coordinates = (
1000,
3
);
};
layerId = m008;
name = "ExtraBlack Dots3";
shapes = (
{
closed = 1;
nodes = (
(0,-80,c),
(63,-17,o),
(188,108,o),
(250,170,c),
(181,239,o),
(57,363,o),
(0,420,c),
(-62,358,o),
(-187,233,o),
(-250,170,c),
(-187,107,o),
(-63,-17,o)
);
}
);
}
);
unicode = 64434;
},
{
glyphname = "symboldotbelowmod-arab";
layers = (
{
associatedMasterId = m004;
attr = {
coordinates = (
100,
3
);
};
layerId = m000;
name = "Thin Dots3";
shapes = (
{
closed = 1;
nodes = (
(0,-136,c),
(23,-114,o),
(67,-69,o),
(89,-47,c),
(65,-23,o),
(20,22,o),
(0,42,c),
(-22,20,o),
(-66,-24,o),
(-89,-47,c),
(-67,-69,o),
(-22,-114,o)
);
}
);
},
{
associatedMasterId = m004;
attr = {
coordinates = (
100,
2
);
};
layerId = m001;
name = "Thin Dots2";
shapes = (
{
closed = 1;
nodes = (
(66,-101,c),
(66,-60,o),
(66,-40,o),
(66,0,c),
(10,0,o),
(-10,0,o),
(-66,0,c),
(-66,-40,o),
(-66,-60,o),
(-66,-101,c),
(-10,-101,o),
(10,-101,o)
);
}
);
},
{
associatedMasterId = m004;
attr = {
coordinates = (
800,
3
);
};
layerId = m002;
name = "ExtraBold Dots3";
shapes = (
{
closed = 1;
nodes = (
(0,-348,c),
(54,-294,o),
(160,-188,o),
(212,-135,c),
(154,-77,o),
(48,29,o),
(0,77,c),
(-52,25,o),
(-159,-82,o),
(-212,-136,c),
(-159,-189,o),
(-53,-295,o)
);
}
);
},
{
associatedMasterId = m004;
attr = {
coordinates = (
800,
2
);
};
layerId = m003;
name = "ExtraBold Dots2";
shapes = (
{
closed = 1;
nodes = (
(166,-273,c),
(166,-160,o),
(166,-110,o),
(166,0,c),
(22,0,o),
(-22,0,o),
(-165,0,c),
(-166,-110,o),
(-166,-160,o),
(-165,-273,c),
(-22,-273,o),
(22,-273,o)
);
}
);
},
{
layerId = m004;
shapes = (
{
closed = 1;
nodes = (
(66,-101,c),
(66,-60,o),
(66,-40,o),
(66,0,c),
(10,0,o),
(-10,0,o),
(-66,0,c),
(-66,-40,o),
(-66,-60,o),
(-66,-101,c),
(-10,-101,o),
(10,-101,o)
);
}
);
},
{
associatedMasterId = m004;
attr = {
coordinates = (
800,
1
);
};
layerId = m005;
name = ExtraBold;
shapes = (
{
closed = 1;
nodes = (
(166,-266,c),
(166,-160,o),
(166,-110,o),
(166,0,c),
(22,0,o),
(-22,0,o),
(-165,0,c),
(-166,-110,o),
(-166,-160,o),
(-166,-266,c),
(-22,-266,o),
(22,-266,o)
);
}
);
},
{
associatedMasterId = m004;
attr = {
coordinates = (
1000,
1
);
};
layerId = m006;
name = ExtraBlack;
shapes = (
{
closed = 1;
nodes = (
(223,-371,c),
(223,-218,o),
(223,-151,o),
(223,0,c),
(29,0,o),
(-29,0,o),
(-223,0,c),
(-223,-151,o),
(-223,-218,o),
(-223,-371,c),
(-29,-371,o),
(29,-371,o)
);
}
);
},
{
associatedMasterId = m004;
attr = {
coordinates = (
1000,
3
);
};
layerId = m008;
name = "ExtraBlack Dots3";
shapes = (
{
closed = 1;
nodes = (
(0,-420,c),
(63,-357,o),
(188,-232,o),
(250,-170,c),
(181,-101,o),
(57,23,o),
(0,80,c),
(-62,18,o),
(-187,-107,o),
(-250,-170,c),
(-187,-233,o),
(-63,-357,o)
);
}
);
},
{
associatedMasterId = m004;
attr = {
coordinates = (
1000,
2
);
};
layerId = m007;
name = "ExtraBlack Dots2";
shapes = (
{
closed = 1;
nodes = (
(223,-371,c),
(223,-218,o),
(223,-151,o),
(223,0,c),
(29,0,o),
(-29,0,o),
(-223,0,c),
(-223,-151,o),
(-223,-218,o),
(-223,-371,c),
(-29,-371,o),
(29,-371,o)
);
}
);
}
);
unicode = 64435;
},
{
glyphname = "symboltwodotsabovemod-arab";
layers = (
{
associatedMasterId = m004;
attr = {
coordinates = (
100,
3
);
};
layerId = m000;
name = "Thin Dots3";
shapes = (
{
closed = 1;
nodes = (
(-161,-42,c),
(-138,-19,o),
(-94,25,o),
(-72,47,c),
(-96,72,o),
(-141,116,o),
(-161,136,c),
(-183,114,o),
(-227,70,o),
(-250,47,c),
(-228,25,o),
(-183,-20,o)
);
},
{
closed = 1;
nodes = (
(161,-42,c),
(184,-19,o),
(228,25,o),
(250,47,c),
(226,72,o),
(181,116,o),
(161,136,c),
(139,114,o),
(95,70,o),
(72,47,c),
(94,25,o),
(139,-20,o)
);
}
);
},
{
associatedMasterId = m004;
attr = {
coordinates = (
100,
2
);
};
layerId = m001;
name = "Thin Dots2";
shapes = (
{
closed = 1;
nodes = (
(10,0,c),
(11,30,o),
(11,35,o),
(10,84,c),
(-98,84,o),
(-136,84,o),
(-254,84,c),
(-255,35,o),
(-255,30,o),
(-254,0,c),
(-136,0,o),
(-98,0,o)
);
},
{
closed = 1;
nodes = (
(254,0,c),
(255,30,o),
(255,35,o),
(254,84,c),
(136,84,o),
(98,84,o),
(-10,84,c),
(-11,35,o),
(-11,30,o),
(-10,0,c),
(98,0,o),
(136,0,o)
);
}
);
},
{
associatedMasterId = m004;
attr = {
coordinates = (
800,
3
);
};
layerId = m002;
name = "ExtraBold Dots3";
shapes = (
{
closed = 1;
nodes = (
(-180,-67,c),
(-129,-16,o),
(-29,84,o),
(20,133,c),
(-35,188,o),
(-135,288,o),
(-180,333,c),
(-229,284,o),
(-329,184,o),
(-380,133,c),
(-330,83,o),
(-230,-17,o)
);
},
{
closed = 1;
nodes = (
(180,-67,c),
(231,-16,o),
(331,84,o),
(380,133,c),
(325,188,o),
(225,288,o),
(180,333,c),
(131,284,o),
(31,184,o),
(-20,133,c),
(30,83,o),
(130,-17,o)
);
}
);
},
{
associatedMasterId = m004;
attr = {
coordinates = (
800,
2
);
};
layerId = m003;
name = "ExtraBold Dots2";
shapes = (
{
closed = 1;
nodes = (
(0,0,c),
(21,100,o),
(21,148,o),
(0,261,c),
(-175,261,o),
(-217,261,o),
(-335,261,c),
(-336,148,o),
(-336,100,o),
(-335,0,c),
(-217,0,o),
(-175,0,o)
);
},
{
closed = 1;
nodes = (
(336,0,c),
(336,100,o),
(336,148,o),
(335,261,c),
(217,261,o),
(175,261,o),
(0,261,c),
(-20,148,o),
(-20,100,o),
(0,0,c),
(175,0,o),
(217,0,o)
);
}
);
},
{
layerId = m004;
shapes = (
{
closed = 1;
nodes = (
(-86,0,c),
(-86,41,o),
(-86,61,o),
(-86,101,c),
(-142,101,o),
(-162,101,o),
(-218,101,c),
(-218,61,o),
(-218,41,o),
(-218,0,c),
(-162,0,o),
(-142,0,o)
);
},
{
closed = 1;
nodes = (
(218,0,c),
(218,41,o),
(218,61,o),
(218,102,c),
(162,101,o),
(142,101,o),
(86,102,c),
(86,61,o),
(86,41,o),
(86,0,c),
(142,0,o),
(162,0,o)
);
}
);
},
{
associatedMasterId = m004;
attr = {
coordinates = (
800,
1
);
};
layerId = m005;
name = ExtraBold;
shapes = (
{
closed = 1;
nodes = (
(-51,0,c),
(-51,100,o),
(-51,148,o),
(-51,271,c),
(-157,271,o),
(-197,271,o),
(-336,271,c),
(-336,148,o),
(-336,100,o),
(-335,0,c),
(-197,0,o),
(-157,0,o)
);
},
{
closed = 1;
nodes = (
(335,0,c),
(336,100,o),
(336,148,o),
(335,271,c),
(196,271,o),
(157,271,o),
(51,271,c),
(51,148,o),
(51,100,o),
(51,0,c),
(157,0,o),
(197,0,o)
);
}
);
},
{
associatedMasterId = m004;
attr = {
coordinates = (
1000,
1
);
};
layerId = m006;
name = ExtraBlack;
shapes = (
{
closed = 1;
nodes = (
(0,0,c),
(32,141,o),
(32,217,o),
(0,362,c),
(-210,362,o),
(-263,362,o),
(-366,362,c),
(-366,217,o),
(-366,141,o),
(-366,0,c),
(-262,0,o),
(-209,0,o)
);
},
{
closed = 1;
nodes = (
(366,0,c),
(366,141,o),
(366,217,o),
(366,362,c),
(263,362,o),
(210,362,o),
(0,362,c),
(-32,217,o),
(-32,141,o),
(0,0,c),
(211,0,o),
(264,0,o)
);
}
);
},
{
associatedMasterId = m004;
attr = {
coordinates = (
1000,
3
);
};
layerId = m008;
name = "ExtraBlack Dots3";
shapes = (
{
closed = 1;
nodes = (
(-191,-65,c),
(-128,-3,o),
(-4,121,o),
(57,182,c),
(-11,250,o),
(-135,374,o),
(-191,430,c),
(-252,368,o),
(-376,245,o),
(-438,182,c),
(-376,120,o),
(-253,-3,o)
);
},
{
closed = 1;
nodes = (
(191,-65,c),
(254,-3,o),
(377,121,o),
(438,182,c),
(370,250,o),
(247,374,o),
(191,430,c),
(130,368,o),
(6,245,o),
(-57,182,c),
(5,120,o),
(129,-3,o)
);
}
);
},
{
associatedMasterId = m004;
attr = {
coordinates = (
1000,
2
);
};
layerId = m007;
name = "ExtraBlack Dots2";
shapes = (
{
closed = 1;
nodes = (
(0,0,c),
(32,141,o),
(32,217,o),
(0,362,c),
(-210,362,o),
(-263,362,o),
(-366,362,c),
(-366,217,o),
(-366,141,o),
(-366,0,c),
(-262,0,o),
(-209,0,o)
);
},
{
closed = 1;
nodes = (
(366,0,c),
(366,141,o),
(366,217,o),
(366,362,c),
(263,362,o),
(210,362,o),
(0,362,c),
(-32,217,o),
(-32,141,o),
(0,0,c),
(211,0,o),
(264,0,o)
);
}
);
},
{
associatedMasterId = m004;
attr = {
coordinates = (
801,
1
);
};
layerId = m009;
name = "801";
shapes = (
{
closed = 1;
nodes = (
(0,0,c),
(21,100,o),
(21,148,o),
(0,261,c),
(-175,261,o),
(-217,261,o),
(-335,261,c),
(-336,148,o),
(-336,100,o),
(-335,0,c),
(-217,0,o),
(-175,0,o)
);
},
{
closed = 1;
nodes = (
(336,0,c),
(336,100,o),
(336,148,o),
(335,261,c),
(217,261,o),
(175,261,o),
(0,261,c),
(-20,148,o),
(-20,100,o),
(0,0,c),
(175,0,o),
(217,0,o)
);
}
);
},
{
associatedMasterId = m004;
attr = {
coordinates = (
801,
3
);
};
layerId = m011;
name = "801 Dots3";
shapes = (
{
closed = 1;
nodes = (
(-180,-67,c),
(-129,-16,o),
(-29,84,o),
(20,133,c),
(-35,188,o),
(-135,288,o),
(-180,333,c),
(-229,284,o),
(-329,184,o),
(-380,133,c),
(-330,83,o),
(-230,-17,o)
);
},
{
closed = 1;
nodes = (
(180,-67,c),
(231,-16,o),
(331,84,o),
(380,133,c),
(325,188,o),
(225,288,o),
(180,333,c),
(131,284,o),
(31,184,o),
(-20,133,c),
(30,83,o),
(130,-17,o)
);
}
);
},
{
associatedMasterId = m004;
attr = {
coordinates = (
801,
2
);
};
layerId = m010;
name = "801 Dots2";
shapes = (
{
closed = 1;
nodes = (
(0,0,c),
(21,100,o),
(21,148,o),
(0,261,c),
(-175,261,o),
(-217,261,o),
(-335,261,c),
(-336,148,o),
(-336,100,o),
(-335,0,c),
(-217,0,o),
(-175,0,o)
);
},
{
closed = 1;
nodes = (
(336,0,c),
(336,100,o),
(336,148,o),
(335,261,c),
(217,261,o),
(175,261,o),
(0,261,c),
(-20,148,o),
(-20,100,o),
(0,0,c),
(175,0,o),
(217,0,o)
);
}
);
}
);
unicode = 64436;
},
{
glyphname = "symboltwodotsbelowmod-arab";
layers = (
{
associatedMasterId = m004;
attr = {
coordinates = (
100,
3
);
};
layerId = m000;
name = "Thin Dots3";
shapes = (
{
closed = 1;
nodes = (
(-161,-136,c),
(-138,-114,o),
(-94,-69,o),
(-72,-47,c),
(-96,-23,o),
(-141,22,o),
(-161,42,c),
(-183,20,o),
(-227,-24,o),
(-250,-47,c),
(-228,-69,o),
(-183,-114,o)
);
},
{
closed = 1;
nodes = (
(161,-136,c),
(184,-114,o),
(228,-69,o),
(250,-47,c),
(226,-23,o),
(181,22,o),
(161,42,c),
(139,20,o),
(95,-24,o),
(72,-47,c),
(94,-69,o),
(139,-114,o)
);
}
);
},
{
associatedMasterId = m004;
attr = {
coordinates = (
100,
2
);
};
layerId = m001;
name = "Thin Dots2";
shapes = (
{
closed = 1;
nodes = (
(10,-85,c),
(11,-35,o),
(11,-30,o),
(10,0,c),
(-98,0,o),
(-136,0,o),
(-254,0,c),
(-255,-30,o),
(-255,-35,o),
(-254,-85,c),
(-136,-85,o),
(-98,-85,o)
);
},
{
closed = 1;
nodes = (
(254,-85,c),
(255,-35,o),
(255,-30,o),
(254,0,c),
(136,0,o),
(98,0,o),
(-10,0,c),
(-11,-30,o),
(-11,-35,o),
(-10,-85,c),
(98,-85,o),
(136,-85,o)
);
}
);
},
{
associatedMasterId = m004;
attr = {
coordinates = (
800,
3
);
};
layerId = m002;
name = "ExtraBold Dots3";
shapes = (
{
closed = 1;
nodes = (
(-180,-333,c),
(-129,-282,o),
(-29,-182,o),
(20,-133,c),
(-35,-78,o),
(-135,22,o),
(-180,67,c),
(-229,18,o),
(-329,-82,o),
(-380,-133,c),
(-330,-183,o),
(-230,-283,o)
);
},
{
closed = 1;
nodes = (
(180,-333,c),
(231,-282,o),
(331,-182,o),
(380,-133,c),
(325,-78,o),
(225,22,o),
(180,67,c),
(131,18,o),
(31,-82,o),
(-20,-133,c),
(30,-183,o),
(130,-283,o)
);
}
);
},
{
associatedMasterId = m004;
attr = {
coordinates = (
800,
2
);
};
layerId = m003;
name = "ExtraBold Dots2";
shapes = (
{
closed = 1;
nodes = (
(0,-261,c),
(20,-166,o),
(20,-118,o),
(0,0,c),
(-175,0,o),
(-217,0,o),
(-336,0,c),
(-336,-118,o),
(-336,-166,o),
(-335,-261,c),
(-217,-261,o),
(-175,-261,o)
);
},
{
closed = 1;
nodes = (
(335,-261,c),
(336,-166,o),
(336,-118,o),
(335,0,c),
(217,0,o),
(175,0,o),
(0,0,c),
(-20,-118,o),
(-20,-166,o),
(0,-261,c),
(175,-261,o),
(217,-261,o)
);
}
);
},
{
layerId = m004;
shapes = (
{
closed = 1;
nodes = (
(-86,-102,c),
(-86,-61,o),
(-86,-41,o),
(-86,0,c),
(-142,-1,o),
(-162,-1,o),
(-218,0,c),
(-218,-41,o),
(-218,-61,o),
(-218,-102,c),
(-162,-102,o),
(-142,-102,o)
);
},
{
closed = 1;
nodes = (
(218,-101,c),
(218,-60,o),
(218,-40,o),
(218,0,c),
(162,0,o),
(142,0,o),
(86,0,c),
(86,-40,o),
(86,-60,o),
(86,-101,c),
(142,-101,o),
(162,-101,o)
);
}
);
},
{
associatedMasterId = m004;
attr = {
coordinates = (
800,
1
);
};
layerId = m005;
name = ExtraBold;
shapes = (
{
closed = 1;
nodes = (
(-51,-271,c),
(-51,-149,o),
(-51,-100,o),
(-51,0,c),
(-157,0,o),
(-197,0,o),
(-335,0,c),
(-336,-100,o),
(-336,-149,o),
(-335,-271,c),
(-197,-271,o),
(-157,-271,o)
);
},
{
closed = 1;
nodes = (
(335,-271,c),
(336,-149,o),
(336,-100,o),
(335,0,c),
(197,0,o),
(157,0,o),
(51,0,c),
(51,-100,o),
(51,-149,o),
(51,-271,c),
(148,-271,o),
(194,-271,o)
);
}
);
},
{
associatedMasterId = m004;
attr = {
coordinates = (
1000,
1
);
};
layerId = m006;
name = ExtraBlack;
shapes = (
{
closed = 1;
nodes = (
(0,-362,c),
(32,-221,o),
(32,-145,o),
(0,0,c),
(-210,0,o),
(-263,0,o),
(-366,0,c),
(-366,-145,o),
(-366,-221,o),
(-366,-362,c),
(-262,-362,o),
(-209,-362,o)
);
},
{
closed = 1;
nodes = (
(366,-362,c),
(366,-221,o),
(366,-145,o),
(366,0,c),
(263,0,o),
(210,0,o),
(0,0,c),
(-32,-145,o),
(-32,-221,o),
(0,-362,c),
(211,-362,o),
(264,-362,o)
);
}
);
},
{
associatedMasterId = m004;
attr = {
coordinates = (
1000,
3
);
};
layerId = m008;
name = "ExtraBlack Dots3";
shapes = (
{
closed = 1;
nodes = (
(-191,-430,c),
(-128,-367,o),
(-4,-243,o),
(57,-182,c),
(-11,-114,o),
(-135,9,o),
(-191,65,c),
(-252,4,o),
(-376,-119,o),
(-438,-182,c),
(-376,-244,o),
(-253,-368,o)
);
},
{
closed = 1;
nodes = (
(191,-430,c),
(254,-367,o),
(377,-243,o),
(438,-182,c),
(370,-114,o),
(247,9,o),
(191,65,c),
(130,4,o),
(6,-119,o),
(-57,-182,c),
(5,-244,o),
(129,-368,o)
);
}
);
},
{
associatedMasterId = m004;
attr = {
coordinates = (
1000,
2
);
};
layerId = m007;
name = "ExtraBlack Dots2";
shapes = (
{
closed = 1;
nodes = (
(0,-362,c),
(32,-221,o),
(32,-145,o),
(0,0,c),
(-210,0,o),
(-263,0,o),
(-366,0,c),
(-366,-145,o),
(-366,-221,o),
(-366,-362,c),
(-262,-362,o),
(-209,-362,o)
);
},
{
closed = 1;
nodes = (
(366,-362,c),
(366,-221,o),
(366,-145,o),
(366,0,c),
(263,0,o),
(210,0,o),
(0,0,c),
(-32,-145,o),
(-32,-221,o),
(0,-362,c),
(211,-362,o),
(264,-362,o)
);
}
);
},
{
associatedMasterId = m004;
attr = {
coordinates = (
801,
1
);
};
layerId = m009;
name = "801";
shapes = (
{
closed = 1;
nodes = (
(0,-261,c),
(20,-166,o),
(20,-118,o),
(0,0,c),
(-175,0,o),
(-217,0,o),
(-336,0,c),
(-336,-118,o),
(-336,-166,o),
(-335,-261,c),
(-217,-261,o),
(-175,-261,o)
);
},
{
closed = 1;
nodes = (
(335,-261,c),
(336,-166,o),
(336,-118,o),
(335,0,c),
(217,0,o),
(175,0,o),
(0,0,c),
(-20,-118,o),
(-20,-166,o),
(0,-261,c),
(175,-261,o),
(217,-261,o)
);
}
);
},
{
associatedMasterId = m004;
attr = {
coordinates = (
801,
2
);
};
layerId = m010;
name = "801 Dots2";
shapes = (
{
closed = 1;
nodes = (
(0,-261,c),
(20,-166,o),
(20,-118,o),
(0,0,c),
(-175,0,o),
(-217,0,o),
(-336,0,c),
(-336,-118,o),
(-336,-166,o),
(-335,-261,c),
(-217,-261,o),
(-175,-261,o)
);
},
{
closed = 1;
nodes = (
(335,-261,c),
(336,-166,o),
(336,-118,o),
(335,0,c),
(217,0,o),
(175,0,o),
(0,0,c),
(-20,-118,o),
(-20,-166,o),
(0,-261,c),
(175,-261,o),
(217,-261,o)
);
}
);
},
{
associatedMasterId = m004;
attr = {
coordinates = (
801,
3
);
};
layerId = m011;
name = "801 Dots3";
shapes = (
{
closed = 1;
nodes = (
(-180,-333,c),
(-129,-282,o),
(-29,-182,o),
(20,-133,c),
(-35,-78,o),
(-135,22,o),
(-180,67,c),
(-229,18,o),
(-329,-82,o),
(-380,-133,c),
(-330,-183,o),
(-230,-283,o)
);
},
{
closed = 1;
nodes = (
(180,-333,c),
(231,-282,o),
(331,-182,o),
(380,-133,c),
(325,-78,o),
(225,22,o),
(180,67,c),
(131,18,o),
(31,-82,o),
(-20,-133,c),
(30,-183,o),
(130,-283,o)
);
}
);
}
);
unicode = 64437;
},
{
glyphname = "symbolthreedotsabovemod-arab";
layers = (
{
associatedMasterId = m004;
attr = {
coordinates = (
100,
3
);
};
layerId = m000;
name = "Thin Dots3";
shapes = (
{
closed = 1;
nodes = (
(-161,-42,c),
(-138,-19,o),
(-94,25,o),
(-72,47,c),
(-96,72,o),
(-141,116,o),
(-161,136,c),
(-183,114,o),
(-227,70,o),
(-250,47,c),
(-228,25,o),
(-183,-20,o)
);
},
{
closed = 1;
nodes = (
(161,-42,c),
(184,-19,o),
(228,25,o),
(250,47,c),
(226,72,o),
(181,116,o),
(161,136,c),
(139,114,o),
(95,70,o),
(72,47,c),
(94,25,o),
(139,-20,o)
);
},
{
closed = 1;
nodes = (
(0,234,c),
(23,256,o),
(67,301,o),
(89,323,c),
(65,347,o),
(20,392,o),
(0,412,c),
(-22,390,o),
(-66,346,o),
(-89,323,c),
(-67,301,o),
(-22,256,o)
);
}
);
},
{
associatedMasterId = m004;
attr = {
coordinates = (
800,
3
);
};
layerId = m002;
name = "ExtraBold Dots3";
shapes = (
{
closed = 1;
nodes = (
(-180,-67,c),
(-132,-19,o),
(-37,76,o),
(10,123,c),
(-42,175,o),
(-137,270,o),
(-180,313,c),
(-227,266,o),
(-322,171,o),
(-370,123,c),
(-322,75,o),
(-228,-19,o)
);
},
{
closed = 1;
nodes = (
(180,-67,c),
(228,-19,o),
(323,76,o),
(370,123,c),
(318,175,o),
(223,270,o),
(180,313,c),
(133,266,o),
(38,171,o),
(-10,123,c),
(38,75,o),
(132,-19,o)
);
},
{
closed = 1;
nodes = (
(0,277,c),
(44,321,o),
(132,409,o),
(175,452,c),
(127,500,o),
(40,587,o),
(0,627,c),
(-43,584,o),
(-131,496,o),
(-175,452,c),
(-131,408,o),
(-44,321,o)
);
}
);
},
{
associatedMasterId = m004;
attr = {
coordinates = (
100,
2
);
};
layerId = m001;
name = "Thin Dots2";
shapes = (
{
closed = 1;
nodes = (
(10,0,c),
(11,30,o),
(11,35,o),
(10,84,c),
(-98,84,o),
(-136,84,o),
(-254,84,c),
(-255,35,o),
(-255,30,o),
(-254,0,c),
(-136,0,o),
(-98,0,o)
);
},
{
closed = 1;
nodes = (
(254,0,c),
(255,30,o),
(255,35,o),
(254,84,c),
(136,84,o),
(98,84,o),
(-10,84,c),
(-11,35,o),
(-11,30,o),
(-10,0,c),
(98,0,o),
(136,0,o)
);
},
{
closed = 1;
nodes = (
(66,286,c),
(66,327,o),
(66,347,o),
(66,388,c),
(10,387,o),
(-10,387,o),
(-66,388,c),
(-66,347,o),
(-66,327,o),
(-66,286,c),
(-10,286,o),
(10,286,o)
);
}
);
},
{
associatedMasterId = m004;
attr = {
coordinates = (
800,
2
);
};
layerId = m003;
name = "ExtraBold Dots2";
shapes = (
{
closed = 1;
nodes = (
(0,0,c),
(21,103,o),
(21,153,o),
(1,261,c),
(-168,261,o),
(-216,261,o),
(-335,261,c),
(-336,153,o),
(-336,103,o),
(-335,0,c),
(-217,0,o),
(-169,0,o)
);
},
{
closed = 1;
nodes = (
(336,0,c),
(337,103,o),
(337,153,o),
(337,261,c),
(218,261,o),
(170,261,o),
(1,261,c),
(-20,153,o),
(-20,103,o),
(1,0,c),
(169,0,o),
(217,0,o)
);
},
{
closed = 1;
nodes = (
(135,376,c),
(135,476,o),
(135,524,o),
(135,622,c),
(20,622,o),
(-20,622,o),
(-134,622,c),
(-135,524,o),
(-135,476,o),
(-134,376,c),
(-20,376,o),
(20,376,o)
);
}
);
},
{
layerId = m004;
shapes = (
{
closed = 1;
nodes = (
(-86,0,c),
(-86,41,o),
(-86,61,o),
(-86,101,c),
(-142,101,o),
(-162,101,o),
(-218,101,c),
(-218,61,o),
(-218,41,o),
(-218,0,c),
(-162,0,o),
(-142,0,o)
);
},
{
closed = 1;
nodes = (
(218,0,c),
(218,41,o),
(218,61,o),
(218,102,c),
(162,101,o),
(142,101,o),
(86,102,c),
(86,61,o),
(86,41,o),
(86,0,c),
(142,0,o),
(162,0,o)
);
},
{
closed = 1;
nodes = (
(66,286,c),
(66,327,o),
(66,347,o),
(66,388,c),
(10,387,o),
(-10,387,o),
(-66,388,c),
(-66,347,o),
(-66,327,o),
(-66,286,c),
(-10,286,o),
(10,286,o)
);
}
);
},
{
associatedMasterId = m004;
attr = {
coordinates = (
800,
1
);
};
layerId = m005;
name = ExtraBold;
shapes = (
{
closed = 1;
nodes = (
(-51,0,c),
(-51,100,o),
(-51,148,o),
(-51,271,c),
(-157,271,o),
(-197,271,o),
(-335,271,c),
(-336,148,o),
(-336,100,o),
(-335,0,c),
(-197,0,o),
(-157,0,o)
);
},
{
closed = 1;
nodes = (
(335,0,c),
(336,100,o),
(336,148,o),
(335,271,c),
(197,271,o),
(157,271,o),
(51,271,c),
(51,148,o),
(51,100,o),
(51,0,c),
(157,0,o),
(197,0,o)
);
},
{
closed = 1;
nodes = (
(135,376,c),
(135,476,o),
(135,524,o),
(135,622,c),
(20,622,o),
(-20,622,o),
(-134,622,c),
(-135,524,o),
(-135,476,o),
(-134,376,c),
(-20,376,o),
(20,376,o)
);
}
);
},
{
associatedMasterId = m004;
attr = {
coordinates = (
1000,
1
);
};
layerId = m006;
name = ExtraBlack;
shapes = (
{
closed = 1;
nodes = (
(0,0,c),
(32,141,o),
(32,217,o),
(0,362,c),
(-210,362,o),
(-263,362,o),
(-366,362,c),
(-366,217,o),
(-366,141,o),
(-366,0,c),
(-262,0,o),
(-209,0,o)
);
},
{
closed = 1;
nodes = (
(366,0,c),
(366,141,o),
(366,217,o),
(366,362,c),
(263,362,o),
(210,362,o),
(0,362,c),
(-32,217,o),
(-32,141,o),
(0,0,c),
(211,0,o),
(264,0,o)
);
},
{
closed = 1;
nodes = (
(174,427,c),
(175,560,o),
(175,625,o),
(174,756,c),
(25,756,o),
(-25,756,o),
(-173,756,c),
(-174,625,o),
(-174,560,o),
(-173,427,c),
(-25,427,o),
(25,427,o)
);
}
);
},
{
associatedMasterId = m004;
attr = {
coordinates = (
1000,
3
);
};
layerId = m008;
name = "ExtraBlack Dots3";
shapes = (
{
closed = 1;
nodes = (
(-191,-81,c),
(-128,-18,o),
(-4,105,o),
(57,166,c),
(-11,234,o),
(-135,358,o),
(-191,414,c),
(-252,353,o),
(-376,229,o),
(-439,166,c),
(-377,104,o),
(-253,-19,o)
);
},
{
closed = 1;
nodes = (
(191,-81,c),
(254,-18,o),
(377,105,o),
(439,166,c),
(371,234,o),
(247,358,o),
(191,414,c),
(130,353,o),
(6,229,o),
(-57,166,c),
(5,104,o),
(129,-19,o)
);
},
{
closed = 1;
nodes = (
(0,302,c),
(57,359,o),
(169,470,o),
(224,526,c),
(163,587,o),
(51,699,o),
(0,750,c),
(-55,695,o),
(-167,583,o),
(-224,526,c),
(-168,470,o),
(-56,358,o)
);
}
);
},
{
associatedMasterId = m004;
attr = {
coordinates = (
1000,
2
);
};
layerId = m007;
name = "ExtraBlack Dots2";
shapes = (
{
closed = 1;
nodes = (
(0,0,c),
(32,141,o),
(32,217,o),
(0,362,c),
(-210,362,o),
(-263,362,o),
(-366,362,c),
(-366,217,o),
(-366,141,o),
(-366,0,c),
(-262,0,o),
(-209,0,o)
);
},
{
closed = 1;
nodes = (
(366,0,c),
(366,141,o),
(366,217,o),
(366,362,c),
(263,362,o),
(210,362,o),
(0,362,c),
(-32,217,o),
(-32,141,o),
(0,0,c),
(211,0,o),
(264,0,o)
);
},
{
closed = 1;
nodes = (
(174,427,c),
(175,560,o),
(175,625,o),
(174,756,c),
(25,756,o),
(-25,756,o),
(-173,756,c),
(-174,625,o),
(-174,560,o),
(-173,427,c),
(-25,427,o),
(25,427,o)
);
}
);
},
{
associatedMasterId = m004;
attr = {
coordinates = (
801,
1
);
};
layerId = m009;
name = "801";
shapes = (
{
closed = 1;
nodes = (
(0,0,c),
(21,103,o),
(21,153,o),
(1,261,c),
(-168,261,o),
(-216,261,o),
(-335,261,c),
(-336,153,o),
(-336,103,o),
(-335,0,c),
(-217,0,o),
(-169,0,o)
);
},
{
closed = 1;
nodes = (
(336,0,c),
(337,103,o),
(337,153,o),
(337,261,c),
(218,261,o),
(170,261,o),
(1,261,c),
(-20,153,o),
(-20,103,o),
(1,0,c),
(169,0,o),
(217,0,o)
);
},
{
closed = 1;
nodes = (
(135,376,c),
(136,476,o),
(136,525,o),
(135,623,c),
(20,622,o),
(-20,622,o),
(-134,623,c),
(-135,525,o),
(-135,476,o),
(-134,376,c),
(-20,376,o),
(20,376,o)
);
}
);
},
{
associatedMasterId = m004;
attr = {
coordinates = (
801,
3
);
};
layerId = m011;
name = "801 Dots3";
shapes = (
{
closed = 1;
nodes = (
(-180,-67,c),
(-132,-19,o),
(-37,76,o),
(10,123,c),
(-42,175,o),
(-137,270,o),
(-180,313,c),
(-227,266,o),
(-322,171,o),
(-370,123,c),
(-322,75,o),
(-228,-19,o)
);
},
{
closed = 1;
nodes = (
(180,-67,c),
(228,-19,o),
(323,76,o),
(370,123,c),
(318,175,o),
(223,270,o),
(180,313,c),
(133,266,o),
(38,171,o),
(-10,123,c),
(38,75,o),
(132,-19,o)
);
},
{
closed = 1;
nodes = (
(0,277,c),
(44,321,o),
(132,409,o),
(175,452,c),
(127,500,o),
(40,587,o),
(0,627,c),
(-43,584,o),
(-131,496,o),
(-175,452,c),
(-131,408,o),
(-44,321,o)
);
}
);
},
{
associatedMasterId = m004;
attr = {
coordinates = (
801,
2
);
};
layerId = m010;
name = "801 Dots2";
shapes = (
{
closed = 1;
nodes = (
(0,0,c),
(21,103,o),
(21,153,o),
(1,261,c),
(-168,261,o),
(-216,261,o),
(-335,261,c),
(-336,153,o),
(-336,103,o),
(-335,0,c),
(-217,0,o),
(-169,0,o)
);
},
{
closed = 1;
nodes = (
(336,0,c),
(337,103,o),
(337,153,o),
(337,261,c),
(218,261,o),
(170,261,o),
(1,261,c),
(-20,153,o),
(-20,103,o),
(1,0,c),
(169,0,o),
(217,0,o)
);
},
{
closed = 1;
nodes = (
(135,376,c),
(136,476,o),
(136,525,o),
(135,623,c),
(20,622,o),
(-20,622,o),
(-134,623,c),
(-135,525,o),
(-135,476,o),
(-134,376,c),
(-20,376,o),
(20,376,o)
);
}
);
}
);
unicode = 64438;
},
{
glyphname = "symbolthreedotspointingdownwardsbelowmod-arab";
layers = (
{
associatedMasterId = m004;
attr = {
coordinates = (
100,
3
);
};
layerId = m000;
name = "Thin Dots3";
shapes = (
{
closed = 1;
nodes = (
(-161,-136,c),
(-138,-114,o),
(-94,-69,o),
(-72,-47,c),
(-96,-23,o),
(-141,22,o),
(-161,42,c),
(-183,20,o),
(-227,-24,o),
(-250,-47,c),
(-228,-69,o),
(-183,-114,o)
);
},
{
closed = 1;
nodes = (
(161,-136,c),
(184,-114,o),
(228,-69,o),
(250,-47,c),
(226,-23,o),
(181,22,o),
(161,42,c),
(139,20,o),
(95,-24,o),
(72,-47,c),
(94,-69,o),
(139,-114,o)
);
},
{
closed = 1;
nodes = (
(0,-418,c),
(23,-396,o),
(67,-351,o),
(89,-329,c),
(65,-305,o),
(20,-260,o),
(0,-240,c),
(-22,-262,o),
(-66,-306,o),
(-89,-329,c),
(-67,-351,o),
(-22,-396,o)
);
}
);
},
{
associatedMasterId = m004;
attr = {
coordinates = (
100,
2
);
};
layerId = m001;
name = "Thin Dots2";
shapes = (
{
closed = 1;
nodes = (
(10,-85,c),
(11,-35,o),
(11,-30,o),
(10,0,c),
(-98,0,o),
(-136,0,o),
(-254,0,c),
(-255,-30,o),
(-255,-35,o),
(-254,-85,c),
(-136,-85,o),
(-98,-85,o)
);
},
{
closed = 1;
nodes = (
(254,-85,c),
(255,-35,o),
(255,-30,o),
(254,0,c),
(136,0,o),
(98,0,o),
(-10,0,c),
(-11,-30,o),
(-11,-35,o),
(-10,-85,c),
(98,-85,o),
(136,-85,o)
);
},
{
closed = 1;
nodes = (
(66,-393,c),
(66,-352,o),
(66,-332,o),
(66,-292,c),
(10,-292,o),
(-10,-292,o),
(-66,-292,c),
(-66,-332,o),
(-66,-352,o),
(-66,-393,c),
(-10,-393,o),
(10,-393,o)
);
}
);
},
{
associatedMasterId = m004;
attr = {
coordinates = (
800,
3
);
};
layerId = m002;
name = "ExtraBold Dots3";
shapes = (
{
closed = 1;
nodes = (
(-180,-313,c),
(-132,-265,o),
(-37,-170,o),
(10,-123,c),
(-42,-71,o),
(-137,24,o),
(-180,67,c),
(-227,20,o),
(-322,-75,o),
(-370,-123,c),
(-322,-171,o),
(-228,-265,o)
);
},
{
closed = 1;
nodes = (
(180,-313,c),
(228,-265,o),
(323,-170,o),
(370,-123,c),
(318,-71,o),
(223,24,o),
(180,67,c),
(133,20,o),
(38,-75,o),
(-10,-123,c),
(38,-171,o),
(132,-265,o)
);
},
{
closed = 1;
nodes = (
(0,-627,c),
(44,-583,o),
(132,-495,o),
(175,-452,c),
(127,-404,o),
(40,-317,o),
(0,-277,c),
(-43,-320,o),
(-131,-408,o),
(-175,-452,c),
(-131,-496,o),
(-44,-583,o)
);
}
);
},
{
associatedMasterId = m004;
attr = {
coordinates = (
800,
2
);
};
layerId = m003;
name = "ExtraBold Dots2";
shapes = (
{
closed = 1;
nodes = (
(1,-261,c),
(21,-153,o),
(21,-103,o),
(0,0,c),
(-169,0,o),
(-217,0,o),
(-335,0,c),
(-336,-103,o),
(-336,-153,o),
(-335,-261,c),
(-216,-261,o),
(-168,-261,o)
);
},
{
closed = 1;
nodes = (
(337,-261,c),
(337,-153,o),
(337,-103,o),
(336,0,c),
(217,0,o),
(169,0,o),
(1,0,c),
(-20,-103,o),
(-20,-153,o),
(1,-261,c),
(169,-261,o),
(217,-261,o)
);
},
{
closed = 1;
nodes = (
(135,-622,c),
(135,-524,o),
(135,-476,o),
(135,-376,c),
(20,-376,o),
(-20,-376,o),
(-134,-376,c),
(-135,-476,o),
(-135,-524,o),
(-134,-622,c),
(-20,-622,o),
(20,-622,o)
);
}
);
},
{
layerId = m004;
shapes = (
{
closed = 1;
nodes = (
(-86,-102,c),
(-86,-61,o),
(-86,-41,o),
(-86,0,c),
(-142,-1,o),
(-162,-1,o),
(-218,0,c),
(-218,-41,o),
(-218,-61,o),
(-218,-102,c),
(-162,-102,o),
(-142,-102,o)
);
},
{
closed = 1;
nodes = (
(218,-101,c),
(218,-60,o),
(218,-40,o),
(218,0,c),
(162,0,o),
(142,0,o),
(86,0,c),
(86,-40,o),
(86,-60,o),
(86,-101,c),
(142,-101,o),
(162,-101,o)
);
},
{
closed = 1;
nodes = (
(66,-393,c),
(66,-352,o),
(66,-332,o),
(66,-292,c),
(10,-292,o),
(-10,-292,o),
(-66,-292,c),
(-66,-332,o),
(-66,-352,o),
(-66,-393,c),
(-10,-393,o),
(10,-393,o)
);
}
);
},
{
associatedMasterId = m004;
attr = {
coordinates = (
800,
1
);
};
layerId = m005;
name = ExtraBold;
shapes = (
{
closed = 1;
nodes = (
(-51,-271,c),
(-51,-149,o),
(-51,-100,o),
(-51,0,c),
(-157,0,o),
(-197,0,o),
(-335,0,c),
(-336,-100,o),
(-336,-149,o),
(-335,-271,c),
(-197,-271,o),
(-157,-271,o)
);
},
{
closed = 1;
nodes = (
(335,-271,c),
(336,-149,o),
(336,-100,o),
(335,0,c),
(197,0,o),
(157,0,o),
(51,0,c),
(51,-100,o),
(51,-149,o),
(51,-271,c),
(157,-271,o),
(197,-271,o)
);
},
{
closed = 1;
nodes = (
(135,-622,c),
(135,-524,o),
(135,-476,o),
(135,-376,c),
(20,-376,o),
(-20,-376,o),
(-134,-376,c),
(-135,-476,o),
(-135,-524,o),
(-134,-622,c),
(-20,-622,o),
(20,-622,o)
);
}
);
},
{
associatedMasterId = m004;
attr = {
coordinates = (
1000,
1
);
};
layerId = m006;
name = ExtraBlack;
shapes = (
{
closed = 1;
nodes = (
(0,-362,c),
(32,-221,o),
(32,-145,o),
(0,0,c),
(-210,0,o),
(-263,0,o),
(-366,0,c),
(-366,-145,o),
(-366,-221,o),
(-366,-362,c),
(-262,-362,o),
(-209,-362,o)
);
},
{
closed = 1;
nodes = (
(366,-362,c),
(366,-221,o),
(366,-145,o),
(366,0,c),
(263,0,o),
(210,0,o),
(0,0,c),
(-32,-145,o),
(-32,-221,o),
(0,-362,c),
(211,-362,o),
(264,-362,o)
);
},
{
closed = 1;
nodes = (
(174,-753,c),
(175,-623,o),
(175,-558,o),
(174,-424,c),
(25,-424,o),
(-25,-424,o),
(-173,-424,c),
(-174,-558,o),
(-174,-623,o),
(-173,-753,c),
(-25,-752,o),
(25,-752,o)
);
}
);
},
{
associatedMasterId = m004;
attr = {
coordinates = (
1000,
3
);
};
layerId = m008;
name = "ExtraBlack Dots3";
shapes = (
{
closed = 1;
nodes = (
(-191,-414,c),
(-128,-351,o),
(-4,-227,o),
(57,-166,c),
(-11,-98,o),
(-135,25,o),
(-191,81,c),
(-252,20,o),
(-376,-103,o),
(-439,-166,c),
(-377,-228,o),
(-253,-352,o)
);
},
{
closed = 1;
nodes = (
(191,-414,c),
(254,-351,o),
(377,-227,o),
(439,-166,c),
(371,-98,o),
(247,25,o),
(191,81,c),
(130,20,o),
(6,-103,o),
(-57,-166,c),
(5,-228,o),
(129,-352,o)
);
},
{
closed = 1;
nodes = (
(0,-746,c),
(57,-689,o),
(169,-578,o),
(224,-522,c),
(163,-461,o),
(51,-349,o),
(0,-298,c),
(-55,-353,o),
(-167,-465,o),
(-224,-522,c),
(-168,-578,o),
(-56,-690,o)
);
}
);
},
{
associatedMasterId = m004;
attr = {
coordinates = (
1000,
2
);
};
layerId = m007;
name = "ExtraBlack Dots2";
shapes = (
{
closed = 1;
nodes = (
(0,-362,c),
(32,-221,o),
(32,-145,o),
(0,0,c),
(-210,0,o),
(-263,0,o),
(-366,0,c),
(-366,-145,o),
(-366,-221,o),
(-366,-362,c),
(-262,-362,o),
(-209,-362,o)
);
},
{
closed = 1;
nodes = (
(366,-362,c),
(366,-221,o),
(366,-145,o),
(366,0,c),
(263,0,o),
(210,0,o),
(0,0,c),
(-32,-145,o),
(-32,-221,o),
(0,-362,c),
(211,-362,o),
(264,-362,o)
);
},
{
closed = 1;
nodes = (
(174,-753,c),
(175,-623,o),
(175,-558,o),
(174,-424,c),
(25,-424,o),
(-25,-424,o),
(-173,-424,c),
(-174,-558,o),
(-174,-623,o),
(-173,-753,c),
(-25,-752,o),
(25,-752,o)
);
}
);
},
{
associatedMasterId = m004;
attr = {
coordinates = (
801,
1
);
};
layerId = m009;
name = "801";
shapes = (
{
closed = 1;
nodes = (
(1,-261,c),
(21,-153,o),
(21,-103,o),
(0,0,c),
(-169,0,o),
(-217,0,o),
(-335,0,c),
(-336,-103,o),
(-336,-153,o),
(-335,-261,c),
(-216,-261,o),
(-168,-261,o)
);
},
{
closed = 1;
nodes = (
(337,-261,c),
(337,-153,o),
(337,-103,o),
(336,0,c),
(217,0,o),
(169,0,o),
(1,0,c),
(-20,-103,o),
(-20,-153,o),
(1,-261,c),
(169,-261,o),
(217,-261,o)
);
},
{
closed = 1;
nodes = (
(135,-623,c),
(136,-525,o),
(136,-476,o),
(135,-376,c),
(20,-376,o),
(-20,-376,o),
(-134,-376,c),
(-135,-476,o),
(-135,-525,o),
(-134,-623,c),
(-20,-622,o),
(20,-622,o)
);
}
);
},
{
associatedMasterId = m004;
attr = {
coordinates = (
801,
2
);
};
layerId = m010;
name = "801 Dots2";
shapes = (
{
closed = 1;
nodes = (
(1,-261,c),
(21,-153,o),
(21,-103,o),
(0,0,c),
(-169,0,o),
(-217,0,o),
(-335,0,c),
(-336,-103,o),
(-336,-153,o),
(-335,-261,c),
(-216,-261,o),
(-168,-261,o)
);
},
{
closed = 1;
nodes = (
(337,-261,c),
(337,-153,o),
(337,-103,o),
(336,0,c),
(217,0,o),
(169,0,o),
(1,0,c),
(-20,-103,o),
(-20,-153,o),
(1,-261,c),
(169,-261,o),
(217,-261,o)
);
},
{
closed = 1;
nodes = (
(135,-623,c),
(136,-525,o),
(136,-476,o),
(135,-376,c),
(20,-376,o),
(-20,-376,o),
(-134,-376,c),
(-135,-476,o),
(-135,-525,o),
(-134,-623,c),
(-20,-622,o),
(20,-622,o)
);
}
);
},
{
associatedMasterId = m004;
attr = {
coordinates = (
801,
3
);
};
layerId = m011;
name = "801 Dots3";
shapes = (
{
closed = 1;
nodes = (
(-180,-313,c),
(-132,-265,o),
(-37,-170,o),
(10,-123,c),
(-42,-71,o),
(-137,24,o),
(-180,67,c),
(-227,20,o),
(-322,-75,o),
(-370,-123,c),
(-322,-171,o),
(-228,-265,o)
);
},
{
closed = 1;
nodes = (
(180,-313,c),
(228,-265,o),
(323,-170,o),
(370,-123,c),
(318,-71,o),
(223,24,o),
(180,67,c),
(133,20,o),
(38,-75,o),
(-10,-123,c),
(38,-171,o),
(132,-265,o)
);
},
{
closed = 1;
nodes = (
(0,-627,c),
(44,-583,o),
(132,-495,o),
(175,-452,c),
(127,-404,o),
(40,-317,o),
(0,-277,c),
(-43,-320,o),
(-131,-408,o),
(-175,-452,c),
(-131,-496,o),
(-44,-583,o)
);
}
);
}
);
unicode = 64441;
},
{
glyphname = uniE000;
layers = (
{
associatedMasterId = m004;
attr = {
coordinates = (
100,
3
);
};
layerId = m000;
name = "Thin Dots3";
shapes = (
{
closed = 1;
nodes = (
(-124,-123,c),
(-108,-95,o),
(-77,-41,o),
(-61,-14,c),
(-91,4,o),
(-146,35,o),
(-171,49,c),
(-186,22,o),
(-218,-32,o),
(-234,-60,c),
(-206,-76,o),
(-152,-107,o)
);
},
{
closed = 1;
nodes = (
(176,-45,c),
(192,-18,o),
(223,37,o),
(239,64,c),
(209,81,o),
(154,112,o),
(130,127,c),
(114,100,o),
(83,45,o),
(67,18,c),
(94,2,o),
(148,-30,o)
);
},
{
closed = 1;
nodes = (
(80,-295,c),
(96,-267,o),
(128,-212,o),
(143,-185,c),
(113,-168,o),
(59,-137,o),
(34,-122,c),
(18,-149,o),
(-13,-204,o),
(-29,-232,c),
(-2,-247,o),
(53,-279,o)
);
}
);
},
{
associatedMasterId = m004;
attr = {
coordinates = (
100,
2
);
};
layerId = m001;
name = "Thin Dots2";
shapes = (
{
closed = 1;
nodes = (
(0,-85,c),
(11,-35,o),
(11,-30,o),
(0,0,c),
(-98,0,o),
(-136,0,o),
(-254,0,c),
(-255,-30,o),
(-255,-35,o),
(-254,-85,c),
(-136,-85,o),
(-98,-85,o)
);
},
{
closed = 1;
nodes = (
(254,-85,c),
(255,-35,o),
(255,-30,o),
(254,0,c),
(136,0,o),
(98,0,o),
(0,0,c),
(-11,-30,o),
(-11,-35,o),
(0,-85,c),
(98,-85,o),
(136,-85,o)
);
},
{
closed = 1;
nodes = (
(66,-313,c),
(66,-272,o),
(66,-252,o),
(66,-212,c),
(10,-212,o),
(-10,-212,o),
(-66,-212,c),
(-66,-252,o),
(-66,-272,o),
(-66,-313,c),
(-10,-313,o),
(10,-313,o)
);
}
);
},
{
associatedMasterId = m004;
attr = {
coordinates = (
800,
3
);
};
layerId = m002;
name = "ExtraBold Dots3";
shapes = (
{
closed = 1;
nodes = (
(-130,-264,c),
(-105,-220,o),
(-55,-133,o),
(-30,-91,c),
(-78,-63,o),
(-164,-13,o),
(-203,9,c),
(-228,-33,o),
(-278,-120,o),
(-303,-164,c),
(-260,-189,o),
(-173,-239,o)
);
},
{
closed = 1;
nodes = (
(160,-186,c),
(185,-142,o),
(235,-55,o),
(260,-13,c),
(212,15,o),
(126,65,o),
(87,87,c),
(62,45,o),
(12,-42,o),
(-13,-86,c),
(30,-111,o),
(117,-161,o)
);
},
{
closed = 1;
nodes = (
(61,-383,c),
(83,-344,o),
(127,-268,o),
(149,-230,c),
(107,-206,o),
(31,-162,o),
(-4,-142,c),
(-26,-179,o),
(-70,-256,o),
(-92,-294,c),
(-54,-316,o),
(22,-361,o)
);
}
);
},
{
associatedMasterId = m004;
attr = {
coordinates = (
800,
2
);
};
layerId = m003;
name = "ExtraBold Dots2";
shapes = (
{
closed = 1;
nodes = (
(0,-156,c),
(4,-96,o),
(4,-61,o),
(0,0,c),
(-111,0,o),
(-141,0,o),
(-226,0,c),
(-226,-61,o),
(-226,-96,o),
(-226,-156,c),
(-141,-156,o),
(-111,-156,o)
);
},
{
closed = 1;
nodes = (
(226,-156,c),
(226,-96,o),
(226,-61,o),
(226,0,c),
(141,0,o),
(111,0,o),
(0,0,c),
(-4,-61,o),
(-4,-96,o),
(0,-156,c),
(111,-156,o),
(141,-156,o)
);
},
{
closed = 1;
nodes = (
(100,-374,c),
(100,-311,o),
(100,-280,o),
(100,-216,c),
(15,-216,o),
(-15,-216,o),
(-100,-216,c),
(-100,-280,o),
(-100,-311,o),
(-100,-374,c),
(-15,-374,o),
(15,-374,o)
);
}
);
},
{
layerId = m004;
shapes = (
{
closed = 1;
nodes = (
(-86,-102,c),
(-86,-61,o),
(-86,-41,o),
(-86,0,c),
(-142,-1,o),
(-162,-1,o),
(-218,0,c),
(-218,-41,o),
(-218,-61,o),
(-218,-102,c),
(-162,-102,o),
(-142,-102,o)
);
},
{
closed = 1;
nodes = (
(218,-101,c),
(218,-60,o),
(218,-40,o),
(218,0,c),
(162,0,o),
(142,0,o),
(86,0,c),
(86,-40,o),
(86,-60,o),
(86,-101,c),
(142,-101,o),
(162,-101,o)
);
},
{
closed = 1;
nodes = (
(66,-313,c),
(66,-272,o),
(66,-252,o),
(66,-212,c),
(10,-212,o),
(-10,-212,o),
(-66,-212,c),
(-66,-252,o),
(-66,-272,o),
(-66,-313,c),
(-10,-313,o),
(10,-313,o)
);
}
);
},
{
associatedMasterId = m004;
attr = {
coordinates = (
800,
1
);
};
layerId = m005;
name = ExtraBold;
shapes = (
{
closed = 1;
nodes = (
(-26,-176,c),
(-26,-106,o),
(-26,-71,o),
(-26,0,c),
(-111,0,o),
(-141,0,o),
(-226,0,c),
(-226,-71,o),
(-226,-106,o),
(-226,-176,c),
(-141,-176,o),
(-111,-176,o)
);
},
{
closed = 1;
nodes = (
(226,-176,c),
(226,-106,o),
(226,-71,o),
(226,0,c),
(141,0,o),
(111,0,o),
(26,0,c),
(26,-71,o),
(26,-106,o),
(26,-176,c),
(111,-176,o),
(141,-176,o)
);
},
{
closed = 1;
nodes = (
(100,-374,c),
(100,-311,o),
(100,-280,o),
(100,-216,c),
(15,-216,o),
(-15,-216,o),
(-100,-216,c),
(-100,-280,o),
(-100,-311,o),
(-100,-374,c),
(-15,-374,o),
(15,-374,o)
);
}
);
},
{
associatedMasterId = m004;
attr = {
coordinates = (
1000,
1
);
};
layerId = m006;
name = ExtraBlack;
shapes = (
{
closed = 1;
nodes = (
(0,-197,c),
(10,-131,o),
(10,-79,o),
(0,0,c),
(-108,0,o),
(-134,0,o),
(-209,0,c),
(-210,-79,o),
(-210,-131,o),
(-209,-197,c),
(-134,-196,o),
(-108,-196,o)
);
},
{
closed = 1;
nodes = (
(209,-197,c),
(210,-131,o),
(210,-79,o),
(209,0,c),
(134,0,o),
(108,0,o),
(0,0,c),
(-10,-79,o),
(-10,-131,o),
(0,-197,c),
(108,-196,o),
(134,-196,o)
);
},
{
closed = 1;
nodes = (
(119,-409,c),
(120,-334,o),
(120,-296,o),
(119,-218,c),
(18,-218,o),
(-18,-218,o),
(-119,-218,c),
(-120,-296,o),
(-120,-334,o),
(-119,-409,c),
(-18,-408,o),
(18,-408,o)
);
}
);
},
{
associatedMasterId = m004;
attr = {
coordinates = (
1000,
3
);
};
layerId = m008;
name = "ExtraBlack Dots3";
shapes = (
{
closed = 1;
nodes = (
(-141,-288,c),
(-115,-244,o),
(-65,-157,o),
(-40,-114,c),
(-88,-86,o),
(-175,-36,o),
(-215,-13,c),
(-239,-56,o),
(-290,-143,o),
(-315,-188,c),
(-272,-213,o),
(-184,-263,o)
);
},
{
closed = 1;
nodes = (
(143,-210,c),
(169,-166,o),
(219,-79,o),
(244,-36,c),
(196,-8,o),
(109,42,o),
(70,65,c),
(45,22,o),
(-5,-65,o),
(-31,-109,c),
(13,-135,o),
(100,-185,o)
);
},
{
closed = 1;
nodes = (
(49,-428,c),
(74,-383,o),
(125,-296,o),
(149,-253,c),
(102,-226,o),
(15,-175,o),
(-25,-153,c),
(-50,-196,o),
(-100,-283,o),
(-126,-327,c),
(-82,-352,o),
(5,-402,o)
);
}
);
},
{
associatedMasterId = m004;
attr = {
coordinates = (
1000,
2
);
};
layerId = m007;
name = "ExtraBlack Dots2";
shapes = (
{
closed = 1;
nodes = (
(0,-197,c),
(10,-131,o),
(10,-79,o),
(0,0,c),
(-108,0,o),
(-134,0,o),
(-209,0,c),
(-210,-79,o),
(-210,-131,o),
(-209,-197,c),
(-134,-196,o),
(-108,-196,o)
);
},
{
closed = 1;
nodes = (
(209,-197,c),
(210,-131,o),
(210,-79,o),
(209,0,c),
(134,0,o),
(108,0,o),
(0,0,c),
(-10,-79,o),
(-10,-131,o),
(0,-197,c),
(108,-196,o),
(134,-196,o)
);
},
{
closed = 1;
nodes = (
(119,-409,c),
(120,-334,o),
(120,-296,o),
(119,-218,c),
(18,-218,o),
(-18,-218,o),
(-119,-218,c),
(-120,-296,o),
(-120,-334,o),
(-119,-409,c),
(-18,-408,o),
(18,-408,o)
);
}
);
},
{
associatedMasterId = m004;
attr = {
coordinates = (
801,
1
);
};
layerId = m009;
name = "801";
shapes = (
{
closed = 1;
nodes = (
(0,-156,c),
(14,-96,o),
(14,-61,o),
(0,0,c),
(-111,0,o),
(-141,0,o),
(-226,0,c),
(-226,-61,o),
(-226,-96,o),
(-226,-156,c),
(-141,-156,o),
(-111,-156,o)
);
},
{
closed = 1;
nodes = (
(226,-156,c),
(226,-96,o),
(226,-61,o),
(226,0,c),
(141,0,o),
(111,0,o),
(0,0,c),
(-14,-61,o),
(-14,-96,o),
(0,-156,c),
(111,-156,o),
(141,-156,o)
);
},
{
closed = 1;
nodes = (
(100,-374,c),
(100,-311,o),
(100,-280,o),
(100,-216,c),
(15,-216,o),
(-15,-216,o),
(-100,-216,c),
(-100,-280,o),
(-100,-311,o),
(-100,-374,c),
(-15,-374,o),
(15,-374,o)
);
}
);
},
{
associatedMasterId = m004;
attr = {
coordinates = (
801,
2
);
};
layerId = m010;
name = "801 Dots2";
shapes = (
{
closed = 1;
nodes = (
(0,-156,c),
(14,-96,o),
(14,-61,o),
(0,0,c),
(-111,0,o),
(-141,0,o),
(-226,0,c),
(-226,-61,o),
(-226,-96,o),
(-226,-156,c),
(-141,-156,o),
(-111,-156,o)
);
},
{
closed = 1;
nodes = (
(226,-156,c),
(226,-96,o),
(226,-61,o),
(226,0,c),
(141,0,o),
(111,0,o),
(0,0,c),
(-14,-61,o),
(-14,-96,o),
(0,-156,c),
(111,-156,o),
(141,-156,o)
);
},
{
closed = 1;
nodes = (
(100,-374,c),
(100,-311,o),
(100,-280,o),
(100,-216,c),
(15,-216,o),
(-15,-216,o),
(-100,-216,c),
(-100,-280,o),
(-100,-311,o),
(-100,-374,c),
(-15,-374,o),
(15,-374,o)
);
}
);
},
{
associatedMasterId = m004;
attr = {
coordinates = (
801,
3
);
};
layerId = m011;
name = "801 Dots3";
shapes = (
{
closed = 1;
nodes = (
(-130,-264,c),
(-105,-220,o),
(-55,-133,o),
(-30,-91,c),
(-78,-63,o),
(-164,-13,o),
(-203,9,c),
(-228,-33,o),
(-278,-120,o),
(-303,-164,c),
(-260,-189,o),
(-173,-239,o)
);
},
{
closed = 1;
nodes = (
(160,-186,c),
(185,-142,o),
(235,-55,o),
(260,-13,c),
(212,15,o),
(126,65,o),
(87,87,c),
(62,45,o),
(12,-42,o),
(-13,-86,c),
(30,-111,o),
(117,-161,o)
);
},
{
closed = 1;
nodes = (
(61,-383,c),
(83,-344,o),
(127,-268,o),
(149,-230,c),
(107,-206,o),
(31,-162,o),
(-4,-142,c),
(-26,-179,o),
(-70,-256,o),
(-92,-294,c),
(-54,-316,o),
(22,-361,o)
);
}
);
}
);
unicode = 57344;
},
{
glyphname = "hamza-arab";
layers = (
{
anchors = (
{
name = "top-arab";
pos = (560,752);
},
{
name = "bottom-arab";
pos = (0,0);
}
);
layerId = m004;
shapes = (
{
closed = 1;
nodes = (
(215,42,l),
(235,-11,l),
(909,248,l),
(889,300,l),
(562,175,l),
(405,173,o),
(311,304,o),
(311,438,cs),
(311,570,o),
(406,715,o),
(559,716,cs),
(667,717,o),
(739,671,o),
(776,641,c),
(790,702,l),
(761,723,o),
(681,772,o),
(560,772,cs),
(372,772,o),
(255,599,o),
(255,438,cs),
(255,304,o),
(334,175,o),
(467,138,c)
);
}
);
width = 1063;
},
{
anchors = (
{
name = "top-arab";
pos = (567,984);
},
{
name = "bottom-arab";
pos = (500,0);
}
);
associatedMasterId = m004;
attr = {
coordinates = (
800,
1
);
};
layerId = m005;
name = ExtraBold;
shapes = (
{
closed = 1;
nodes = (
(121,247,l),
(224,-22,l),
(978,271,l),
(875,539,l),
(599,432,l),
(491,442,o),
(460,509,o),
(460,563,cs),
(460,618,o),
(488,680,o),
(551,697,cs),
(614,715,o),
(680,681,o),
(738,634,c),
(846,898,l),
(811,924,o),
(713,984,o),
(567,984,cs),
(324,984,o),
(173,765,o),
(173,563,cs),
(173,468,o),
(207,370,o),
(280,307,c)
);
}
);
width = 1097;
},
{
anchors = (
{
name = "top-arab";
pos = (571,1117);
},
{
name = "bottom-arab";
pos = (786,0);
}
);
associatedMasterId = m004;
attr = {
coordinates = (
1000,
1
);
};
layerId = m006;
name = ExtraBlack;
shapes = (
{
closed = 1;
nodes = (
(67,364,l),
(217,-28,l),
(1018,284,l),
(867,675,l),
(620,579,l),
(540,576,o),
(526,616,o),
(526,635,cs),
(526,655,o),
(527,673,o),
(546,687,cs),
(583,714,o),
(646,697,o),
(717,660,c),
(879,1010,l),
(840,1038,o),
(731,1106,o),
(572,1106,cs),
(296,1106,o),
(127,861,o),
(127,635,cs),
(127,563,o),
(135,481,o),
(172,404,c)
);
}
);
width = 1116;
}
);
unicode = (1569,65152);
},
{
glyphname = uni0627_alt.short;
layers = (
{
anchors = (
{
name = "top-arab";
pos = (270,1283);
},
{
name = "bottom-arab";
pos = (270,0);
}
);
layerId = m004;
shapes = (
{
closed = 1;
nodes = (
(241,1283,l),
(241,0,l),
(300,0,l),
(299,1283,l)
);
}
);
width = 541;
},
{
anchors = (
{
name = "top-arab";
pos = (315,1364);
},
{
name = "bottom-arab";
pos = (315,0);
}
);
associatedMasterId = m004;
attr = {
coordinates = (
800,
1
);
};
layerId = m005;
name = ExtraBold;
shapes = (
{
closed = 1;
nodes = (
(156,1364,l),
(156,0,l),
(475,0,l),
(474,1364,l)
);
}
);
width = 631;
},
{
anchors = (
{
name = "top-arab";
pos = (352,1343);
},
{
name = "bottom-arab";
pos = (352,0);
}
);
associatedMasterId = m004;
attr = {
coordinates = (
1000,
1
);
};
layerId = m006;
name = ExtraBlack;
shapes = (
{
closed = 1;
nodes = (
(119,1343,l),
(119,0,l),
(586,0,l),
(586,1343,l)
);
}
);
width = 705;
}
);
},
{
glyphname = "alef-arab.fina.short";
layers = (
{
anchors = (
{
name = "top-arab";
pos = (270,1283);
},
{
name = "bottom-arab";
pos = (270,0);
}
);
layerId = m004;
shapes = (
{
closed = 1;
nodes = (
(642,0,l),
(642,60,l),
(568,60,l),
(419,60,o),
(300,180,o),
(300,329,cs),
(299,1283,l),
(241,1283,l),
(241,326,l),
(241,146,o),
(385,0,o),
(568,0,cs)
);
}
);
width = 642;
},
{
anchors = (
{
name = "top-arab";
pos = (315,1364);
},
{
name = "bottom-arab";
pos = (315,0);
}
);
associatedMasterId = m004;
attr = {
coordinates = (
800,
1
);
};
layerId = m005;
name = ExtraBold;
shapes = (
{
closed = 1;
nodes = (
(663,0,l),
(663,340,l),
(586,340,l),
(524,340,o),
(475,390,o),
(475,451,cs),
(474,1364,l),
(156,1364,l),
(156,409,l),
(156,192,o),
(316,0,o),
(586,0,cs)
);
}
);
width = 663;
},
{
anchors = (
{
name = "top-arab";
pos = (352,1343);
},
{
name = "bottom-arab";
pos = (352,0);
}
);
associatedMasterId = m004;
attr = {
coordinates = (
1000,
1
);
};
layerId = m006;
name = ExtraBlack;
shapes = (
{
closed = 1;
nodes = (
(687,0,l),
(687,500,l),
(608,500,l),
(596,500,o),
(586,509,o),
(586,521,cs),
(585,1343,l),
(119,1343,l),
(119,457,l),
(119,218,o),
(288,0,o),
(608,0,cs)
);
}
);
width = 686;
}
);
},
{
glyphname = "alef-arab";
layers = (
{
anchors = (
{
name = "top-arab";
pos = (270,1433);
},
{
name = "bottom-arab";
pos = (270,0);
}
);
layerId = m004;
shapes = (
{
closed = 1;
nodes = (
(241,1433,l),
(242,0,l),
(300,0,l),
(300,1433,l)
);
}
);
width = 541;
},
{
anchors = (
{
name = "top-arab";
pos = (315,1524);
},
{
name = "bottom-arab";
pos = (315,0);
}
);
associatedMasterId = m004;
attr = {
coordinates = (
800,
1
);
};
layerId = m005;
name = ExtraBold;
shapes = (
{
closed = 1;
nodes = (
(156,1524,l),
(156,0,l),
(475,0,l),
(474,1524,l)
);
}
);
width = 631;
},
{
anchors = (
{
name = "top-arab";
pos = (352,1547);
},
{
name = "bottom-arab";
pos = (352,0);
}
);
associatedMasterId = m004;
attr = {
coordinates = (
1000,
1
);
};
layerId = m006;
name = ExtraBlack;
shapes = (
{
closed = 1;
nodes = (
(119,1547,l),
(119,0,l),
(586,0,l),
(586,1547,l)
);
}
);
width = 705;
}
);
unicode = (1575,65165);
},
{
glyphname = "alef-arab.fina";
layers = (
{
anchors = (
{
name = "top-arab";
pos = (270,1433);
},
{
name = "bottom-arab";
pos = (270,0);
}
);
layerId = m004;
shapes = (
{
closed = 1;
nodes = (
(642,0,l),
(642,60,l),
(568,60,l),
(419,60,o),
(300,180,o),
(300,329,cs),
(300,1433,l),
(241,1433,l),
(242,326,l),
(242,146,o),
(385,0,o),
(568,0,cs)
);
}
);
width = 642;
},
{
anchors = (
{
name = "top-arab";
pos = (315,1524);
},
{
name = "bottom-arab";
pos = (315,0);
}
);
associatedMasterId = m004;
attr = {
coordinates = (
800,
1
);
};
layerId = m005;
name = ExtraBold;
shapes = (
{
closed = 1;
nodes = (
(663,0,l),
(663,340,l),
(586,340,l),
(524,340,o),
(475,390,o),
(475,451,cs),
(474,1524,l),
(156,1524,l),
(156,409,l),
(156,192,o),
(316,0,o),
(586,0,cs)
);
}
);
width = 663;
},
{
anchors = (
{
name = "top-arab";
pos = (352,1547);
},
{
name = "bottom-arab";
pos = (352,0);
}
);
associatedMasterId = m004;
attr = {
coordinates = (
1000,
1
);
};
layerId = m006;
name = ExtraBlack;
shapes = (
{
closed = 1;
nodes = (
(687,0,l),
(687,500,l),
(608,500,l),
(596,500,o),
(586,509,o),
(586,521,cs),
(586,1547,l),
(119,1547,l),
(119,457,l),
(119,218,o),
(288,0,o),
(608,0,cs)
);
}
);
width = 686;
}
);
unicode = 65166;
},
{
glyphname = arabictatweelmod;
layers = (
{
anchors = (
{
name = "top-arab";
pos = (200,252);
},
{
name = "bottom-arab";
pos = (200,0);
}
);
layerId = m004;
shapes = (
{
closed = 1;
nodes = (
(0,60,l),
(-80,54,o),
(-80,6,o),
(0,0,c),
(400,0,l),
(400,60,l)
);
}
);
width = 400;
},
{
anchors = (
{
name = "top-arab";
pos = (200,416);
},
{
name = "bottom-arab";
pos = (200,0);
}
);
associatedMasterId = m004;
attr = {
coordinates = (
800,
1
);
};
layerId = m005;
name = ExtraBold;
shapes = (
{
closed = 1;
nodes = (
(0,340,l),
(-86,255,o),
(-86,84,o),
(0,0,c),
(400,0,l),
(400,340,l)
);
}
);
width = 400;
},
{
anchors = (
{
name = "top-arab";
pos = (200,510);
},
{
name = "bottom-arab";
pos = (200,0);
}
);
associatedMasterId = m004;
attr = {
coordinates = (
1000,
1
);
};
layerId = m006;
name = ExtraBlack;
shapes = (
{
closed = 1;
nodes = (
(0,500,l),
(-89,369,o),
(-89,129,o),
(0,0,c),
(400,0,l),
(400,500,l)
);
}
);
width = 400;
}
);
unicode = (1600,57525);
},
{
glyphname = "dotlessbeh-arab.fina";
layers = (
{
anchors = (
{
name = "top-arab";
pos = (928,433);
},
{
name = "bottom-arab";
pos = (928,0);
}
);
layerId = m004;
shapes = (
{
closed = 1;
nodes = (
(1586,632,l),
(1586,329,l),
(1586,180,o),
(1466,60,o),
(1317,60,cs),
(509,60,l),
(354.792,60,o),
(231.014,186.912,o),
(231.014,350.583,cs),
(231.014,420.808,o),
(268.334,534.906,o),
(292,624,c),
(234,642,l),
(205.539,531.504,o),
(170.754,423.001,o),
(170.754,345.919,cs),
(170.754,146.839,o),
(326.833,0,o),
(509,0,cs),
(1317,0,l),
(1454,0,o),
(1569,84,o),
(1615,203,c),
(1662,84,o),
(1776,0,o),
(1913,0,cs),
(1986,0,l),
(1986,60,l),
(1913,60,l),
(1765,60,o),
(1645,180,o),
(1645,329,cs),
(1645,632,l)
);
}
);
width = 1986;
},
{
anchors = (
{
name = "top-arab";
pos = (948,616);
},
{
name = "bottom-arab";
pos = (948,0);
}
);
associatedMasterId = m004;
attr = {
coordinates = (
800,
1
);
};
layerId = m005;
name = ExtraBold;
shapes = (
{
closed = 1;
nodes = (
(1417,816,l),
(1417,451,l),
(1417,390,o),
(1367,340,o),
(1306,340,cs),
(583,340,l),
(483.166,340,o),
(444.314,410.856,o),
(444.314,490.159,cs),
(444.314,514.915,o),
(448.101,540.495,o),
(517,773,c),
(198,861,l),
(166.803,732.929,o),
(123.265,589.33,o),
(123.265,479.882,cs),
(123.265,205.309,o),
(316.05,0,o),
(578,0,cs),
(1306,0,l),
(1428,0,o),
(1511,52,o),
(1577,134,c),
(1642,52,o),
(1725,0,o),
(1847,0,cs),
(1922,0,l),
(1922,340,l),
(1847,340,l),
(1786,340,o),
(1736,390,o),
(1736,451,cs),
(1735,816,l)
);
}
);
width = 1922;
},
{
anchors = (
{
name = "top-arab";
pos = (959,721);
},
{
name = "bottom-arab";
pos = (959,0);
}
);
associatedMasterId = m004;
attr = {
coordinates = (
1000,
1
);
};
layerId = m006;
name = ExtraBlack;
shapes = (
{
closed = 1;
nodes = (
(1320,921,l),
(1321,521,l),
(1321,509,o),
(1310,500,o),
(1300,500,cs),
(626,500,l),
(571.354,500,o),
(555.637,525.676,o),
(555.637,557.154,cs),
(555.637,585.584,o),
(568.458,618.747,o),
(646,857,c),
(177,987,l),
(133.566,805.433,o),
(95.107,677.332,o),
(95.107,556.529,cs),
(95.107,238.833,o),
(309.653,0,o),
(618,0,cs),
(1300,0,l),
(1414,0,o),
(1478,33,o),
(1555,95,c),
(1631,33,o),
(1696,0,o),
(1810,0,cs),
(1885,0,l),
(1885,500,l),
(1810,500,l),
(1799,500,o),
(1788,509,o),
(1788,521,cs),
(1787,921,l)
);
}
);
width = 1885;
}
);
},
{
glyphname = "uighurkazakhkirghizalefmaksura-arab.init";
layers = (
{
anchors = (
{
name = "top-arab";
pos = (296,632);
},
{
name = "bottom-arab";
pos = (198,0);
}
);
layerId = m004;
shapes = (
{
closed = 1;
nodes = (
(0,60,l),
(-80,54,o),
(-80,6,o),
(0,0,c),
(198,0,l),
(379,0,o),
(525,146,o),
(525,326,cs),
(525,632,l),
(467,632,l),
(467,329,l),
(467,180,o),
(347,60,o),
(198,60,cs)
);
}
);
width = 696;
},
{
anchors = (
{
name = "top-arab";
pos = (483,816);
},
{
name = "bottom-arab";
pos = (215,0);
}
);
associatedMasterId = m004;
attr = {
coordinates = (
800,
1
);
};
layerId = m005;
name = ExtraBold;
shapes = (
{
closed = 1;
nodes = (
(0,340,l),
(-86,255,o),
(-86,84,o),
(0,0,c),
(215,0,l),
(452,0,o),
(645,182,o),
(645,409,cs),
(645,816,l),
(326,816,l),
(326,451,l),
(326,390,o),
(276,340,o),
(215,340,cs)
);
}
);
width = 766;
},
{
anchors = (
{
name = "top-arab";
pos = (560,921);
},
{
name = "bottom-arab";
pos = (195,0);
}
);
associatedMasterId = m004;
attr = {
coordinates = (
1000,
1
);
};
layerId = m006;
name = ExtraBlack;
shapes = (
{
closed = 1;
nodes = (
(0,500,l),
(-89,369,o),
(-89,129,o),
(0,0,c),
(194,0,l),
(464,0,o),
(683,203,o),
(683,457,cs),
(683,922,l),
(216,922,l),
(216,521,l),
(216,509,o),
(205,500,o),
(194,500,cs)
);
}
);
width = 775;
}
);
unicode = 64488;
},
{
glyphname = "uighurkazakhkirghizalefmaksura-arab.medi";
layers = (
{
anchors = (
{
name = "top-arab";
pos = (296,632);
},
{
name = "bottom-arab";
pos = (198,0);
}
);
layerId = m004;
shapes = (
{
closed = 1;
nodes = (
(0,60,l),
(-80,54,o),
(-80,6,o),
(0,0,c),
(198,0,l),
(335,0,o),
(450,84,o),
(496,203,c),
(542,84,o),
(657,0,o),
(794,0,cs),
(866,0,l),
(866,60,l),
(794,60,l),
(645,60,o),
(525,180,o),
(525,329,cs),
(525,632,l),
(467,632,l),
(467,329,l),
(467,180,o),
(347,60,o),
(198,60,cs)
);
}
);
width = 866;
},
{
anchors = (
{
name = "top-arab";
pos = (483,816);
},
{
name = "bottom-arab";
pos = (215,0);
}
);
associatedMasterId = m004;
attr = {
coordinates = (
800,
1
);
};
layerId = m005;
name = ExtraBold;
shapes = (
{
closed = 1;
nodes = (
(0,340,l),
(-86,255,o),
(-86,84,o),
(0,0,c),
(214,0,l),
(337,0,o),
(419,52,o),
(485,134,c),
(550,52,o),
(633,0,o),
(755,0,cs),
(830,0,l),
(830,340,l),
(755,340,l),
(695,340,o),
(644,390,o),
(644,451,cs),
(644,816,l),
(325,816,l),
(326,451,l),
(326,390,o),
(275,340,o),
(214,340,cs)
);
}
);
width = 830;
},
{
anchors = (
{
name = "top-arab";
pos = (560,921);
},
{
name = "bottom-arab";
pos = (195,0);
}
);
associatedMasterId = m004;
attr = {
coordinates = (
1000,
1
);
};
layerId = m006;
name = ExtraBlack;
shapes = (
{
closed = 1;
nodes = (
(0,500,l),
(-89,369,o),
(-89,129,o),
(0,0,c),
(194,0,l),
(308,0,o),
(373,33,o),
(449,95,c),
(526,33,o),
(590,0,o),
(704,0,cs),
(780,0,l),
(780,500,l),
(704,500,l),
(693,500,o),
(683,509,o),
(683,521,cs),
(682,921,l),
(215,921,l),
(216,521,l),
(216,509,o),
(205,500,o),
(194,500,cs)
);
}
);
width = 780;
}
);
unicode = 64489;
},
{
glyphname = uniE002;
layers = (
{
anchors = (
{
name = "top-arab";
pos = (296,632);
},
{
name = "bottom-arab";
pos = (198,0);
}
);
layerId = m004;
shapes = (
{
closed = 1;
nodes = (
(0,60,l),
(-80,54,o),
(-80,6,o),
(0,0,c),
(168,0,l),
(349,0,o),
(495,146,o),
(495,326,cs),
(495,632,l),
(437,632,l),
(437,329,l),
(437,180,o),
(317,60,o),
(168,60,cs)
);
}
);
width = 666;
},
{
anchors = (
{
name = "top-arab";
pos = (483,816);
},
{
name = "bottom-arab";
pos = (215,0);
}
);
associatedMasterId = m004;
attr = {
coordinates = (
800,
1
);
};
layerId = m005;
name = ExtraBold;
shapes = (
{
closed = 1;
nodes = (
(0,340,l),
(-85,255,o),
(-85,84,o),
(0,0,c),
(185,0,l),
(423,0,o),
(615,182,o),
(615,409,cs),
(615,816,l),
(296,816,l),
(296,451,l),
(296,390,o),
(246,340,o),
(185,340,cs)
);
}
);
width = 736;
},
{
anchors = (
{
name = "top-arab";
pos = (560,921);
},
{
name = "bottom-arab";
pos = (195,0);
}
);
associatedMasterId = m004;
attr = {
coordinates = (
1000,
1
);
};
layerId = m006;
name = ExtraBlack;
shapes = (
{
closed = 1;
nodes = (
(0,500,l),
(-89,369,o),
(-89,129,o),
(0,0,c),
(194,0,l),
(464,0,o),
(683,203,o),
(683,457,cs),
(683,922,l),
(216,922,l),
(216,521,l),
(216,509,o),
(205,500,o),
(194,500,cs)
);
}
);
width = 775;
}
);
unicode = 57346;
},
{
glyphname = uniE003;
layers = (
{
anchors = (
{
name = "top-arab";
pos = (296,632);
},
{
name = "bottom-arab";
pos = (198,0);
}
);
layerId = m004;
shapes = (
{
closed = 1;
nodes = (
(0,60,l),
(-80,54,o),
(-80,6,o),
(0,0,c),
(168,0,l),
(305,0,o),
(420,84,o),
(466,203,c),
(512,84,o),
(627,0,o),
(764,0,cs),
(836,0,l),
(836,60,l),
(764,60,l),
(615,60,o),
(495,180,o),
(495,329,cs),
(495,632,l),
(437,632,l),
(437,329,l),
(437,180,o),
(317,60,o),
(168,60,cs)
);
}
);
width = 836;
},
{
anchors = (
{
name = "top-arab";
pos = (483,816);
},
{
name = "bottom-arab";
pos = (215,0);
}
);
associatedMasterId = m004;
attr = {
coordinates = (
800,
1
);
};
layerId = m005;
name = ExtraBold;
shapes = (
{
closed = 1;
nodes = (
(0,340,l),
(-85,255,o),
(-85,84,o),
(0,0,c),
(185,0,l),
(307,0,o),
(390,52,o),
(455,134,c),
(521,52,o),
(604,0,o),
(726,0,cs),
(800,0,l),
(800,340,l),
(726,340,l),
(665,340,o),
(614,390,o),
(614,451,cs),
(614,816,l),
(296,816,l),
(296,451,l),
(296,390,o),
(246,340,o),
(185,340,cs)
);
}
);
width = 800;
},
{
anchors = (
{
name = "top-arab";
pos = (560,921);
},
{
name = "bottom-arab";
pos = (195,0);
}
);
associatedMasterId = m004;
attr = {
coordinates = (
1000,
1
);
};
layerId = m006;
name = ExtraBlack;
shapes = (
{
closed = 1;
nodes = (
(0,500,l),
(-89,369,o),
(-89,129,o),
(0,0,c),
(194,0,l),
(308,0,o),
(373,33,o),
(449,95,c),
(526,33,o),
(590,0,o),
(704,0,cs),
(779,0,l),
(779,500,l),
(704,500,l),
(693,500,o),
(683,509,o),
(683,521,cs),
(682,921,l),
(215,921,l),
(216,521,l),
(216,509,o),
(205,500,o),
(194,500,cs)
);
}
);
width = 780;
}
);
unicode = 57347;
},
{
glyphname = uniE006;
layers = (
{
layerId = m004;
shapes = (
{
closed = 1;
nodes = (
(0,60,l),
(-80,54,o),
(-80,6,o),
(0,0,c),
(250,0,l),
(431,0,o),
(577,146,o),
(577,326,cs),
(577,632,l),
(519,632,l),
(519,329,l),
(519,180,o),
(399,60,o),
(250,60,cs)
);
}
);
width = 748;
},
{
associatedMasterId = m004;
attr = {
coordinates = (
800,
1
);
};
layerId = m005;
name = ExtraBold;
shapes = (
{
closed = 1;
nodes = (
(0,340,l),
(-86,255,o),
(-86,84,o),
(0,0,c),
(308,0,l),
(546,0,o),
(738,182,o),
(738,409,cs),
(738,816,l),
(419,816,l),
(419,451,l),
(419,390,o),
(369,340,o),
(308,340,cs)
);
}
);
width = 858;
},
{
associatedMasterId = m004;
attr = {
coordinates = (
1000,
1
);
};
layerId = m006;
name = ExtraBlack;
shapes = (
{
closed = 1;
nodes = (
(0,500,l),
(-89,369,o),
(-89,129,o),
(0,0,c),
(321,0,l),
(591,0,o),
(809,203,o),
(809,457,cs),
(809,922,l),
(343,922,l),
(343,521,l),
(343,509,o),
(332,500,o),
(321,500,cs)
);
}
);
width = 901;
}
);
unicode = 57350;
},
{
glyphname = uniE007;
layers = (
{
layerId = m004;
shapes = (
{
closed = 1;
nodes = (
(0,60,l),
(-80,54,o),
(-80,6,o),
(0,0,c),
(300,0,l),
(437,0,o),
(552,84,o),
(598,203,c),
(645,84,o),
(759,0,o),
(896,0,cs),
(969,0,l),
(969,60,l),
(896,60,l),
(748,60,o),
(628,180,o),
(628,329,cs),
(627,632,l),
(569,632,l),
(569,329,l),
(569,180,o),
(449,60,o),
(300,60,cs)
);
}
);
width = 969;
},
{
associatedMasterId = m004;
attr = {
coordinates = (
800,
1
);
};
layerId = m005;
name = ExtraBold;
shapes = (
{
closed = 1;
nodes = (
(0,340,l),
(-86,255,o),
(-86,84,o),
(0,0,c),
(300,0,l),
(422,0,o),
(505,52,o),
(571,134,c),
(636,52,o),
(719,0,o),
(841,0,cs),
(915,0,l),
(915,340,l),
(841,340,l),
(780,340,o),
(730,390,o),
(730,451,cs),
(730,816,l),
(412,816,l),
(411,451,l),
(411,390,o),
(361,340,o),
(300,340,cs)
);
}
);
width = 915;
},
{
associatedMasterId = m004;
attr = {
coordinates = (
1000,
1
);
};
layerId = m006;
name = ExtraBlack;
shapes = (
{
closed = 1;
nodes = (
(0,500,l),
(-89,369,o),
(-89,129,o),
(0,0,c),
(330,0,l),
(444,0,o),
(508,33,o),
(585,95,c),
(661,33,o),
(726,0,o),
(840,0,cs),
(915,0,l),
(915,500,l),
(840,500,l),
(829,500,o),
(818,509,o),
(818,521,cs),
(819,921,l),
(352,921,l),
(351,521,l),
(351,509,o),
(341,500,o),
(330,500,cs)
);
}
);
width = 915;
}
);
unicode = 57351;
},
{
glyphname = "hah-arab";
layers = (
{
anchors = (
{
name = "top-arab";
pos = (694,957);
},
{
name = "bottom-arab";
pos = (800,-721);
}
);
layerId = m004;
shapes = (
{
closed = 1;
nodes = (
(1289,514,c),
(460,157,l),
(304,88,o),
(161,-81,o),
(161,-267,cs),
(161,-510,o),
(380,-720,o),
(603,-721,cs),
(1237,-721,l),
(1237,-661,l),
(603,-661,l),
(402,-661,o),
(218,-465,o),
(219,-267,cs),
(221,-112,o),
(345,43,o),
(481,104,cs),
(1356,483,l),
(1359,538,l),
(1329,538,o),
(899,799,o),
(694,916,cs),
(540,1005,o),
(352,932,o),
(280,731,c),
(271,709,l),
(326,687,l),
(335,710,l),
(395,882,o),
(548,934,o),
(668,865,cs),
(830,771,o),
(1101,569,o)
);
}
);
width = 1486;
},
{
anchors = (
{
name = "top-arab";
pos = (747,1110);
},
{
name = "bottom-arab";
pos = (748,-684);
}
);
associatedMasterId = m004;
attr = {
coordinates = (
800,
1
);
};
layerId = m005;
name = ExtraBold;
shapes = (
{
closed = 1;
nodes = (
(1119,593,c),
(576,443,l),
(237,341,o),
(94,65,o),
(108,-162,cs),
(127,-470,o),
(332,-684,o),
(713,-684,cs),
(1280,-684,l),
(1280,-365,l),
(713,-365,l),
(554,-365,o),
(458,-277,o),
(441,-198,cs),
(416,-80,o),
(450,47,o),
(690,145,cs),
(1380,408,l),
(1393,755,l),
(1393,755,o),
(984,1007,o),
(767,1096,cs),
(545,1189,o),
(307,1089,o),
(204,857,cs),
(171,783,l),
(462,652,l),
(495,726,l),
(519,778,o),
(579,830,o),
(645,803,cs),
(712,775,o),
(885,667,o)
);
}
);
width = 1475;
},
{
anchors = (
{
name = "top-arab";
pos = (777,1197);
},
{
name = "bottom-arab";
pos = (718,-663);
}
);
associatedMasterId = m004;
attr = {
coordinates = (
1000,
1
);
};
layerId = m006;
name = ExtraBlack;
shapes = (
{
closed = 1;
nodes = (
(1021,639,c),
(643,566,l),
(199,486,o),
(55,149,o),
(78,-103,cs),
(108,-447,o),
(305,-663,o),
(776,-663,cs),
(1305,-663,l),
(1305,-196,l),
(776,-196,l),
(641,-196,o),
(579,-184,o),
(568,-159,cs),
(527,-62,o),
(510,59,o),
(810,169,cs),
(1393,366,l),
(1412,879,l),
(1409,879,o),
(1033,1125,o),
(809,1199,cs),
(548,1290,o),
(281,1179,o),
(161,928,cs),
(114,825,l),
(540,632,l),
(587,735,l),
(593,748,o),
(603,770,o),
(633,767,cs),
(669,763,o),
(762,723,o)
);
}
);
width = 1469;
}
);
unicode = (1581,65185);
},
{
glyphname = "hah-arab.fina";
layers = (
{
anchors = (
{
name = "top-arab";
pos = (694,957);
},
{
name = "bottom-arab";
pos = (800,-721);
}
);
layerId = m004;
shapes = (
{
closed = 1;
nodes = (
(1137,388,l),
(1356,483,l),
(1359,538,l),
(1329,538,o),
(899,799,o),
(694,916,cs),
(540,1005,o),
(352,932,o),
(280,731,c),
(271,709,l),
(326,687,l),
(335,710,l),
(395,882,o),
(548,934,o),
(668,865,cs),
(830,771,o),
(1101,569,o),
(1289,514,c),
(460,157,l),
(304,88,o),
(161,-81,o),
(161,-267,cs),
(161,-510,o),
(380,-720,o),
(603,-721,cs),
(1237,-721,l),
(1237,-661,l),
(603,-661,l),
(402,-661,o),
(218,-465,o),
(219,-267,cs),
(221,-112,o),
(345,43,o),
(481,104,cs),
(1086,365,l),
(1119,191,l),
(1150,33,o),
(1306,0,o),
(1383,0,cs),
(1518,0,l),
(1518,60,l),
(1383,60,l),
(1320,60,o),
(1198,79,o),
(1172,210,cs)
);
}
);
width = 1518;
},
{
anchors = (
{
name = "top-arab";
pos = (747,1110);
},
{
name = "bottom-arab";
pos = (748,-684);
}
);
associatedMasterId = m004;
attr = {
coordinates = (
800,
1
);
};
layerId = m005;
name = ExtraBold;
shapes = (
{
closed = 1;
nodes = (
(1281,364,l),
(1380,408,l),
(1393,755,l),
(1393,755,o),
(984,1007,o),
(767,1096,cs),
(545,1189,o),
(307,1089,o),
(204,857,cs),
(171,783,l),
(462,652,l),
(495,726,l),
(517,778,o),
(579,830,o),
(645,803,cs),
(712,775,o),
(885,667,o),
(1119,593,c),
(576,443,l),
(237,341,o),
(94,65,o),
(108,-162,cs),
(127,-470,o),
(332,-684,o),
(713,-684,cs),
(1280,-684,l),
(1280,-365,l),
(713,-365,l),
(554,-365,o),
(458,-277,o),
(441,-198,cs),
(416,-80,o),
(450,47,o),
(690,145,cs),
(1028,276,l),
(1057,159,l),
(1085,40,o),
(1204,0,o),
(1344,0,cs),
(1520,0,l),
(1520,340,l),
(1354,340,l),
(1330,340,o),
(1289,342,o),
(1286,353,c)
);
}
);
width = 1520;
},
{
anchors = (
{
name = "top-arab";
pos = (777,1197);
},
{
name = "bottom-arab";
pos = (718,-663);
}
);
associatedMasterId = m004;
attr = {
coordinates = (
1000,
1
);
};
layerId = m006;
name = ExtraBlack;
shapes = (
{
closed = 1;
nodes = (
(1363,351,l),
(1393,366,l),
(1412,879,l),
(1409,879,o),
(1033,1125,o),
(809,1199,cs),
(548,1290,o),
(281,1179,o),
(161,928,cs),
(114,825,l),
(540,632,l),
(587,735,l),
(593,748,o),
(603,770,o),
(633,767,cs),
(669,763,o),
(762,723,o),
(1021,639,c),
(643,566,l),
(199,486,o),
(55,149,o),
(78,-103,cs),
(108,-447,o),
(305,-663,o),
(776,-663,cs),
(1305,-663,l),
(1305,-196,l),
(776,-196,l),
(641,-196,o),
(578,-183,o),
(568,-159,cs),
(527,-62,o),
(510,79,o),
(810,169,cs),
(995,224,l),
(1021,140,l),
(1048,43,o),
(1146,0,o),
(1323,0,cs),
(1521,0,l),
(1521,500,l),
(1338,500,l),
(1336,500,o),
(1341,493,o),
(1350,434,cs)
);
}
);
width = 1521;
}
);
unicode = 65186;
},
{
glyphname = "hah-arab.init";
layers = (
{
anchors = (
{
name = "top-arab";
pos = (649,833);
},
{
name = "bottom-arab";
pos = (649,40);
}
);
layerId = m004;
shapes = (
{
closed = 1;
nodes = (
(0,60,l),
(-80,54,o),
(-80,6,o),
(0,0,c),
(338,0,l),
(736,0,o),
(1282,389,o),
(1318,394,c),
(1315,446,l),
(1275,446,o),
(854,676,o),
(649,793,cs),
(494,881,o),
(307,809,o),
(234,608,cs),
(226,586,l),
(281,565,l),
(289,587,l),
(350,759,o),
(502,811,o),
(622,742,cs),
(789,646,o),
(1128,470,o),
(1253,416,c),
(1110,344,o),
(642,60,o),
(338,60,cs)
);
}
);
width = 1427;
},
{
anchors = (
{
name = "top-arab";
pos = (682,1020);
},
{
name = "bottom-arab";
pos = (682,20);
}
);
associatedMasterId = m004;
attr = {
coordinates = (
800,
1
);
};
layerId = m005;
name = ExtraBold;
shapes = (
{
closed = 1;
nodes = (
(0,340,l),
(-85,255,o),
(-85,84,o),
(0,0,c),
(243,0,l),
(867,0,o),
(1292,388,o),
(1313,403,c),
(1306,675,l),
(1306,675,o),
(900,888,o),
(682,978,cs),
(459,1070,o),
(222,971,o),
(119,738,cs),
(82,656,l),
(372,525,l),
(411,608,l),
(445,684,o),
(499,710,o),
(560,684,cs),
(659,642,o),
(883,554,o),
(1019,495,c),
(869,449,o),
(514,340,o),
(243,340,cs)
);
}
);
width = 1395;
},
{
anchors = (
{
name = "top-arab";
pos = (701,1127);
},
{
name = "bottom-arab";
pos = (701,9);
}
);
associatedMasterId = m004;
attr = {
coordinates = (
1000,
1
);
};
layerId = m006;
name = ExtraBlack;
shapes = (
{
closed = 1;
nodes = (
(0,500,l),
(-89,369,o),
(-89,129,o),
(0,0,c),
(245,0,l),
(942,0,o),
(1298,388,o),
(1309,408,c),
(1301,805,l),
(1293,805,o),
(926,1010,o),
(701,1084,c),
(440,1178,o),
(174,1063,o),
(53,812,cs),
(-1,696,l),
(425,503,l),
(481,620,l),
(490,640,o),
(502,655,o),
(524,651,cs),
(585,640,o),
(744,602,o),
(886,540,c),
(731,509,o),
(441,500,o),
(245,500,cs)
);
}
);
width = 1377;
}
);
unicode = 65187;
},
{
glyphname = "hah-arab.medi";
layers = (
{
anchors = (
{
name = "top-arab";
pos = (649,833);
},
{
name = "bottom-arab";
pos = (0,0);
}
);
layerId = m004;
shapes = (
{
closed = 1;
nodes = (
(1016,238,c),
(1057,182,l),
(1150,54,o),
(1264,0,o),
(1391,0,cs),
(1509,0,l),
(1509,60,l),
(1391,60,l),
(1278,60,o),
(1178,107,o),
(1094,225,cs),
(1065,266,l),
(1038,258,o),
(1027,250,o)
);
},
{
closed = 1;
nodes = (
(0,60,l),
(-80,54,o),
(-80,6,o),
(0,0,c),
(338,0,l),
(736,0,o),
(1282,389,o),
(1318,394,c),
(1315,446,l),
(1275,446,o),
(854,676,o),
(649,793,cs),
(494,881,o),
(307,809,o),
(234,608,cs),
(226,586,l),
(281,565,l),
(289,587,l),
(350,759,o),
(502,811,o),
(622,742,cs),
(789,646,o),
(1128,470,o),
(1253,416,c),
(1110,344,o),
(642,60,o),
(338,60,cs)
);
}
);
width = 1509;
},
{
anchors = (
{
name = "top-arab";
pos = (682,1020);
},
{
name = "bottom-arab";
pos = (682,0);
}
);
associatedMasterId = m004;
attr = {
coordinates = (
800,
1
);
};
layerId = m005;
name = ExtraBold;
shapes = (
{
closed = 1;
nodes = (
(1023,205,c),
(1053,123,l),
(1084,46,o),
(1181,0,o),
(1283,0,cs),
(1453,0,l),
(1453,340,l),
(1283,340,l),
(1270,340,o),
(1256,340,o),
(1243,343,c),
(1235,348,l),
(1158,343,o),
(1063,264,o)
);
},
{
closed = 1;
nodes = (
(0,340,l),
(-85,255,o),
(-85,84,o),
(0,0,c),
(243,0,l),
(867,0,o),
(1292,388,o),
(1313,403,c),
(1306,675,l),
(1306,675,o),
(900,888,o),
(682,978,cs),
(459,1070,o),
(222,971,o),
(119,738,cs),
(82,656,l),
(372,525,l),
(411,608,l),
(445,684,o),
(499,710,o),
(560,684,cs),
(659,642,o),
(883,554,o),
(1019,495,c),
(869,449,o),
(514,340,o),
(243,340,cs)
);
}
);
width = 1453;
},
{
anchors = (
{
name = "top-arab";
pos = (701,1127);
},
{
name = "bottom-arab";
pos = (1072,0);
}
);
associatedMasterId = m004;
attr = {
coordinates = (
1000,
1
);
};
layerId = m006;
name = ExtraBlack;
shapes = (
{
closed = 1;
nodes = (
(1023,211,c),
(959,169,l),
(995,56,o),
(1106,0,o),
(1221,0,cs),
(1420,0,l),
(1420,500,l),
(1221,500,l),
(1236,500,o),
(1249,488,o),
(1256,470,c),
(1206,470,l),
(1227,392,o),
(1092,276,o)
);
},
{
closed = 1;
nodes = (
(0,500,l),
(-89,369,o),
(-89,129,o),
(0,0,c),
(245,0,l),
(942,0,o),
(1298,388,o),
(1309,408,c),
(1301,805,l),
(1293,805,o),
(926,1010,o),
(701,1084,c),
(440,1178,o),
(174,1063,o),
(53,812,cs),
(-1,696,l),
(425,503,l),
(481,620,l),
(490,640,o),
(502,655,o),
(524,651,cs),
(585,640,o),
(744,602,o),
(886,540,c),
(731,509,o),
(441,500,o),
(245,500,cs)
);
}
);
width = 1421;
}
);
unicode = 65188;
},
{
glyphname = "dal-arab";
layers = (
{
anchors = (
{
name = "top-arab";
pos = (480,844);
},
{
name = "bottom-arab";
pos = (491,0);
}
);
layerId = m004;
shapes = (
{
closed = 1;
nodes = (
(523,-5,cs),
(737,-7,o),
(995,174,o),
(858,355,c),
(480,898,l),
(433,863,l),
(811,320,l),
(913,187,o),
(701,54,o),
(523,54,cs),
(380,54,o),
(225,59,o),
(109,91,c),
(93,35,l),
(206,1,o),
(361,-4,o)
);
}
);
width = 1048;
},
{
anchors = (
{
name = "top-arab";
pos = (492,1075);
},
{
name = "bottom-arab";
pos = (480,0);
}
);
associatedMasterId = m004;
attr = {
coordinates = (
800,
1
);
};
layerId = m005;
name = ExtraBold;
shapes = (
{
closed = 1;
nodes = (
(515,-20,cs),
(936,-20,o),
(1139,388,o),
(947,641,cs),
(571,1134,l),
(319,940,l),
(694,449,l),
(733,398,o),
(685,298,o),
(515,298,cs),
(370,298,o),
(225,298,o),
(86,328,c),
(56,10,l),
(219,-22,o),
(373,-20,o)
);
}
);
width = 1114;
},
{
anchors = (
{
name = "top-arab";
pos = (499,1207);
},
{
name = "bottom-arab";
pos = (474,0);
}
);
associatedMasterId = m004;
attr = {
coordinates = (
1000,
1
);
};
layerId = m006;
name = ExtraBlack;
shapes = (
{
closed = 1;
nodes = (
(511,-29,cs),
(1050,-27,o),
(1222,510,o),
(998,805,cs),
(623,1269,l),
(253,985,l),
(666,473,l),
(670,468,o),
(676,438,o),
(511,438,cs),
(364,438,o),
(225,448,o),
(73,464,c),
(35,-4,l),
(226,-36,o),
(380,-29,o)
);
}
);
width = 1151;
}
);
unicode = (1583,65193);
},
{
glyphname = "dal-arab.fina";
layers = (
{
anchors = (
{
name = "top-arab";
pos = (547,841);
},
{
name = "bottom-arab";
pos = (511,0);
}
);
layerId = m004;
shapes = (
{
closed = 1;
nodes = (
(801,150,o),
(707,53,o),
(525,53,cs),
(378,53,o),
(216,62,o),
(107,92,c),
(93,35,l),
(190,6,o),
(346,-4,o),
(518,-5,cs),
(690,-6,o),
(847,107,o),
(882,163,c),
(889,151,l),
(941,58,o),
(1039,0,o),
(1147,0,cs),
(1215,0,l),
(1215,60,l),
(1147,60,l),
(1058,60,o),
(978,107,o),
(936,185,cs),
(548,897,l),
(496,869,l),
(857,208,l)
);
}
);
width = 1215;
},
{
anchors = (
{
name = "top-arab";
pos = (572,1050);
},
{
name = "bottom-arab";
pos = (490,0);
}
);
associatedMasterId = m004;
attr = {
coordinates = (
800,
1
);
};
layerId = m005;
name = ExtraBold;
shapes = (
{
closed = 1;
nodes = (
(683,334,o),
(595,308,o),
(520,308,cs),
(419,308,o),
(264,308,o),
(87,336,c),
(56,20,l),
(191,-10,o),
(377,-10,o),
(494,-10,cs),
(667,-10,o),
(810,74,o),
(873,144,c),
(874,142,l),
(936,57,o),
(1036,0,o),
(1159,0,cs),
(1230,0,l),
(1230,340,l),
(1159,340,l),
(1118,340,o),
(1091,348,o),
(1072,387,c),
(669,1128,l),
(390,975,l),
(716,377,l)
);
}
);
width = 1230;
},
{
anchors = (
{
name = "top-arab";
pos = (586,1169);
},
{
name = "bottom-arab";
pos = (478,0);
}
);
associatedMasterId = m004;
attr = {
coordinates = (
1000,
1
);
};
layerId = m006;
name = ExtraBlack;
shapes = (
{
closed = 1;
nodes = (
(622,459,o),
(530,454,o),
(517,454,cs),
(443,454,o),
(282,454,o),
(76,476,c),
(35,12,l),
(191,-19,o),
(395,-13,o),
(481,-13,cs),
(653,-12,o),
(789,55,o),
(868,133,c),
(866,137,l),
(932,56,o),
(1034,0,o),
(1166,0,cs),
(1238,0,l),
(1238,500,l),
(1166,500,l),
(1156,500,o),
(1149,503,o),
(1143,513,c),
(738,1260,l),
(329,1035,l),
(636,474,l)
);
}
);
width = 1239;
}
);
unicode = 65194;
},
{
glyphname = "reh-arab";
layers = (
{
anchors = (
{
name = "top-arab";
pos = (521,532);
},
{
name = "bottom-arab";
pos = (247,-547);
}
);
layerId = m004;
shapes = (
{
closed = 1;
nodes = (
(550,632,l),
(492,632,l),
(492,-33,l),
(492,-281,o),
(321,-472,o),
(124,-501,cs),
(-35,-521,l),
(-31,-578,l),
(124,-561,l),
(348,-534,o),
(550,-315,o),
(550,-36,cs)
);
}
);
width = 721;
},
{
anchors = (
{
name = "top-arab";
pos = (580,796);
},
{
name = "bottom-arab";
pos = (251,-530);
}
);
associatedMasterId = m004;
attr = {
coordinates = (
800,
1
);
};
layerId = m005;
name = ExtraBold;
shapes = (
{
closed = 1;
nodes = (
(740,816,l),
(422,816,l),
(421,68,l),
(421,-93,o),
(291,-195,o),
(158,-215,cs),
(-43,-246,l),
(7,-570,l),
(215,-545,l),
(458,-514,o),
(739,-261,o),
(739,85,cs)
);
}
);
width = 858;
},
{
anchors = (
{
name = "top-arab";
pos = (614,947);
},
{
name = "bottom-arab";
pos = (253,-520);
}
);
associatedMasterId = m004;
attr = {
coordinates = (
1000,
1
);
};
layerId = m006;
name = ExtraBlack;
shapes = (
{
closed = 1;
nodes = (
(848,921,l),
(381,921,l),
(380,125,l),
(380,14,o),
(274,-37,o),
(178,-52,cs),
(-48,-88,l),
(29,-565,l),
(267,-536,l),
(521,-503,o),
(847,-230,o),
(847,154,cs)
);
}
);
width = 936;
}
);
unicode = (1585,65197);
},
{
glyphname = "reh-arab.fina";
layers = (
{
anchors = (
{
name = "top-arab";
pos = (521,532);
},
{
name = "bottom-arab";
pos = (247,-547);
}
);
layerId = m004;
shapes = (
{
closed = 1;
nodes = (
(550,632,l),
(492,632,l),
(492,-33,l),
(492,-281,o),
(321,-472,o),
(124,-501,cs),
(-35,-521,l),
(-31,-578,l),
(124,-561,l),
(348,-534,o),
(550,-315,o),
(550,-36,cs),
(550,201,l),
(612,81,o),
(735,0,o),
(878,0,cs),
(937,0,l),
(937,60,l),
(878,60,l),
(702,60,o),
(558,199,o),
(550,374,c)
);
}
);
width = 937;
},
{
anchors = (
{
name = "top-arab";
pos = (580,796);
},
{
name = "bottom-arab";
pos = (251,-530);
}
);
associatedMasterId = m004;
attr = {
coordinates = (
800,
1
);
};
layerId = m005;
name = ExtraBold;
shapes = (
{
closed = 1;
nodes = (
(740,816,l),
(422,816,l),
(421,68,l),
(421,-93,o),
(291,-195,o),
(158,-215,cs),
(-43,-246,l),
(7,-570,l),
(215,-545,l),
(456,-514,o),
(735,-265,o),
(739,78,cs),
(739,79,l),
(791,30,o),
(846,0,o),
(906,0,cs),
(976,0,l),
(976,340,l),
(906,340,l),
(823,340,o),
(742,399,o),
(740,478,c)
);
}
);
width = 976;
},
{
anchors = (
{
name = "top-arab";
pos = (614,947);
},
{
name = "bottom-arab";
pos = (253,-520);
}
);
associatedMasterId = m004;
attr = {
coordinates = (
1000,
1
);
};
layerId = m006;
name = ExtraBlack;
shapes = (
{
closed = 1;
nodes = (
(848,921,l),
(381,921,l),
(380,125,l),
(380,14,o),
(274,-37,o),
(178,-52,cs),
(-48,-88,l),
(29,-565,l),
(267,-536,l),
(518,-503,o),
(840,-256,o),
(847,9,cs),
(847,9,l),
(893,0,o),
(909,0,o),
(922,0,cs),
(998,0,l),
(998,500,l),
(922,500,l),
(892,500,o),
(847,513,o),
(848,538,c)
);
}
);
width = 998;
}
);
unicode = 65198;
},
{
glyphname = "seen-arab";
layers = (
{
anchors = (
{
name = "top-arab";
pos = (1982,632);
},
{
name = "bottom-arab";
pos = (801,-551);
}
);
layerId = m004;
shapes = (
{
closed = 1;
nodes = (
(1335,632,l),
(1394,632,l),
(1394,329,l),
(1394,220,o),
(1538,60,o),
(1643,60,qs),
(1703,60,l),
(1814,60,o),
(1952,218,o),
(1952,329,qs),
(1952,632,l),
(2011,632,l),
(2011,329,l),
(2011,217,o),
(2149,60,o),
(2260,60,qs),
(2290,60,l),
(2401,60,o),
(2539,218,o),
(2539,329,qs),
(2539,632,l),
(2598,632,l),
(2598,327,l),
(2598,250,o),
(2528,99,o),
(2374,0,o),
(2290,0,qs),
(2260,0,l),
(2164,0,o),
(2016,106,o),
(1981,197,q),
(1948,107,o),
(1801,0,o),
(1703,0,qs),
(1643,0,l),
(1566,0,o),
(1431,86,o),
(1393,155,q),
(1393,44,l),
(1394,-138,o),
(1250,-394,o),
(1011,-531,o),
(873,-541,qs),
(698,-551,l),
(479,-561,o),
(261,-395,o),
(157,-133,o),
(157,15,qs),
(157,162,o),
(236,391,o),
(266,468,q),
(323,443,l),
(295,382,o),
(216,155,o),
(216,18,qs),
(216,-178,o),
(425,-510,o),
(698,-491,qs),
(873,-481,l),
(997,-471,o),
(1206,-352,o),
(1333,-129,o),
(1333,47,qs)
);
}
);
width = 2769;
},
{
anchors = (
{
name = "top-arab";
pos = (1970,816);
},
{
name = "bottom-arab";
pos = (852,-539);
}
);
associatedMasterId = m004;
attr = {
coordinates = (
800,
1
);
};
layerId = m005;
name = ExtraBold;
shapes = (
{
closed = 1;
nodes = (
(1215,816,l),
(1534,816,l),
(1533,449,l),
(1534,403,o),
(1589,340,o),
(1635,340,qs),
(1712,340,l),
(1756,340,o),
(1812,404,o),
(1812,451,qs),
(1812,817,l),
(2131,817,l),
(2130,451,l),
(2130,404,o),
(2186,340,o),
(2230,340,qs),
(2278,340,l),
(2323,340,o),
(2379,404,o),
(2379,451,qs),
(2379,816,l),
(2697,816,l),
(2697,430,l),
(2697,312,o),
(2586,115,o),
(2394,0,o),
(2278,0,qs),
(2230,0,l),
(2148,0,o),
(2020,74,o),
(1971,137,q),
(1918,69,o),
(1793,0,o),
(1712,0,qs),
(1635,0,l),
(1599,0,o),
(1546,16,o),
(1527,27,q),
(1526,25,l),
(1510,-100,o),
(1384,-346,o),
(1104,-529,o),
(912,-539,qs),
(774,-548,l),
(560,-558,o),
(270,-366,o),
(110,-65,o),
(110,65,qs),
(111,241,o),
(162,506,o),
(220,668,q),
(512,550,l),
(484,463,o),
(428,235,o),
(428,108,qs),
(430,-34,o),
(573,-218,o),
(774,-208,qs),
(912,-199,l),
(1012,-195,o),
(1136,-113,o),
(1216,17,o),
(1216,116,qs)
);
}
);
width = 2817;
},
{
anchors = (
{
name = "top-arab";
pos = (1963,921);
},
{
name = "bottom-arab";
pos = (881,-532);
}
);
associatedMasterId = m004;
attr = {
coordinates = (
1000,
1
);
};
layerId = m006;
name = ExtraBlack;
shapes = (
{
closed = 1;
nodes = (
(1147,921,l),
(1614,921,l),
(1613,518,l),
(1614,508,o),
(1619,500,o),
(1630,500,qs),
(1717,500,l),
(1724,500,o),
(1732,511,o),
(1732,521,qs),
(1732,923,l),
(2199,923,l),
(2199,521,l),
(2199,511,o),
(2207,500,o),
(2214,500,qs),
(2270,500,l),
(2278,500,o),
(2287,510,o),
(2287,521,qs),
(2287,922,l),
(2754,922,l),
(2754,488,l),
(2754,348,o),
(2619,124,o),
(2405,0,o),
(2270,0,qs),
(2214,0,l),
(2139,0,o),
(2023,55,o),
(1965,103,q),
(1901,47,o),
(1788,0,o),
(1717,0,qs),
(1630,0,l),
(1622,0,o),
(1607,4,o),
(1603,10,qs),
(1603,10,l),
(1577,-78,o),
(1460,-318,o),
(1157,-518,o),
(935,-538,qs),
(817,-546,l),
(606,-556,o),
(276,-399,o),
(83,-56,o),
(83,93,qs),
(85,286,o),
(120,572,o),
(194,781,q),
(621,610,l),
(592,509,o),
(549,280,o),
(550,159,qs),
(552,49,o),
(659,-54,o),
(817,-46,qs),
(935,-38,l),
(1021,-32,o),
(1096,23,o),
(1149,100,o),
(1149,156,qs)
);
}
);
width = 2844;
}
);
unicode = (1587,65201);
},
{
glyphname = "seen-arab.fina";
layers = (
{
anchors = (
{
name = "top-arab";
pos = (1982,632);
},
{
name = "bottom-arab";
pos = (801,-551);
}
);
layerId = m004;
shapes = (
{
closed = 1;
nodes = (
(1394,329,l),
(1394,219,o),
(1545,60,o),
(1643,60,qs),
(1703,60,l),
(1812,60,o),
(1952,215,o),
(1952,329,qs),
(1952,632,l),
(2010,632,l),
(2011,329,l),
(2011,215,o),
(2150,60,o),
(2260,60,qs),
(2290,60,l),
(2400,60,o),
(2539,215,o),
(2539,329,qs),
(2539,632,l),
(2597,632,l),
(2598,329,l),
(2598,217,o),
(2755,60,o),
(2867,60,qs),
(2942,60,l),
(2942,0,l),
(2867,0,l),
(2767,0,o),
(2606,111,o),
(2570,200,q),
(2537,110,o),
(2389,0,o),
(2290,0,qs),
(2260,0,l),
(2162,0,o),
(2015,108,o),
(1981,197,q),
(1948,108,o),
(1801,0,o),
(1703,0,qs),
(1643,0,l),
(1567,0,o),
(1432,85,o),
(1393,155,q),
(1393,44,l),
(1394,-138,o),
(1250,-394,o),
(1011,-531,o),
(873,-541,qs),
(698,-551,l),
(479,-561,o),
(261,-395,o),
(157,-133,o),
(157,15,qs),
(157,162,o),
(236,391,o),
(266,468,q),
(323,443,l),
(295,382,o),
(216,155,o),
(216,18,qs),
(216,-178,o),
(425,-509,o),
(698,-491,qs),
(873,-481,l),
(997,-471,o),
(1206,-352,o),
(1333,-129,o),
(1333,47,qs),
(1335,632,l),
(1394,632,l)
);
}
);
width = 2942;
},
{
anchors = (
{
name = "top-arab";
pos = (1971,816);
},
{
name = "bottom-arab";
pos = (852,-539);
}
);
associatedMasterId = m004;
attr = {
coordinates = (
800,
1
);
};
layerId = m005;
name = ExtraBold;
shapes = (
{
closed = 1;
nodes = (
(1533,446,l),
(1533,402,o),
(1589,340,o),
(1635,340,qs),
(1712,340,l),
(1756,340,o),
(1812,404,o),
(1812,451,qs),
(1812,817,l),
(2130,817,l),
(2130,451,l),
(2130,404,o),
(2186,340,o),
(2230,340,qs),
(2277,340,l),
(2323,340,o),
(2379,404,o),
(2379,451,qs),
(2379,817,l),
(2697,817,l),
(2697,451,l),
(2697,405,o),
(2762,340,o),
(2808,340,qs),
(2885,340,l),
(2885,0,l),
(2808,0,l),
(2719,0,o),
(2589,73,o),
(2542,133,q),
(2492,68,o),
(2365,0,o),
(2277,0,qs),
(2230,0,l),
(2149,0,o),
(2021,73,o),
(1971,137,q),
(1925,78,o),
(1799,0,o),
(1712,0,qs),
(1635,0,l),
(1601,0,o),
(1548,14,o),
(1527,26,qs),
(1527,26,l),
(1510,-100,o),
(1384,-346,o),
(1104,-529,o),
(912,-539,qs),
(774,-548,l),
(560,-558,o),
(270,-366,o),
(110,-65,o),
(110,65,qs),
(111,241,o),
(162,506,o),
(220,668,q),
(512,550,l),
(484,463,o),
(428,235,o),
(428,108,qs),
(430,-34,o),
(573,-218,o),
(774,-208,qs),
(912,-199,l),
(1012,-195,o),
(1136,-113,o),
(1216,17,o),
(1216,116,qs),
(1215,816,l),
(1533,816,l)
);
}
);
width = 2885;
},
{
anchors = (
{
name = "top-arab";
pos = (1965,921);
},
{
name = "bottom-arab";
pos = (881,-532);
}
);
associatedMasterId = m004;
attr = {
coordinates = (
1000,
1
);
};
layerId = m006;
name = ExtraBlack;
shapes = (
{
closed = 1;
nodes = (
(1613,514,l),
(1613,507,o),
(1615,500,o),
(1630,500,qs),
(1717,500,l),
(1725,500,o),
(1732,512,o),
(1732,521,qs),
(1732,923,l),
(2199,923,l),
(2198,521,l),
(2198,512,o),
(2206,500,o),
(2213,500,qs),
(2270,500,l),
(2279,500,o),
(2287,512,o),
(2287,521,qs),
(2287,923,l),
(2754,923,l),
(2754,521,l),
(2754,512,o),
(2766,500,o),
(2775,500,qs),
(2852,500,l),
(2852,0,l),
(2775,0,l),
(2692,0,o),
(2579,51,o),
(2526,95,q),
(2466,45,o),
(2351,0,o),
(2270,0,qs),
(2213,0,l),
(2141,0,o),
(2024,54,o),
(1965,103,q),
(1912,61,o),
(1798,0,o),
(1717,0,qs),
(1630,0,l),
(1621,0,o),
(1607,4,o),
(1603,10,qs),
(1603,10,l),
(1577,-78,o),
(1460,-318,o),
(1157,-518,o),
(935,-538,qs),
(817,-546,l),
(606,-556,o),
(276,-399,o),
(83,-56,o),
(83,93,qs),
(85,286,o),
(120,572,o),
(194,781,q),
(621,610,l),
(592,509,o),
(549,280,o),
(550,159,qs),
(552,49,o),
(657,-54,o),
(817,-46,qs),
(935,-38,l),
(1021,-32,o),
(1096,23,o),
(1149,100,o),
(1149,156,qs),
(1146,921,l),
(1613,921,l)
);
}
);
width = 2852;
}
);
unicode = 65202;
},
{
glyphname = "seen-arab.init";
layers = (
{
anchors = (
{
name = "top-arab";
pos = (1040,632);
},
{
name = "bottom-arab";
pos = (1040,0);
}
);
layerId = m004;
shapes = (
{
closed = 1;
nodes = (
(0,60,l),
(-80,54,o),
(-80,6,o),
(0,0,c),
(125,0,l),
(262,0,o),
(377,84,o),
(423,203,c),
(469,84,o),
(580,0,o),
(702,0,cs),
(762,0,l),
(895,0,o),
(997,81,o),
(1040,197,c),
(1084,81,o),
(1185,0,o),
(1319,0,cs),
(1349,0,l),
(1530,0,o),
(1657,146,o),
(1657,327,cs),
(1657,632,l),
(1598,632,l),
(1598,329,l),
(1598,180,o),
(1497,60,o),
(1349,60,cs),
(1319,60,l),
(1170,60,o),
(1069,180,o),
(1069,329,cs),
(1069,632,l),
(1011,632,l),
(1011,329,l),
(1011,180,o),
(909,60,o),
(762,60,cs),
(702,60,l),
(572,60,o),
(452,180,o),
(452,329,cs),
(452,632,l),
(394,632,l),
(394,329,l),
(394,180,o),
(274,60,o),
(125,60,cs)
);
}
);
width = 1828;
},
{
anchors = (
{
name = "top-arab";
pos = (1024,816);
},
{
name = "bottom-arab";
pos = (1024,0);
}
);
associatedMasterId = m004;
attr = {
coordinates = (
800,
1
);
};
layerId = m005;
name = ExtraBold;
shapes = (
{
closed = 1;
nodes = (
(0,340,l),
(-85,255,o),
(-85,84,o),
(0,0,c),
(157,0,l),
(278,0,o),
(361,51,o),
(426,132,c),
(488,51,o),
(567,0,o),
(688,0,cs),
(765,0,l),
(878,0,o),
(959,53,o),
(1024,137,c),
(1090,53,o),
(1170,0,o),
(1284,0,cs),
(1331,0,l),
(1569,0,o),
(1750,192,o),
(1750,430,cs),
(1750,816,l),
(1432,816,l),
(1432,451,l),
(1432,390,o),
(1393,340,o),
(1331,340,cs),
(1284,340,l),
(1223,340,o),
(1184,390,o),
(1184,451,cs),
(1183,816,l),
(865,816,l),
(865,451,l),
(865,390,o),
(826,340,o),
(765,340,cs),
(688,340,l),
(626,340,o),
(587,390,o),
(587,451,cs),
(586,816,l),
(268,816,l),
(268,451,l),
(268,390,o),
(219,340,o),
(157,340,cs)
);
}
);
width = 1870;
},
{
anchors = (
{
name = "top-arab";
pos = (975,921);
},
{
name = "bottom-arab";
pos = (976,0);
}
);
associatedMasterId = m004;
attr = {
coordinates = (
1000,
1
);
};
layerId = m006;
name = ExtraBlack;
shapes = (
{
closed = 1;
nodes = (
(0,500,l),
(-89,369,o),
(-89,129,o),
(0,0,c),
(136,0,l),
(248,0,o),
(312,32,o),
(388,91,c),
(460,32,o),
(520,0,o),
(640,0,cs),
(727,0,l),
(829,0,o),
(898,36,o),
(976,103,c),
(1054,36,o),
(1122,0,o),
(1224,0,cs),
(1281,0,l),
(1551,0,o),
(1765,218,o),
(1765,488,cs),
(1765,922,l),
(1298,922,l),
(1298,521,l),
(1298,509,o),
(1293,500,o),
(1281,500,cs),
(1224,500,l),
(1214,500,o),
(1209,509,o),
(1209,521,cs),
(1209,921,l),
(742,921,l),
(742,521,l),
(742,509,o),
(739,500,o),
(727,500,cs),
(640,500,l),
(618,500,o),
(624,509,o),
(624,521,cs),
(623,921,l),
(156,921,l),
(157,521,l),
(157,509,o),
(148,500,o),
(136,500,cs)
);
}
);
width = 1856;
}
);
unicode = 65203;
},
{
glyphname = "seen-arab.medi";
layers = (
{
anchors = (
{
name = "top-arab";
pos = (1040,632);
},
{
name = "bottom-arab";
pos = (1040,0);
}
);
layerId = m004;
shapes = (
{
closed = 1;
nodes = (
(0,60,l),
(-80,54,o),
(-80,6,o),
(0,0,c),
(125,0,l),
(262,0,o),
(377,84,o),
(423,203,c),
(469,84,o),
(580,0,o),
(702,0,cs),
(762,0,l),
(895,0,o),
(997,81,o),
(1041,197,c),
(1084,81,o),
(1186,0,o),
(1319,0,cs),
(1349,0,l),
(1484,0,o),
(1586,83,o),
(1629,200,c),
(1676,83,o),
(1791,0,o),
(1926,0,cs),
(2001,0,l),
(2001,60,l),
(1926,60,l),
(1777,60,o),
(1657,180,o),
(1657,329,cs),
(1657,632,l),
(1599,632,l),
(1598,329,l),
(1598,180,o),
(1498,60,o),
(1349,60,cs),
(1319,60,l),
(1170,60,o),
(1070,180,o),
(1070,329,cs),
(1070,632,l),
(1012,632,l),
(1011,329,l),
(1011,180,o),
(910,60,o),
(762,60,cs),
(702,60,l),
(572,60,o),
(453,180,o),
(453,329,cs),
(453,632,l),
(395,632,l),
(394,329,l),
(394,180,o),
(274,60,o),
(125,60,cs)
);
}
);
width = 2001;
},
{
anchors = (
{
name = "top-arab";
pos = (1024,816);
},
{
name = "bottom-arab";
pos = (1024,0);
}
);
associatedMasterId = m004;
attr = {
coordinates = (
800,
1
);
};
layerId = m005;
name = ExtraBold;
shapes = (
{
closed = 1;
nodes = (
(0,340,l),
(-85,255,o),
(-85,84,o),
(0,0,c),
(157,0,l),
(278,0,o),
(361,51,o),
(426,132,c),
(488,51,o),
(567,0,o),
(688,0,cs),
(765,0,l),
(878,0,o),
(959,53,o),
(1024,137,c),
(1090,53,o),
(1170,0,o),
(1284,0,cs),
(1331,0,l),
(1452,0,o),
(1531,51,o),
(1593,131,c),
(1658,51,o),
(1740,0,o),
(1862,0,cs),
(1938,0,l),
(1938,340,l),
(1862,340,l),
(1800,340,o),
(1750,390,o),
(1750,451,cs),
(1750,816,l),
(1432,816,l),
(1432,451,l),
(1432,390,o),
(1393,340,o),
(1331,340,cs),
(1284,340,l),
(1223,340,o),
(1184,390,o),
(1184,451,cs),
(1184,816,l),
(865,816,l),
(865,451,l),
(865,390,o),
(826,340,o),
(765,340,cs),
(688,340,l),
(626,340,o),
(587,390,o),
(587,451,cs),
(587,816,l),
(268,816,l),
(268,451,l),
(268,390,o),
(219,340,o),
(157,340,cs)
);
}
);
width = 1938;
},
{
anchors = (
{
name = "top-arab";
pos = (976,921);
},
{
name = "bottom-arab";
pos = (976,0);
}
);
associatedMasterId = m004;
attr = {
coordinates = (
1000,
1
);
};
layerId = m006;
name = ExtraBlack;
shapes = (
{
closed = 1;
nodes = (
(0,500,l),
(-89,369,o),
(-89,129,o),
(0,0,c),
(136,0,l),
(248,0,o),
(312,32,o),
(388,91,c),
(460,32,o),
(520,0,o),
(640,0,cs),
(727,0,l),
(829,0,o),
(898,36,o),
(976,103,c),
(1054,36,o),
(1122,0,o),
(1224,0,cs),
(1281,0,l),
(1395,0,o),
(1460,32,o),
(1534,92,c),
(1608,32,o),
(1673,0,o),
(1786,0,cs),
(1863,0,l),
(1863,500,l),
(1786,500,l),
(1774,500,o),
(1765,509,o),
(1765,521,cs),
(1764,921,l),
(1298,921,l),
(1298,521,l),
(1298,509,o),
(1293,500,o),
(1281,500,cs),
(1224,500,l),
(1214,500,o),
(1209,509,o),
(1209,521,cs),
(1209,921,l),
(742,921,l),
(742,521,l),
(742,509,o),
(739,500,o),
(727,500,cs),
(640,500,l),
(618,500,o),
(624,509,o),
(624,521,cs),
(624,921,l),
(157,921,l),
(157,521,l),
(157,509,o),
(148,500,o),
(136,500,cs)
);
}
);
width = 1863;
}
);
unicode = 65204;
},
{
glyphname = "sad-arab";
layers = (
{
anchors = (
{
name = "top-arab";
pos = (2228,802);
},
{
name = "bottom-arab";
pos = (801,-551);
}
);
layerId = m004;
shapes = (
{
closed = 1;
nodes = (
(1394,327,l),
(1394,222,o),
(1538,68,o),
(1642,62,q),
(1701,298,o),
(1996,814,o),
(2227,822,qs),
(2358,826,o),
(2542,712,o),
(2634,520,o),
(2634,411,qs),
(2634,301,o),
(2527,112,o),
(2338,0,o),
(2222,0,qs),
(1669,0,l),
(1583,0,o),
(1436,86,o),
(1393,158,q),
(1393,44,l),
(1394,-138,o),
(1250,-394,o),
(1011,-531,o),
(873,-541,qs),
(698,-551,l),
(479,-561,o),
(261,-395,o),
(157,-133,o),
(157,15,qs),
(157,162,o),
(236,391,o),
(266,468,q),
(323,443,l),
(295,382,o),
(216,155,o),
(216,18,qs),
(216,-178,o),
(425,-509,o),
(698,-491,qs),
(873,-481,l),
(997,-471,o),
(1206,-352,o),
(1333,-129,o),
(1333,47,qs),
(1333,632,l),
(1394,632,l)
);
},
{
closed = 1;
nodes = (
(1703,60,l),
(1729,140,o),
(1912,752,o),
(2230,763,cs),
(2462,772,o),
(2575,596,o),
(2575,411,cs),
(2575,223,o),
(2425,60,o),
(2222,60,cs)
);
}
);
width = 2791;
},
{
anchors = (
{
name = "top-arab";
pos = (2174,978);
},
{
name = "bottom-arab";
pos = (872,-539);
}
);
associatedMasterId = m004;
attr = {
coordinates = (
800,
1
);
};
layerId = m005;
name = ExtraBold;
shapes = (
{
closed = 1;
nodes = (
(1533,450,l),
(1533,405,o),
(1588,345,o),
(1633,340,q),
(1703,577,o),
(1995,1009,o),
(2234,1018,qs),
(2411,1024,o),
(2639,867,o),
(2740,632,o),
(2740,519,qs),
(2740,383,o),
(2606,144,o),
(2374,0,o),
(2233,0,qs),
(1771,0,l),
(1697,0,o),
(1570,48,o),
(1531,90,q),
(1531,79,l),
(1531,-74,o),
(1384,-346,o),
(1104,-529,o),
(912,-539,qs),
(774,-548,l),
(560,-558,o),
(270,-366,o),
(110,-65,o),
(110,64,qs),
(111,241,o),
(162,506,o),
(220,667,q),
(512,549,l),
(484,462,o),
(428,235,o),
(428,108,qs),
(430,-34,o),
(573,-218,o),
(774,-208,qs),
(912,-199,l),
(1012,-195,o),
(1136,-113,o),
(1216,17,o),
(1216,116,qs),
(1215,816,l),
(1533,816,l)
);
},
{
closed = 1;
nodes = (
(1914,340,l),
(1985,447,o),
(2109,688,o),
(2245,699,cs),
(2360,708,o),
(2422,627,o),
(2422,519,cs),
(2422,409,o),
(2327,340,o),
(2233,340,cs)
);
}
);
width = 2850;
},
{
anchors = (
{
name = "top-arab";
pos = (2143,1079);
},
{
name = "bottom-arab";
pos = (913,-532);
}
);
associatedMasterId = m004;
attr = {
coordinates = (
1000,
1
);
};
layerId = m006;
name = ExtraBlack;
shapes = (
{
closed = 1;
nodes = (
(1613,520,l),
(1613,510,o),
(1617,504,o),
(1628,499,q),
(1704,736,o),
(1994,1121,o),
(2238,1130,qs),
(2442,1137,o),
(2694,956,o),
(2800,697,o),
(2800,581,qs),
(2800,429,o),
(2652,162,o),
(2394,0,o),
(2239,0,qs),
(1828,0,l),
(1762,0,o),
(1646,26,o),
(1610,51,q),
(1610,49,l),
(1610,-38,o),
(1460,-318,o),
(1157,-518,o),
(935,-538,qs),
(817,-546,l),
(606,-556,o),
(276,-399,o),
(83,-56,o),
(83,93,qs),
(85,286,o),
(120,571,o),
(194,781,q),
(621,610,l),
(592,509,o),
(549,280,o),
(550,159,qs),
(552,48,o),
(657,-60,o),
(817,-46,qs),
(935,-38,l),
(1021,-32,o),
(1096,23,o),
(1149,100,o),
(1149,156,qs),
(1148,921,l),
(1613,921,l)
);
},
{
closed = 1;
nodes = (
(2035,500,l),
(2132,623,o),
(2221,656,o),
(2254,662,c),
(2302,672,o),
(2334,645,o),
(2334,581,cs),
(2334,516,o),
(2272,500,o),
(2240,500,cs)
);
}
);
width = 2883;
}
);
unicode = (1589,65209);
},
{
glyphname = "sad-arab.fina";
layers = (
{
anchors = (
{
name = "top-arab";
pos = (2228,802);
},
{
name = "bottom-arab";
pos = (801,-551);
}
);
layerId = m004;
shapes = (
{
closed = 1;
nodes = (
(2543,153,q),
(2594,109,o),
(2735,60,o),
(2842,60,qs),
(2952,60,l),
(2952,0,l),
(2842,0,l),
(2723,0,o),
(2561,60,o),
(2504,110,q),
(2462,70,o),
(2328,2,o),
(2222,0,qs),
(1669,0,l),
(1583,0,o),
(1436,86,o),
(1393,158,q),
(1393,44,l),
(1394,-138,o),
(1250,-394,o),
(1011,-531,o),
(873,-541,qs),
(698,-551,l),
(479,-561,o),
(261,-395,o),
(157,-133,o),
(157,15,qs),
(157,162,o),
(236,391,o),
(266,468,q),
(323,443,l),
(295,382,o),
(216,155,o),
(216,18,qs),
(216,-178,o),
(425,-509,o),
(698,-491,qs),
(873,-481,l),
(997,-471,o),
(1206,-352,o),
(1333,-129,o),
(1333,47,qs),
(1333,632,l),
(1394,632,l),
(1394,327,l),
(1394,222,o),
(1538,68,o),
(1642,62,q),
(1701,298,o),
(1996,814,o),
(2227,822,qs),
(2358,826,o),
(2542,712,o),
(2634,520,o),
(2634,411,qs),
(2632,264,o)
);
},
{
closed = 1;
nodes = (
(1703,60,l),
(1729,140,o),
(1912,752,o),
(2230,763,cs),
(2462,772,o),
(2575,596,o),
(2575,411,cs),
(2575,223,o),
(2425,60,o),
(2222,60,cs)
);
}
);
width = 2952;
},
{
anchors = (
{
name = "top-arab";
pos = (2174,978);
},
{
name = "bottom-arab";
pos = (872,-539);
}
);
associatedMasterId = m004;
attr = {
coordinates = (
800,
1
);
};
layerId = m005;
name = ExtraBold;
shapes = (
{
closed = 1;
nodes = (
(2715,361,q),
(2757,350,o),
(2845,340,o),
(2851,340,qs),
(2914,340,l),
(2914,0,l),
(2850,0,l),
(2793,0,o),
(2636,56,o),
(2543,109,q),
(2496,72,o),
(2347,0,o),
(2233,0,qs),
(1771,0,l),
(1697,0,o),
(1570,48,o),
(1531,90,q),
(1531,80,l),
(1532,-73,o),
(1384,-346,o),
(1104,-529,o),
(912,-539,qs),
(774,-548,l),
(560,-558,o),
(270,-366,o),
(110,-65,o),
(110,64,qs),
(111,241,o),
(162,506,o),
(220,667,q),
(512,549,l),
(484,462,o),
(428,235,o),
(428,108,qs),
(430,-34,o),
(573,-218,o),
(774,-208,qs),
(912,-199,l),
(1012,-195,o),
(1136,-113,o),
(1216,17,o),
(1216,116,qs),
(1215,816,l),
(1534,816,l),
(1533,450,l),
(1533,405,o),
(1588,345,o),
(1633,340,q),
(1703,577,o),
(1995,1009,o),
(2234,1018,qs),
(2411,1024,o),
(2639,867,o),
(2740,632,o),
(2740,519,qs),
(2740,439,o)
);
},
{
closed = 1;
nodes = (
(1914,340,l),
(1985,447,o),
(2109,688,o),
(2245,699,cs),
(2360,708,o),
(2422,627,o),
(2422,519,cs),
(2422,409,o),
(2327,340,o),
(2233,340,cs)
);
}
);
width = 2914;
},
{
anchors = (
{
name = "top-arab";
pos = (2143,1079);
},
{
name = "bottom-arab";
pos = (913,-532);
}
);
associatedMasterId = m004;
attr = {
coordinates = (
1000,
1
);
};
layerId = m006;
name = ExtraBlack;
shapes = (
{
closed = 1;
nodes = (
(2794,501,q),
(2820,500,o),
(2838,500,o),
(2857,500,qs),
(2893,500,l),
(2893,0,l),
(2855,0,l),
(2832,0,o),
(2679,54,o),
(2565,108,q),
(2516,72,o),
(2358,-1,o),
(2239,0,qs),
(1828,0,l),
(1762,0,o),
(1646,26,o),
(1609,51,q),
(1609,50,l),
(1610,-36,o),
(1460,-318,o),
(1157,-518,o),
(935,-538,qs),
(817,-546,l),
(606,-556,o),
(276,-399,o),
(83,-56,o),
(83,93,qs),
(85,286,o),
(120,571,o),
(194,781,q),
(621,610,l),
(592,509,o),
(549,280,o),
(550,159,qs),
(552,48,o),
(657,-60,o),
(817,-46,qs),
(935,-38,l),
(1021,-32,o),
(1096,23,o),
(1149,100,o),
(1149,156,qs),
(1148,921,l),
(1614,921,l),
(1613,520,l),
(1613,510,o),
(1617,504,o),
(1628,499,q),
(1704,736,o),
(1994,1121,o),
(2238,1130,qs),
(2442,1137,o),
(2694,956,o),
(2800,697,o),
(2800,581,q),
(2802,538,o)
);
},
{
closed = 1;
nodes = (
(2035,500,l),
(2132,623,o),
(2221,656,o),
(2254,662,c),
(2302,672,o),
(2334,645,o),
(2334,581,cs),
(2334,516,o),
(2272,500,o),
(2240,500,cs)
);
}
);
width = 2892;
}
);
unicode = 65210;
},
{
glyphname = "sad-arab.init";
layers = (
{
anchors = (
{
name = "top-arab";
pos = (1213,802);
},
{
name = "bottom-arab";
pos = (953,0);
}
);
layerId = m004;
shapes = (
{
closed = 1;
nodes = (
(688,60,l),
(714,140,o),
(897,752,o),
(1216,763,cs),
(1447,772,o),
(1561,596,o),
(1561,411,cs),
(1561,223,o),
(1411,60,o),
(1207,60,cs)
);
},
{
closed = 1;
nodes = (
(0,60,l),
(-80,54,o),
(-80,6,o),
(0,0,c),
(52,0,l),
(189,0,o),
(304,84,o),
(350,203,c),
(396,84,o),
(511,0,o),
(648,0,cs),
(1207,0,l),
(1446,0,o),
(1619,190,o),
(1619,411,cs),
(1619,620,o),
(1487,831,o),
(1213,822,cs),
(832,808,o),
(640,101,o),
(628,62,c),
(489,71,o),
(379,187,o),
(379,327,cs),
(380,632,l),
(321,632,l),
(321,329,l),
(321,180,o),
(201,60,o),
(52,60,cs)
);
}
);
width = 1776;
},
{
anchors = (
{
name = "top-arab";
pos = (1164,978);
},
{
name = "bottom-arab";
pos = (1051,0);
}
);
associatedMasterId = m004;
attr = {
coordinates = (
800,
1
);
};
layerId = m005;
name = ExtraBold;
shapes = (
{
closed = 1;
nodes = (
(864,340,l),
(935,447,o),
(1059,688,o),
(1195,699,cs),
(1310,708,o),
(1372,627,o),
(1372,519,cs),
(1372,409,o),
(1277,340,o),
(1183,340,cs)
);
},
{
closed = 1;
nodes = (
(0,340,l),
(-85,255,o),
(-85,84,o),
(0,0,c),
(54,0,l),
(176,0,o),
(259,52,o),
(325,134,c),
(390,52,o),
(473,0,o),
(615,0,cs),
(1183,0,l),
(1473,0,o),
(1690,245,o),
(1690,519,cs),
(1690,718,o),
(1566,1032,o),
(1184,1018,cs),
(817,1005,o),
(640,531,o),
(584,340,c),
(527,347,o),
(484,393,o),
(484,450,cs),
(484,816,l),
(166,816,l),
(165,451,l),
(165,390,o),
(115,340,o),
(54,340,cs)
);
}
);
width = 1800;
},
{
anchors = (
{
name = "top-arab";
pos = (1136,1079);
},
{
name = "bottom-arab";
pos = (1107,0);
}
);
associatedMasterId = m004;
attr = {
coordinates = (
1000,
1
);
};
layerId = m006;
name = ExtraBlack;
shapes = (
{
closed = 1;
nodes = (
(964,500,l),
(1062,623,o),
(1151,656,o),
(1183,662,cs),
(1232,672,o),
(1264,645,o),
(1264,581,cs),
(1264,516,o),
(1201,500,o),
(1169,500,cs)
);
},
{
closed = 1;
nodes = (
(0,500,l),
(-89,369,o),
(-89,129,o),
(0,0,c),
(55,0,l),
(169,0,o),
(233,33,o),
(310,95,c),
(387,33,o),
(451,0,o),
(596,0,cs),
(1169,0,l),
(1489,0,o),
(1731,276,o),
(1731,581,cs),
(1731,774,o),
(1611,1146,o),
(1168,1130,cs),
(808,1117,o),
(640,777,o),
(558,499,c),
(549,505,o),
(544,511,o),
(543,520,c),
(544,921,l),
(77,921,l),
(77,521,l),
(77,509,o),
(66,500,o),
(55,500,cs)
);
}
);
width = 1814;
}
);
unicode = 65211;
},
{
glyphname = "sad-arab.medi";
layers = (
{
anchors = (
{
name = "top-arab";
pos = (1213,802);
},
{
name = "bottom-arab";
pos = (953,0);
}
);
layerId = m004;
shapes = (
{
closed = 1;
nodes = (
(688,60,l),
(714,140,o),
(897,752,o),
(1216,763,cs),
(1447,772,o),
(1561,596,o),
(1561,411,cs),
(1561,223,o),
(1411,60,o),
(1207,60,cs)
);
},
{
closed = 1;
nodes = (
(1586,224,o),
(1619,315,o),
(1619,411,cs),
(1619,620,o),
(1487,831,o),
(1213,822,cs),
(832,808,o),
(640,101,o),
(628,62,c),
(489,71,o),
(379,187,o),
(379,327,cs),
(380,632,l),
(321,632,l),
(321,329,l),
(321,180,o),
(201,60,o),
(52,60,cs),
(0,60,l),
(-80,54,o),
(-80,6,o),
(0,0,c),
(52,0,l),
(189,0,o),
(304,84,o),
(350,203,c),
(396,84,o),
(511,0,o),
(648,0,cs),
(1207,0,l),
(1320,0,o),
(1418,42,o),
(1490,110,c),
(1570,39,o),
(1688,0,o),
(1828,0,cs),
(1938,0,l),
(1938,60,l),
(1828,60,l),
(1710,60,o),
(1605,88,o),
(1529,153,c)
);
}
);
width = 1938;
},
{
anchors = (
{
name = "top-arab";
pos = (1164,978);
},
{
name = "bottom-arab";
pos = (1051,0);
}
);
associatedMasterId = m004;
attr = {
coordinates = (
800,
1
);
};
layerId = m005;
name = ExtraBold;
shapes = (
{
closed = 1;
nodes = (
(864,340,l),
(935,447,o),
(1059,688,o),
(1195,699,cs),
(1310,708,o),
(1372,627,o),
(1372,519,cs),
(1372,409,o),
(1277,340,o),
(1183,340,cs)
);
},
{
closed = 1;
nodes = (
(1682,411,o),
(1690,465,o),
(1690,519,cs),
(1690,718,o),
(1566,1032,o),
(1184,1018,cs),
(817,1005,o),
(640,531,o),
(584,340,c),
(527,347,o),
(484,393,o),
(484,450,cs),
(484,816,l),
(166,816,l),
(165,451,l),
(165,390,o),
(115,340,o),
(54,340,cs),
(0,340,l),
(-85,255,o),
(-85,84,o),
(0,0,c),
(54,0,l),
(176,0,o),
(259,52,o),
(325,134,c),
(390,52,o),
(473,0,o),
(615,0,cs),
(1183,0,l),
(1302,0,o),
(1408,41,o),
(1493,108,c),
(1591,53,o),
(1695,0,o),
(1800,0,cs),
(1864,0,l),
(1864,340,l),
(1801,340,l),
(1776,340,o),
(1733,343,o),
(1666,361,c)
);
}
);
width = 1864;
},
{
anchors = (
{
name = "top-arab";
pos = (1136,1079);
},
{
name = "bottom-arab";
pos = (1107,0);
}
);
associatedMasterId = m004;
attr = {
coordinates = (
1000,
1
);
};
layerId = m006;
name = ExtraBlack;
shapes = (
{
closed = 1;
nodes = (
(964,500,l),
(1062,623,o),
(1151,656,o),
(1183,662,cs),
(1232,672,o),
(1264,645,o),
(1264,581,cs),
(1264,516,o),
(1201,500,o),
(1169,500,cs)
);
},
{
closed = 1;
nodes = (
(1726,528,o),
(1731,550,o),
(1731,581,cs),
(1731,774,o),
(1611,1146,o),
(1168,1130,cs),
(808,1117,o),
(640,777,o),
(558,499,c),
(549,505,o),
(544,511,o),
(543,520,c),
(544,921,l),
(77,921,l),
(77,521,l),
(77,509,o),
(66,500,o),
(55,500,cs),
(0,500,l),
(-89,369,o),
(-89,129,o),
(0,0,c),
(55,0,l),
(169,0,o),
(233,33,o),
(310,95,c),
(387,33,o),
(451,0,o),
(596,0,cs),
(1169,0,l),
(1292,0,o),
(1403,40,o),
(1494,107,c),
(1603,61,o),
(1698,0,o),
(1784,0,cs),
(1822,0,l),
(1822,500,l),
(1786,500,l),
(1764,500,o),
(1747,500,o),
(1724,500,c)
);
}
);
width = 1822;
}
);
unicode = 65212;
},
{
glyphname = "tah-arab";
layers = (
{
anchors = (
{
name = "top-arab";
pos = (1043,822);
},
{
name = "bottom-arab";
pos = (753,0);
}
);
layerId = m004;
shapes = (
{
closed = 1;
nodes = (
(422,1433,l),
(421,250,l),
(382,149,o),
(361,73,o),
(357,60,c),
(171,60,l),
(171,0,l),
(937,0,l),
(1176,0,o),
(1349,190,o),
(1349,411,cs),
(1349,620,o),
(1217,831,o),
(943,822,cs),
(730,814,o),
(576,589,o),
(479,386,c),
(480,905,l),
(480,1433,l)
);
},
{
closed = 1;
nodes = (
(937,60,cs),
(418,60,l),
(444,140,o),
(627,752,o),
(946,763,cs),
(1177,772,o),
(1291,596,o),
(1291,411,cs),
(1291,223,o),
(1141,60,o)
);
}
);
width = 1518;
},
{
anchors = (
{
name = "top-arab";
pos = (507,1524);
},
{
name = "bottom-arab";
pos = (799,0);
}
);
associatedMasterId = m004;
attr = {
coordinates = (
800,
1
);
};
layerId = m005;
name = ExtraBold;
shapes = (
{
closed = 1;
nodes = (
(348,1524,l),
(347,377,l),
(341,360,o),
(337,347,o),
(334,340,c),
(120,340,l),
(120,0,l),
(963,0,l),
(1253,0,o),
(1470,245,o),
(1470,519,cs),
(1470,738,o),
(1336,1032,o),
(964,1018,cs),
(853,1014,o),
(758,948,o),
(660,821,c),
(666,1042,l),
(666,1524,l)
);
},
{
closed = 1;
nodes = (
(963,340,cs),
(644,340,l),
(716,447,o),
(839,688,o),
(975,699,cs),
(1090,708,o),
(1152,627,o),
(1152,519,cs),
(1152,409,o),
(1058,340,o)
);
}
);
width = 1579;
},
{
anchors = (
{
name = "top-arab";
pos = (772,1547);
},
{
name = "bottom-arab";
pos = (825,0);
}
);
associatedMasterId = m004;
attr = {
coordinates = (
1000,
1
);
};
layerId = m006;
name = ExtraBlack;
shapes = (
{
closed = 1;
nodes = (
(305,1547,l),
(305,500,l),
(305,500,o),
(305,500,o),
(305,500,c),
(91,500,l),
(91,0,l),
(978,0,l),
(1297,0,o),
(1539,276,o),
(1539,581,cs),
(1539,845,o),
(1404,1138,o),
(997,1138,cs),
(914,1138,o),
(812,1093,o),
(763,1060,c),
(772,1110,l),
(772,1547,l)
);
},
{
closed = 1;
nodes = (
(978,500,cs),
(773,500,l),
(871,623,o),
(957,655,o),
(992,662,cs),
(1040,672,o),
(1072,645,o),
(1072,581,cs),
(1072,516,o),
(1010,500,o)
);
}
);
width = 1614;
}
);
unicode = (1591,65217);
},
{
glyphname = "tah-arab.fina";
layers = (
{
anchors = (
{
name = "top-arab";
pos = (1043,822);
},
{
name = "bottom-arab";
pos = (753,0);
}
);
layerId = m004;
shapes = (
{
closed = 1;
nodes = (
(937,60,cs),
(418,60,l),
(444,140,o),
(627,752,o),
(946,763,cs),
(1177,772,o),
(1291,596,o),
(1291,411,cs),
(1291,223,o),
(1141,60,o)
);
},
{
closed = 1;
nodes = (
(1316,223,o),
(1349,314,o),
(1349,411,cs),
(1349,620,o),
(1217,831,o),
(943,822,cs),
(730,814,o),
(576,589,o),
(479,386,c),
(480,905,l),
(480,1433,l),
(422,1433,l),
(421,250,l),
(382,149,o),
(361,73,o),
(357,60,c),
(171,60,l),
(171,0,l),
(937,0,l),
(1049,0,o),
(1147,42,o),
(1219,110,c),
(1299,39,o),
(1417,0,o),
(1556,0,cs),
(1666,0,l),
(1666,60,l),
(1556,60,l),
(1438,60,o),
(1334,88,o),
(1258,152,c)
);
}
);
width = 1666;
},
{
anchors = (
{
name = "top-arab";
pos = (507,1524);
},
{
name = "bottom-arab";
pos = (799,0);
}
);
associatedMasterId = m004;
attr = {
coordinates = (
800,
1
);
};
layerId = m005;
name = ExtraBold;
shapes = (
{
closed = 1;
nodes = (
(963,340,cs),
(644,340,l),
(716,447,o),
(839,688,o),
(975,699,cs),
(1090,708,o),
(1152,627,o),
(1152,519,cs),
(1152,409,o),
(1058,340,o)
);
},
{
closed = 1;
nodes = (
(1462,412,o),
(1470,465,o),
(1470,519,cs),
(1470,738,o),
(1336,1032,o),
(964,1018,cs),
(853,1014,o),
(758,948,o),
(660,821,c),
(666,1042,l),
(666,1524,l),
(348,1524,l),
(347,377,l),
(341,360,o),
(337,347,o),
(334,340,c),
(120,340,l),
(120,0,l),
(963,0,l),
(1082,0,o),
(1189,41,o),
(1273,109,c),
(1371,53,o),
(1475,0,o),
(1580,0,cs),
(1644,0,l),
(1644,340,l),
(1581,340,l),
(1536,340,o),
(1483,353,o),
(1426,381,c)
);
}
);
width = 1644;
},
{
anchors = (
{
name = "top-arab";
pos = (772,1547);
},
{
name = "bottom-arab";
pos = (825,0);
}
);
associatedMasterId = m004;
attr = {
coordinates = (
1000,
1
);
};
layerId = m006;
name = ExtraBlack;
shapes = (
{
closed = 1;
nodes = (
(978,500,cs),
(773,500,l),
(871,623,o),
(957,655,o),
(992,662,cs),
(1040,672,o),
(1072,645,o),
(1072,581,cs),
(1072,516,o),
(1010,500,o)
);
},
{
closed = 1;
nodes = (
(1535,519,o),
(1539,551,o),
(1539,581,cs),
(1539,845,o),
(1404,1138,o),
(997,1138,cs),
(914,1138,o),
(812,1093,o),
(763,1060,c),
(772,1110,l),
(772,1547,l),
(305,1547,l),
(305,500,l),
(305,500,o),
(305,500,o),
(305,500,c),
(91,500,l),
(91,0,l),
(978,0,l),
(1101,0,o),
(1212,41,o),
(1304,108,c),
(1412,62,o),
(1508,0,o),
(1594,0,cs),
(1631,0,l),
(1631,500,l),
(1595,500,l),
(1582,500,o),
(1559,500,o),
(1531,502,c)
);
}
);
width = 1631;
}
);
unicode = 65218;
},
{
glyphname = "tah-arab.init";
layers = (
{
anchors = (
{
name = "top-arab";
pos = (993,822);
},
{
name = "bottom-arab";
pos = (703,0);
}
);
layerId = m004;
shapes = (
{
closed = 1;
nodes = (
(680,814,o),
(526,589,o),
(429,386,c),
(430,905,l),
(430,1433,l),
(372,1433,l),
(371,250,l),
(332,149,o),
(311,73,o),
(307,60,c),
(0,60,l),
(-80,54,o),
(-80,6,o),
(0,0,c),
(887,0,l),
(1126,0,o),
(1299,190,o),
(1299,411,cs),
(1299,620,o),
(1167,831,o),
(893,822,cs)
);
},
{
closed = 1;
nodes = (
(1241,223,o),
(1091,60,o),
(887,60,cs),
(368,60,l),
(394,140,o),
(577,752,o),
(896,763,cs),
(1127,772,o),
(1241,596,o),
(1241,411,cs)
);
}
);
width = 1468;
},
{
anchors = (
{
name = "top-arab";
pos = (357,1524);
},
{
name = "bottom-arab";
pos = (660,0);
}
);
associatedMasterId = m004;
attr = {
coordinates = (
800,
1
);
};
layerId = m005;
name = ExtraBold;
shapes = (
{
closed = 1;
nodes = (
(704,1014,o),
(609,948,o),
(511,821,c),
(517,1042,l),
(517,1524,l),
(199,1524,l),
(198,377,l),
(192,360,o),
(187,347,o),
(184,340,c),
(0,340,l),
(-85,255,o),
(-85,84,o),
(0,0,c),
(814,0,l),
(1104,0,o),
(1321,245,o),
(1321,519,cs),
(1321,738,o),
(1187,1032,o),
(815,1018,cs)
);
},
{
closed = 1;
nodes = (
(1003,409,o),
(908,340,o),
(814,340,cs),
(495,340,l),
(566,447,o),
(690,688,o),
(826,699,cs),
(941,708,o),
(1003,627,o),
(1003,519,cs)
);
}
);
width = 1430;
},
{
anchors = (
{
name = "top-arab";
pos = (586,1547);
},
{
name = "bottom-arab";
pos = (655,0);
}
);
associatedMasterId = m004;
attr = {
coordinates = (
1000,
1
);
};
layerId = m006;
name = ExtraBlack;
shapes = (
{
closed = 1;
nodes = (
(728,1138,o),
(626,1093,o),
(577,1060,c),
(586,1110,l),
(586,1547,l),
(120,1547,l),
(120,500,l),
(120,500,o),
(120,500,o),
(120,500,c),
(0,500,l),
(-88,370,o),
(-88,129,o),
(0,0,c),
(792,0,l),
(1111,0,o),
(1354,276,o),
(1354,581,cs),
(1354,845,o),
(1218,1138,o),
(811,1138,cs)
);
},
{
closed = 1;
nodes = (
(886,516,o),
(824,500,o),
(792,500,cs),
(587,500,l),
(685,623,o),
(771,655,o),
(806,662,cs),
(854,672,o),
(886,645,o),
(886,581,cs)
);
}
);
width = 1428;
}
);
unicode = 65219;
},
{
glyphname = "tah-arab.medi";
layers = (
{
anchors = (
{
name = "top-arab";
pos = (993,822);
},
{
name = "bottom-arab";
pos = (703,0);
}
);
layerId = m004;
shapes = (
{
closed = 1;
nodes = (
(1241,223,o),
(1091,60,o),
(887,60,cs),
(368,60,l),
(394,140,o),
(577,752,o),
(896,763,cs),
(1127,772,o),
(1241,596,o),
(1241,411,cs)
);
},
{
closed = 1;
nodes = (
(1249,39,o),
(1367,0,o),
(1506,0,cs),
(1616,0,l),
(1616,60,l),
(1506,60,l),
(1388,60,o),
(1284,88,o),
(1208,152,c),
(1266,223,o),
(1299,314,o),
(1299,411,cs),
(1299,620,o),
(1167,831,o),
(893,822,cs),
(680,814,o),
(526,589,o),
(429,386,c),
(430,905,l),
(430,1433,l),
(372,1433,l),
(371,250,l),
(332,149,o),
(311,73,o),
(307,60,c),
(0,60,l),
(-80,54,o),
(-80,6,o),
(0,0,c),
(887,0,l),
(999,0,o),
(1097,42,o),
(1169,110,c)
);
}
);
width = 1616;
},
{
anchors = (
{
name = "top-arab";
pos = (357,1524);
},
{
name = "bottom-arab";
pos = (660,0);
}
);
associatedMasterId = m004;
attr = {
coordinates = (
800,
1
);
};
layerId = m005;
name = ExtraBold;
shapes = (
{
closed = 1;
nodes = (
(1003,409,o),
(908,340,o),
(814,340,cs),
(495,340,l),
(566,447,o),
(690,688,o),
(826,699,cs),
(941,708,o),
(1003,627,o),
(1003,519,cs)
);
},
{
closed = 1;
nodes = (
(1221,53,o),
(1325,0,o),
(1430,0,cs),
(1494,0,l),
(1494,340,l),
(1431,340,l),
(1386,340,o),
(1334,353,o),
(1277,381,c),
(1312,411,o),
(1321,465,o),
(1321,519,cs),
(1321,738,o),
(1187,1032,o),
(815,1018,cs),
(704,1014,o),
(609,948,o),
(511,821,c),
(517,1042,l),
(517,1524,l),
(199,1524,l),
(198,377,l),
(192,360,o),
(187,347,o),
(184,340,c),
(0,340,l),
(-85,255,o),
(-85,84,o),
(0,0,c),
(814,0,l),
(933,0,o),
(1039,41,o),
(1124,108,c)
);
}
);
width = 1494;
},
{
anchors = (
{
name = "top-arab";
pos = (586,1547);
},
{
name = "bottom-arab";
pos = (655,0);
}
);
associatedMasterId = m004;
attr = {
coordinates = (
1000,
1
);
};
layerId = m006;
name = ExtraBlack;
shapes = (
{
closed = 1;
nodes = (
(886,516,o),
(824,500,o),
(792,500,cs),
(587,500,l),
(685,623,o),
(771,655,o),
(806,662,cs),
(854,672,o),
(886,645,o),
(886,581,cs)
);
},
{
closed = 1;
nodes = (
(1225,62,o),
(1321,0,o),
(1407,0,cs),
(1444,0,l),
(1444,500,l),
(1408,500,l),
(1395,500,o),
(1372,500,o),
(1335,502,c),
(1349,519,o),
(1354,551,o),
(1354,581,cs),
(1354,845,o),
(1218,1138,o),
(811,1138,cs),
(728,1138,o),
(626,1093,o),
(577,1060,c),
(586,1110,l),
(586,1547,l),
(120,1547,l),
(120,500,l),
(120,500,o),
(120,500,o),
(120,500,c),
(0,500,l),
(-88,370,o),
(-88,129,o),
(0,0,c),
(792,0,l),
(915,0,o),
(1026,41,o),
(1117,108,c)
);
}
);
width = 1444;
}
);
unicode = 65220;
},
{
glyphname = "ain-arab";
layers = (
{
anchors = (
{
name = "top-arab";
pos = (719,860);
},
{
name = "bottom-arab";
pos = (720,-721);
}
);
layerId = m004;
shapes = (
{
closed = 1;
nodes = (
(1088,-721,l),
(1088,-661,l),
(654,-661,l),
(452,-661,o),
(250,-530,o),
(250,-278,cs),
(250,-77,o),
(422,86,o),
(624,86,cs),
(1086,86,l),
(1086,146,l),
(722,146,l),
(527,146,o),
(409,314,o),
(409,484,cs),
(409,687,o),
(536,840,o),
(722,841,cs),
(832,841,o),
(937,791,o),
(1019,753,c),
(1032,816,l),
(963,843,o),
(847,901,o),
(719,900,cs),
(502,898,o),
(351,721,o),
(351,485,cs),
(351,343,o),
(424,196,o),
(549,133,c),
(351,98,o),
(191,-71,o),
(191,-278,cs),
(191,-562,o),
(420,-721,o),
(654,-721,cs)
);
}
);
width = 1249;
},
{
anchors = (
{
name = "top-arab";
pos = (732,997);
},
{
name = "bottom-arab";
pos = (710,-678);
}
);
associatedMasterId = m004;
attr = {
coordinates = (
800,
1
);
};
layerId = m005;
name = ExtraBold;
shapes = (
{
closed = 1;
nodes = (
(1130,-678,l),
(1130,-339,l),
(656,-339,l),
(547,-339,o),
(437,-261,o),
(437,-152,cs),
(437,-43,o),
(527,57,o),
(636,57,cs),
(1130,57,l),
(1130,397,l),
(723,397,l),
(633,397,o),
(584,472,o),
(584,555,cs),
(584,651,o),
(646,720,o),
(737,721,cs),
(834,721,o),
(943,689,o),
(1024,648,c),
(1082,959,l),
(1018,992,o),
(888,1037,o),
(732,1037,cs),
(471,1037,o),
(265,808,o),
(265,575,cs),
(265,488,o),
(305,340,o),
(370,269,c),
(219,174,o),
(119,36,o),
(119,-152,cs),
(119,-437,o),
(370,-678,o),
(656,-678,cs)
);
}
);
width = 1250;
},
{
anchors = (
{
name = "top-arab";
pos = (739,1075);
},
{
name = "bottom-arab";
pos = (704,-653);
}
);
associatedMasterId = m004;
attr = {
coordinates = (
1000,
1
);
};
layerId = m006;
name = ExtraBlack;
shapes = (
{
closed = 1;
nodes = (
(1154,-653,l),
(1154,-155,l),
(657,-155,l),
(601,-155,o),
(545,-112,o),
(545,-84,cs),
(545,-28,o),
(587,20,o),
(643,20,cs),
(1154,20,l),
(1154,520,l),
(724,520,l),
(694,520,o),
(684,552,o),
(683,586,c),
(683,620,o),
(709,652,o),
(747,652,cs),
(835,652,o),
(946,631,o),
(1028,588,c),
(1110,1041,l),
(1050,1076,o),
(912,1115,o),
(740,1116,cs),
(453,1117,o),
(216,849,o),
(216,616,cs),
(216,561,o),
(237,402,o),
(268,327,c),
(144,198,o),
(78,93,o),
(78,-84,cs),
(78,-370,o),
(341,-653,o),
(657,-653,cs)
);
}
);
width = 1251;
}
);
unicode = (1593,65225);
},
{
glyphname = "ain-arab.fina";
layers = (
{
anchors = (
{
name = "top-arab";
pos = (691,785);
},
{
name = "bottom-arab";
pos = (720,0);
}
);
layerId = m004;
shapes = (
{
closed = 1;
nodes = (
(1115,-721,l),
(1115,-661,l),
(631,-661,l),
(419,-661,o),
(220,-558,o),
(220,-327,cs),
(220,-167,o),
(348,-74,o),
(571,56,c),
(601,69,o),
(622,79,o),
(650,93,c),
(738,1,o),
(786,0,o),
(1045,0,cs),
(1356,0,l),
(1356,60,l),
(1043,60,l),
(873,60,o),
(792,61,o),
(728,95,c),
(1109,504,l),
(1202,613,o),
(1126,785,o),
(979,785,cs),
(243,785,l),
(219,734,l),
(618,144,l),
(304,1,o),
(161,-147,o),
(161,-327,cs),
(161,-591,o),
(387,-721,o),
(631,-721,cs)
);
},
{
closed = 1;
nodes = (
(291,725,l),
(976,725,l),
(1072,725,o),
(1127,611,o),
(1063,537,c),
(690,134,l)
);
}
);
width = 1356;
},
{
anchors = (
{
name = "top-arab";
pos = (740,1007);
},
{
name = "bottom-arab";
pos = (710,-678);
}
);
associatedMasterId = m004;
attr = {
coordinates = (
800,
1
);
};
layerId = m005;
name = ExtraBold;
shapes = (
{
closed = 1;
nodes = (
(1151,-678,l),
(1151,-339,l),
(681,-339,l),
(509,-339,o),
(401,-258,o),
(418,-138,cs),
(433,-35,o),
(547,21,o),
(624,59,cs),
(650,72,o),
(732,102,o),
(741,108,c),
(858,5,o),
(976,0,o),
(1098,0,cs),
(1370,0,l),
(1370,340,l),
(1164,340,l),
(1093,340,o),
(1075,340,o),
(1055,345,c),
(1173,479,l),
(1351,691,o),
(1199,1007,o),
(929,1007,cs),
(292,1007,l),
(177,711,l),
(462,296,l),
(234,199,o),
(114,56,o),
(99,-138,cs),
(77,-434,o),
(333,-678,o),
(681,-678,cs)
);
},
{
closed = 1;
nodes = (
(513,692,l),
(894,692,l),
(938,692,o),
(960,645,o),
(932,610,cs),
(741,382,l)
);
}
);
width = 1370;
},
{
anchors = (
{
name = "top-arab";
pos = (768,1134);
},
{
name = "bottom-arab";
pos = (704,-1065);
}
);
associatedMasterId = m004;
attr = {
coordinates = (
1000,
1
);
};
layerId = m006;
name = ExtraBlack;
shapes = (
{
closed = 1;
nodes = (
(1172,-653,l),
(1172,-155,l),
(710,-155,l),
(560,-155,o),
(512,-91,o),
(531,-30,c),
(555,40,o),
(617,56,o),
(654,70,cs),
(682,81,o),
(794,115,o),
(794,116,c),
(926,7,o),
(1085,0,o),
(1129,0,cs),
(1379,0,l),
(1379,500,l),
(1257,500,l),
(1252,500,o),
(1241,500,o),
(1225,489,c),
(1243,510,l),
(1436,735,o),
(1241,1133,o),
(900,1133,cs),
(320,1133,l),
(153,697,l),
(374,383,l),
(194,313,o),
(87,172,o),
(64,-30,cs),
(29,-344,o),
(302,-653,o),
(710,-653,cs)
);
},
{
closed = 1;
nodes = (
(639,673,l),
(847,673,l),
(861,673,o),
(865,664,o),
(857,652,cs),
(770,524,l)
);
}
);
width = 1379;
}
);
unicode = 65226;
},
{
glyphname = "ain-arab.init";
layers = (
{
anchors = (
{
name = "top-arab";
pos = (649,795);
},
{
name = "bottom-arab";
pos = (649,0);
}
);
layerId = m004;
shapes = (
{
closed = 1;
nodes = (
(0,60,l),
(-80,54,o),
(-80,6,o),
(0,0,c),
(652,0,l),
(716,0,o),
(888,12,o),
(994,50,c),
(994,110,l),
(895,71,o),
(724,60,o),
(652,60,cs),
(457,59,o),
(339,239,o),
(339,410,cs),
(339,613,o),
(467,776,o),
(651,777,cs),
(762,777,o),
(869,727,o),
(952,658,c),
(961,722,l),
(893,778,o),
(776,836,o),
(649,835,cs),
(432,833,o),
(281,647,o),
(281,410,cs),
(281,274,o),
(349,122,o),
(467,60,c)
);
}
);
width = 1165;
},
{
anchors = (
{
name = "top-arab";
pos = (583,961);
},
{
name = "bottom-arab";
pos = (555,0);
}
);
associatedMasterId = m004;
attr = {
coordinates = (
800,
1
);
};
layerId = m005;
name = ExtraBold;
shapes = (
{
closed = 1;
nodes = (
(0,340,l),
(-86,255,o),
(-86,84,o),
(0,0,c),
(596,0,l),
(725,1,o),
(889,20,o),
(980,60,c),
(980,380,l),
(889,341,o),
(697,340,o),
(574,340,cs),
(484,340,o),
(435,425,o),
(434,508,cs),
(434,604,o),
(497,684,o),
(588,684,cs),
(685,684,o),
(793,652,o),
(875,612,c),
(932,923,l),
(869,955,o),
(739,1000,o),
(583,1001,cs),
(322,1001,o),
(116,762,o),
(116,528,cs),
(116,479,o),
(129,406,o),
(152,340,c)
);
}
);
width = 1094;
},
{
anchors = (
{
name = "top-arab";
pos = (545,1056);
},
{
name = "bottom-arab";
pos = (501,0);
}
);
associatedMasterId = m004;
attr = {
coordinates = (
1000,
1
);
};
layerId = m006;
name = ExtraBlack;
shapes = (
{
closed = 1;
nodes = (
(0,500,l),
(-89,369,o),
(-89,129,o),
(0,0,c),
(565,0,l),
(731,2,o),
(889,24,o),
(972,66,c),
(972,534,l),
(886,496,o),
(682,500,o),
(530,500,c),
(499,501,o),
(489,532,o),
(489,565,cs),
(489,599,o),
(514,631,o),
(552,631,cs),
(641,631,o),
(750,610,o),
(832,585,c),
(916,1037,l),
(856,1056,o),
(717,1094,o),
(545,1095,cs),
(259,1097,o),
(22,828,o),
(22,596,cs),
(22,586,o),
(23,549,o),
(42,500,c)
);
}
);
width = 1054;
}
);
unicode = 65227;
},
{
glyphname = "ain-arab.medi";
layers = (
{
anchors = (
{
name = "top-arab";
pos = (689,757);
},
{
name = "bottom-arab";
pos = (688,0);
}
);
layerId = m004;
shapes = (
{
closed = 1;
nodes = (
(290,707,l),
(975,707,l),
(1071,707,o),
(1126,593,o),
(1062,518,c),
(689,135,l)
);
},
{
closed = 1;
nodes = (
(0,60,l),
(-80,54,o),
(-80,6,o),
(0,0,c),
(420,0,l),
(623,0,o),
(657,62,o),
(688,83,c),
(719,62,o),
(753,0,o),
(956,0,cs),
(1355,0,l),
(1355,60,l),
(963,60,l),
(860,60,o),
(769,78,o),
(750,119,c),
(1108,485,l),
(1201,594,o),
(1125,767,o),
(978,767,cs),
(242,767,l),
(218,715,l),
(632,119,l),
(619,80,o),
(524,60,o),
(421,60,cs)
);
}
);
width = 1355;
},
{
anchors = (
{
name = "top-arab";
pos = (695,978);
},
{
name = "bottom-arab";
pos = (695,0);
}
);
associatedMasterId = m004;
attr = {
coordinates = (
800,
1
);
};
layerId = m005;
name = ExtraBold;
shapes = (
{
closed = 1;
nodes = (
(455,692,l),
(836,692,l),
(880,692,o),
(902,645,o),
(874,610,cs),
(683,382,l)
);
},
{
closed = 1;
nodes = (
(0,340,l),
(-85,255,o),
(-85,84,o),
(0,0,c),
(360,0,l),
(572,0,o),
(657,42,o),
(679,64,c),
(699,42,o),
(785,0,o),
(997,0,cs),
(1323,0,l),
(1323,340,l),
(1025,340,l),
(1015,340,o),
(989,337,o),
(983,329,c),
(1116,479,l),
(1293,691,o),
(1141,1007,o),
(871,1007,cs),
(234,1007,l),
(119,711,l),
(380,332,l),
(374,338,o),
(359,340,o),
(349,340,cs)
);
}
);
width = 1323;
},
{
anchors = (
{
name = "top-arab";
pos = (698,1104);
},
{
name = "bottom-arab";
pos = (699,0);
}
);
associatedMasterId = m004;
attr = {
coordinates = (
1000,
1
);
};
layerId = m006;
name = ExtraBlack;
shapes = (
{
closed = 1;
nodes = (
(566,673,l),
(774,673,l),
(788,673,o),
(791,664,o),
(784,652,c),
(696,524,l)
);
},
{
closed = 1;
nodes = (
(0,500,l),
(-89,369,o),
(-89,129,o),
(0,0,c),
(362,-1,l),
(406,-1,o),
(565,7,o),
(697,116,c),
(828,7,o),
(988,0,o),
(1031,0,cs),
(1305,0,l),
(1305,500,l),
(1183,500,l),
(1179,500,o),
(1168,500,o),
(1152,489,c),
(1170,510,l),
(1362,735,o),
(1168,1133,o),
(827,1133,cs),
(247,1133,l),
(80,697,l),
(226,489,l),
(210,500,o),
(197,500,o),
(193,500,cs)
);
}
);
width = 1305;
}
);
unicode = 65228;
},
{
glyphname = "dotlessfeh-arab";
layers = (
{
anchors = (
{
name = "top-arab";
pos = (1378,860);
},
{
name = "bottom-arab";
pos = (981,0);
}
);
layerId = m004;
shapes = (
{
closed = 1;
nodes = (
(1552,119,c),
(1227.898,123.014,o),
(1072.995,363.331,o),
(1072.995,531.719,cs),
(1072.995,696.463,o),
(1215.593,843.005,o),
(1376.367,843.005,cs),
(1525.156,843.005,o),
(1684,725.793,o),
(1684,511,cs),
(1684,350,o),
(1649,179,o)
);
},
{
closed = 1;
nodes = (
(354.792,60,o),
(231.014,186.912,o),
(231.014,350.583,cs),
(231.014,420.808,o),
(268.334,534.906,o),
(292,624,c),
(234,642,l),
(205.539,531.504,o),
(170.754,423.001,o),
(170.754,345.919,cs),
(170.754,146.839,o),
(326.833,0,o),
(509,0,cs),
(1393,0,l),
(1646,0,o),
(1742,237,o),
(1742,511,cs),
(1742,752.457,o),
(1561.496,900.017,o),
(1374.669,900.017,cs),
(1182.625,900.017,o),
(1014.996,728.867,o),
(1014.996,530.756,cs),
(1014.996,366.71,o),
(1131.722,96.079,o),
(1491,74,c),
(1436,60,o),
(1086,60,o),
(1051,60,cs),
(509,60,l)
);
}
);
width = 1903;
},
{
anchors = (
{
name = "top-arab";
pos = (1405,1029);
},
{
name = "bottom-arab";
pos = (975,0);
}
);
associatedMasterId = m004;
attr = {
coordinates = (
800,
1
);
};
layerId = m005;
name = ExtraBold;
shapes = (
{
closed = 1;
nodes = (
(1482,364,c),
(1311,398,o),
(1248,510,o),
(1247,595,cs),
(1247,674,o),
(1318,748,o),
(1399,748,cs),
(1480,748,o),
(1551,687,o),
(1551,595,cs),
(1551,493,o),
(1527,405,o)
);
},
{
closed = 1;
nodes = (
(482.901,340,o),
(444.049,410.856,o),
(444.049,490.159,cs),
(444.049,514.915,o),
(447.836,540.495,o),
(516.735,773,c),
(197.735,861,l),
(166.538,732.929,o),
(123,589.33,o),
(123,479.882,cs),
(123,205.309,o),
(315.785,0,o),
(577.735,0,cs),
(1442,0,l),
(1645,0,o),
(1857,163,o),
(1857,592,cs),
(1857,853.637,o),
(1661.485,1049.004,o),
(1402.12,1049.004,cs),
(1160.494,1049.004,o),
(951.996,857.27,o),
(951.996,608.778,cs),
(951.996,540.201,o),
(977.058,392.453,o),
(1086,340,c),
(1063,340,o),
(1013,340,o),
(986,340,cs),
(582.735,340,l)
);
}
);
width = 1966;
},
{
anchors = (
{
name = "top-arab";
pos = (1420,1126);
},
{
name = "bottom-arab";
pos = (972,0);
}
);
associatedMasterId = m004;
attr = {
coordinates = (
1000,
1
);
};
layerId = m006;
name = ExtraBlack;
shapes = (
{
closed = 1;
nodes = (
(1441,485,c),
(1358,535,o),
(1337,595,o),
(1337,633,cs),
(1337,662,o),
(1366,693,o),
(1406,693,cs),
(1446,693,o),
(1475,666,o),
(1475,633,cs),
(1475,565,o),
(1456,514,o)
);
},
{
closed = 1;
nodes = (
(571.559,500,o),
(556.029,525.758,o),
(556.029,557.048,cs),
(556.029,585.533,o),
(568.899,618.603,o),
(646,858,c),
(177,986,l),
(137.525,818.891,o),
(96.107,678.816,o),
(96.107,556.529,cs),
(96.107,239.521,o),
(309.724,1.035,o),
(616.998,0.003,cs),
(1470,0,l),
(1644,0,o),
(1922,121,o),
(1922,638,cs),
(1922,911,o),
(1718,1134,o),
(1419,1134,cs),
(1148.58,1134,o),
(915.997,930.872,o),
(915.997,653.783,cs),
(915.997,641.58,o),
(917.514,563.591,o),
(954,500,c),
(942,500,o),
(917,500,o),
(904,500,cs),
(626,500,l)
);
}
);
width = 2002;
}
);
unicode = (1697,2235);
},
{
glyphname = "dotlessfeh-arab.fina";
layers = (
{
anchors = (
{
name = "top-arab";
pos = (1392,814);
},
{
name = "bottom-arab";
pos = (935,0);
}
);
layerId = m004;
shapes = (
{
closed = 1;
nodes = (
(1391,795,cs),
(1560,795,o),
(1700,682,o),
(1700,496,cs),
(1700,248,o),
(1443,89,o),
(1391,62,c),
(1340,89,o),
(1083,248,o),
(1083,496,cs),
(1083,682,o),
(1223,795,o)
);
},
{
closed = 1;
nodes = (
(354.792,60,o),
(231.014,186.912,o),
(231.014,350.583,cs),
(231.014,420.808,o),
(268.334,534.906,o),
(292,624,c),
(234,642,l),
(205.539,531.504,o),
(170.754,423.001,o),
(170.754,345.919,cs),
(170.754,146.839,o),
(326.833,0,o),
(509,0,cs),
(1323,0,l),
(1356,0,o),
(1390,12,o),
(1391,23,c),
(1393,12,o),
(1427,0,o),
(1459,0,cs),
(2003,0,l),
(2003,60,l),
(1490,60,l),
(1586,122,o),
(1759,280,o),
(1759,496,cs),
(1759,712,o),
(1595,854,o),
(1391,854,cs),
(1189,854,o),
(1024,712,o),
(1024,496,cs),
(1024,280,o),
(1196,122,o),
(1293,60,c),
(509,60,l)
);
}
);
width = 2003;
},
{
anchors = (
{
name = "top-arab";
pos = (1417,1016);
},
{
name = "bottom-arab";
pos = (975,0);
}
);
associatedMasterId = m004;
attr = {
coordinates = (
800,
1
);
};
layerId = m005;
name = ExtraBold;
shapes = (
{
closed = 1;
nodes = (
(1417,733,cs),
(1501,733,o),
(1579,677,o),
(1579,581,cs),
(1579,463,o),
(1478,378,o),
(1417,324,c),
(1355,378,o),
(1255,463,o),
(1255,581,cs),
(1255,677,o),
(1333,733,o)
);
},
{
closed = 1;
nodes = (
(483.166,340,o),
(444.314,410.856,o),
(444.314,490.159,cs),
(444.314,514.915,o),
(448.101,540.495,o),
(517,773,c),
(198,861,l),
(166.803,732.929,o),
(123.265,589.33,o),
(123.265,479.882,cs),
(123.265,205.309,o),
(316.05,0,o),
(578,0,cs),
(1097,0,l),
(1310,0,o),
(1395,42,o),
(1417,64,c),
(1437,42,o),
(1523,0,o),
(1735,0,cs),
(2015,0,l),
(2015,340,l),
(1788,340,l),
(1830,393,o),
(1874,497,o),
(1874,585,cs),
(1874,846,o),
(1673,1036,o),
(1417,1036,cs),
(1160,1036,o),
(959,846,o),
(959,585,cs),
(959,497,o),
(1003,393,o),
(1045,340,c),
(583,340,l)
);
}
);
width = 2015;
},
{
anchors = (
{
name = "top-arab";
pos = (1431,1131);
},
{
name = "bottom-arab";
pos = (998,0);
}
);
associatedMasterId = m004;
attr = {
coordinates = (
1000,
1
);
};
layerId = m006;
name = ExtraBlack;
shapes = (
{
closed = 1;
nodes = (
(1432,698,cs),
(1468,698,o),
(1510,674,o),
(1510,629,cs),
(1510,586,o),
(1498,544,o),
(1432,474,c),
(1363,544,o),
(1353,586,o),
(1353,629,cs),
(1353,674,o),
(1395,698,o)
);
},
{
closed = 1;
nodes = (
(571.559,500,o),
(556.029,525.484,o),
(556.029,556.8,cs),
(556.029,585.308,o),
(568.899,618.65,o),
(646,857,c),
(178,987,l),
(142.296,840.151,o),
(95.107,684.53,o),
(95.107,556.529,cs),
(95.107,238.833,o),
(309.653,0,o),
(618,0,cs),
(968,0,l),
(1284,0,o),
(1398,60,o),
(1431,88,c),
(1463,60,o),
(1579,0,o),
(1893,0,cs),
(2022,0,l),
(2022,500,l),
(1927,500,l),
(1939,548,o),
(1940,622,o),
(1940,636,cs),
(1940,922,o),
(1717,1140,o),
(1431,1140,cs),
(1144,1140,o),
(922,922,o),
(922,636,cs),
(922,622,o),
(922,548,o),
(934,500,c),
(626,500,l)
);
}
);
width = 2022;
}
);
},
{
glyphname = "dotlessfeh-arab.init";
layers = (
{
anchors = (
{
name = "top-arab";
pos = (587,860);
},
{
name = "bottom-arab";
pos = (588,0);
}
);
layerId = m004;
shapes = (
{
closed = 1;
nodes = (
(761,119,c),
(437,123,o),
(283,362,o),
(282,530,cs),
(281,696,o),
(425,844,o),
(587,843,cs),
(734,843,o),
(893,725,o),
(893,511,cs),
(893,350,o),
(858,179,o)
);
},
{
closed = 1;
nodes = (
(-80,54,o),
(-80,6,o),
(0,0,c),
(602,0,l),
(855,0,o),
(951,237,o),
(951,511,cs),
(951,751,o),
(770,900,o),
(587,900,cs),
(393,902,o),
(222,729,o),
(224,529,cs),
(225,365,o),
(342,96,o),
(700,74,c),
(645,60,o),
(295,60,o),
(260,60,cs),
(0,60,l)
);
}
);
width = 1112;
},
{
anchors = (
{
name = "top-arab";
pos = (582,1029);
},
{
name = "bottom-arab";
pos = (582,0);
}
);
associatedMasterId = m004;
attr = {
coordinates = (
800,
1
);
};
layerId = m005;
name = ExtraBold;
shapes = (
{
closed = 1;
nodes = (
(660,365,c),
(490,398,o),
(426,510,o),
(426,595,cs),
(426,674,o),
(497,748,o),
(578,748,cs),
(659,748,o),
(730,687,o),
(730,595,cs),
(730,493,o),
(705,405,o)
);
},
{
closed = 1;
nodes = (
(-85,255,o),
(-85,84,o),
(0,0,c),
(620,0,l),
(823,0,o),
(1035,163,o),
(1035,592,cs),
(1035,853,o),
(839,1049,o),
(583,1049,cs),
(340,1050,o),
(129,857,o),
(130,607,cs),
(130,539,o),
(156,392,o),
(264,340,c),
(227,340,o),
(150,340,o),
(137,340,cs),
(0,340,l)
);
}
);
width = 1143;
},
{
anchors = (
{
name = "top-arab";
pos = (579,1126);
},
{
name = "bottom-arab";
pos = (578,0);
}
);
associatedMasterId = m004;
attr = {
coordinates = (
1000,
1
);
};
layerId = m006;
name = ExtraBlack;
shapes = (
{
closed = 1;
nodes = (
(602,485,c),
(519,535,o),
(498,595,o),
(498,633,cs),
(498,662,o),
(527,693,o),
(567,693,cs),
(607,693,o),
(636,666,o),
(636,633,cs),
(636,565,o),
(617,514,o)
);
},
{
closed = 1;
nodes = (
(-89,369,o),
(-89,129,o),
(0,0,c),
(630,0,l),
(805,0,o),
(1082,121,o),
(1082,638,cs),
(1082,912,o),
(878,1134,o),
(579,1134,cs),
(309,1134,o),
(76,930,o),
(76,651,cs),
(76,628,o),
(79,561,o),
(114,500,c),
(87,500,o),
(66,500,o),
(66,500,c),
(0,500,l)
);
}
);
width = 1161;
}
);
},
{
glyphname = "dotlessfeh-arab.medi";
layers = (
{
anchors = (
{
name = "top-arab";
pos = (592,814);
},
{
name = "bottom-arab";
pos = (592,0);
}
);
layerId = m004;
shapes = (
{
closed = 1;
nodes = (
(592,795,cs),
(761,795,o),
(901,682,o),
(901,496,cs),
(901,248,o),
(643,89,o),
(592,62,c),
(541,89,o),
(284,248,o),
(284,496,cs),
(284,682,o),
(424,795,o)
);
},
{
closed = 1;
nodes = (
(0,60,l),
(-80,54,o),
(-80,6,o),
(0,0,c),
(524,0,l),
(557,0,o),
(591,12,o),
(592,23,c),
(594,12,o),
(627,0,o),
(660,0,cs),
(1204,0,l),
(1204,60,l),
(691,60,l),
(787,122,o),
(959,280,o),
(959,496,cs),
(959,712,o),
(796,854,o),
(592,854,cs),
(389,854,o),
(225,712,o),
(225,496,cs),
(225,280,o),
(397,122,o),
(493,60,c)
);
}
);
width = 1204;
},
{
anchors = (
{
name = "top-arab";
pos = (588,1016);
},
{
name = "bottom-arab";
pos = (588,0);
}
);
associatedMasterId = m004;
attr = {
coordinates = (
800,
1
);
};
layerId = m005;
name = ExtraBold;
shapes = (
{
closed = 1;
nodes = (
(588,733,cs),
(673,733,o),
(750,677,o),
(750,581,cs),
(750,463,o),
(649,378,o),
(588,324,c),
(526,378,o),
(426,463,o),
(426,581,cs),
(426,677,o),
(504,733,o)
);
},
{
closed = 1;
nodes = (
(0,340,l),
(-86,255,o),
(-86,84,o),
(0,0,c),
(270,0,l),
(482,0,o),
(567,42,o),
(588,64,c),
(610,42,o),
(695,0,o),
(907,0,cs),
(1187,0,l),
(1187,340,l),
(960,340,l),
(1001,393,o),
(1045,497,o),
(1045,585,cs),
(1045,846,o),
(844,1036,o),
(588,1036,cs),
(332,1036,o),
(132,846,o),
(132,585,cs),
(132,497,o),
(175,393,o),
(217,340,c)
);
}
);
width = 1187;
},
{
anchors = (
{
name = "top-arab";
pos = (586,1131);
},
{
name = "bottom-arab";
pos = (586,0);
}
);
associatedMasterId = m004;
attr = {
coordinates = (
1000,
1
);
};
layerId = m006;
name = ExtraBlack;
shapes = (
{
closed = 1;
nodes = (
(586,697,cs),
(623,697,o),
(665,674,o),
(665,629,cs),
(665,585,o),
(653,544,o),
(586,473,c),
(518,544,o),
(508,585,o),
(508,629,cs),
(508,674,o),
(550,697,o)
);
},
{
closed = 1;
nodes = (
(0,500,l),
(-89,369,o),
(-89,129,o),
(0,0,c),
(124,0,l),
(439,0,o),
(553,60,o),
(586,88,c),
(619,60,o),
(734,0,o),
(1048,0,cs),
(1177,0,l),
(1177,500,l),
(1084,500,l),
(1094,548,o),
(1094,622,o),
(1094,636,cs),
(1094,922,o),
(872,1140,o),
(586,1140,cs),
(299,1140,o),
(78,922,o),
(78,636,cs),
(78,622,o),
(77,548,o),
(89,500,c)
);
}
);
width = 1177;
}
);
},
{
glyphname = "dotlessqaf-arab";
layers = (
{
anchors = (
{
name = "top-arab";
pos = (1122,726);
},
{
name = "bottom-arab";
pos = (782,-551);
}
);
layerId = m004;
shapes = (
{
closed = 1;
nodes = (
(1414,373,l),
(1414,507,o),
(1271,708,o),
(1122,708,qs),
(989,708,o),
(829,522,o),
(829,373,qs),
(829,217,o),
(976,60,o),
(1122,60,qs),
(1414,60,l)
);
},
{
closed = 1;
nodes = (
(1412,0,q),
(1122,0,l),
(951,0,o),
(770,189,o),
(770,373,qs),
(770,497,o),
(862,669,o),
(1017,766,o),
(1122,766,qs),
(1279,766,o),
(1473,549,o),
(1473,373,qs),
(1473,56,l),
(1474,-126,o),
(1330,-382,o),
(1091,-519,o),
(953,-529,qs),
(698,-549,l),
(479,-567,o),
(261,-393,o),
(157,-131,o),
(157,17,qs),
(157,164,o),
(236,393,o),
(266,470,q),
(323,445,l),
(295,384,o),
(216,157,o),
(216,20,qs),
(216,-176,o),
(425,-507,o),
(698,-489,qs),
(953,-469,l),
(1077,-459,o),
(1286,-340,o),
(1402,-136,o)
);
}
);
width = 1644;
},
{
anchors = (
{
name = "top-arab";
pos = (1199,955);
},
{
name = "bottom-arab";
pos = (902,-539);
}
);
associatedMasterId = m004;
attr = {
coordinates = (
800,
1
);
};
layerId = m005;
name = ExtraBold;
shapes = (
{
closed = 1;
nodes = (
(1346,472,l),
(1346,552,o),
(1284,670,o),
(1199,670,qs),
(1111,670,o),
(1044,544,o),
(1044,472,qs),
(1044,397,o),
(1104,337,o),
(1199,337,qs),
(1346,337,l)
);
},
{
closed = 1;
nodes = (
(1308,0,q),
(1159,0,l),
(927,0,o),
(737,247,o),
(737,476,qs),
(737,616,o),
(859,844,o),
(1071,975,o),
(1199,975,qs),
(1397,975,o),
(1641,694,o),
(1641,476,qs),
(1641,0,l),
(1641,-113,o),
(1494,-366,o),
(1214,-529,o),
(1022,-539,qs),
(774,-548,l),
(560,-558,o),
(270,-366,o),
(110,-65,o),
(110,64,qs),
(111,241,o),
(162,506,o),
(220,667,q),
(512,549,l),
(484,462,o),
(428,235,o),
(428,108,qs),
(430,-34,o),
(573,-218,o),
(774,-208,qs),
(1022,-199,l),
(1132,-195,o),
(1251,-137,o),
(1308,-41,o)
);
}
);
width = 1773;
},
{
anchors = (
{
name = "top-arab";
pos = (1243,1086);
},
{
name = "bottom-arab";
pos = (971,-532);
}
);
associatedMasterId = m004;
attr = {
coordinates = (
1000,
1
);
};
layerId = m006;
name = ExtraBlack;
shapes = (
{
closed = 1;
nodes = (
(1307,528,l),
(1307,578,o),
(1291,648,o),
(1243,648,qs),
(1181,648,o),
(1166,557,o),
(1166,528,qs),
(1166,500,o),
(1177,495,o),
(1243,495,qs),
(1307,495,l)
);
},
{
closed = 1;
nodes = (
(1249,0,q),
(1181,0,l),
(913,0,o),
(718,280,o),
(718,534,qs),
(718,684,o),
(857,944,o),
(1101,1094,o),
(1244,1094,qs),
(1464,1094,o),
(1737,776,o),
(1737,534,qs),
(1737,-32,l),
(1737,-106,o),
(1587,-357,o),
(1284,-543,o),
(1062,-545,qs),
(817,-548,l),
(606,-553,o),
(276,-401,o),
(83,-57,o),
(83,92,qs),
(85,285,o),
(120,570,o),
(194,780,q),
(621,609,l),
(592,507,o),
(549,279,o),
(550,158,qs),
(552,47,o),
(657,-53,o),
(817,-48,qs),
(1062,-45,l),
(1164,-44,o),
(1231,-21,o),
(1254,14,o)
);
}
);
width = 1847;
}
);
unicode = (1647,2236);
},
{
glyphname = uniE014;
layers = (
{
anchors = (
{
name = "top-arab";
pos = (1122,726);
},
{
name = "bottom-arab";
pos = (783,-551);
}
);
layerId = m004;
shapes = (
{
closed = 1;
nodes = (
(1414,373,l),
(1414,507,o),
(1271,708,o),
(1122,708,qs),
(989,708,o),
(829,522,o),
(829,373,qs),
(829,217,o),
(976,60,o),
(1122,60,qs),
(1414,60,l)
);
},
{
closed = 1;
nodes = (
(1473,60,l),
(1765,60,l),
(1765,0,l),
(1471,0,l),
(1462,-146,o),
(1330,-382,o),
(1091,-519,o),
(953,-529,qs),
(698,-549,l),
(479,-567,o),
(261,-393,o),
(157,-131,o),
(157,17,qs),
(157,164,o),
(236,393,o),
(266,470,q),
(323,445,l),
(295,384,o),
(216,157,o),
(216,20,qs),
(216,-176,o),
(425,-507,o),
(698,-489,qs),
(953,-469,l),
(1077,-459,o),
(1286,-340,o),
(1402,-136,o),
(1412,0,q),
(1122,0,l),
(951,0,o),
(770,189,o),
(770,373,qs),
(770,497,o),
(862,669,o),
(1017,766,o),
(1122,766,qs),
(1279,766,o),
(1473,549,o),
(1473,373,qs)
);
}
);
width = 1765;
},
{
anchors = (
{
name = "top-arab";
pos = (1199,955);
},
{
name = "bottom-arab";
pos = (902,-539);
}
);
associatedMasterId = m004;
attr = {
coordinates = (
800,
1
);
};
layerId = m005;
name = ExtraBold;
shapes = (
{
closed = 1;
nodes = (
(1346,472,l),
(1346,552,o),
(1284,670,o),
(1199,670,qs),
(1111,670,o),
(1044,544,o),
(1044,472,qs),
(1044,397,o),
(1104,337,o),
(1199,337,qs),
(1346,337,l)
);
},
{
closed = 1;
nodes = (
(1641,340,l),
(1818,340,l),
(1818,0,l),
(1641,0,l),
(1641,-113,o),
(1494,-366,o),
(1214,-529,o),
(1022,-539,qs),
(774,-548,l),
(560,-558,o),
(270,-366,o),
(110,-65,o),
(110,64,qs),
(111,241,o),
(162,506,o),
(220,667,q),
(512,549,l),
(484,462,o),
(428,235,o),
(428,108,qs),
(430,-34,o),
(573,-218,o),
(774,-208,qs),
(1022,-199,l),
(1132,-195,o),
(1251,-137,o),
(1308,-41,o),
(1308,0,q),
(1159,0,l),
(927,0,o),
(737,247,o),
(737,476,qs),
(737,616,o),
(859,844,o),
(1071,975,o),
(1199,975,qs),
(1397,975,o),
(1641,694,o),
(1641,476,qs)
);
}
);
width = 1818;
},
{
anchors = (
{
name = "top-arab";
pos = (1243,1086);
},
{
name = "bottom-arab";
pos = (970,-532);
}
);
associatedMasterId = m004;
attr = {
coordinates = (
1000,
1
);
};
layerId = m006;
name = ExtraBlack;
shapes = (
{
closed = 1;
nodes = (
(1307,528,l),
(1307,578,o),
(1291,648,o),
(1243,648,qs),
(1181,648,o),
(1166,557,o),
(1166,528,qs),
(1166,500,o),
(1177,495,o),
(1243,495,qs),
(1307,495,l)
);
},
{
closed = 1;
nodes = (
(1737,500,l),
(1848,500,l),
(1848,0,l),
(1738,0,l),
(1743,-94,o),
(1587,-357,o),
(1284,-543,o),
(1062,-545,qs),
(817,-548,l),
(606,-553,o),
(276,-401,o),
(83,-57,o),
(83,92,qs),
(85,285,o),
(120,570,o),
(194,780,q),
(621,609,l),
(592,507,o),
(549,279,o),
(550,158,qs),
(552,47,o),
(657,-53,o),
(817,-48,qs),
(1062,-45,l),
(1164,-44,o),
(1231,-21,o),
(1254,14,o),
(1249,0,q),
(1181,0,l),
(913,0,o),
(718,280,o),
(718,534,qs),
(718,684,o),
(857,944,o),
(1101,1094,o),
(1244,1094,qs),
(1464,1094,o),
(1737,776,o),
(1737,534,qs)
);
}
);
width = 1849;
}
);
},
{
glyphname = "keheh-arab";
layers = (
{
anchors = (
{
name = "top-arab";
pos = (477,632);
},
{
name = "bottom-arab";
pos = (945,0);
}
);
layerId = m004;
shapes = (
{
closed = 1;
nodes = (
(509,60,l),
(330,60,o),
(192,231,o),
(241,432,cs),
(292,624,l),
(234,642,l),
(183,444,l),
(122,197,o),
(298,0,o),
(509,0,cs),
(1431,0,l),
(1667,0,o),
(1786,284,o),
(1625,452,cs),
(1007,1098,l),
(1729,1392,l),
(1708,1448,l),
(945,1137,l),
(945,1078,l),
(1581,414,l),
(1709,281,o),
(1612,60,o),
(1430,60,cs)
);
}
);
width = 1880;
},
{
anchors = (
{
name = "top-arab";
pos = (542,796);
},
{
name = "bottom-arab";
pos = (972,0);
}
);
associatedMasterId = m004;
attr = {
coordinates = (
800,
1
);
};
layerId = m005;
name = ExtraBold;
shapes = (
{
closed = 1;
nodes = (
(583,340,l),
(452,340,o),
(426,462,o),
(455,565,cs),
(517,773,l),
(198,861,l),
(141,627,l),
(59,282,o),
(271,0,o),
(578,0,cs),
(1460,0,l),
(1791,0,o),
(1961,397,o),
(1733,635,cs),
(1300,1086,l),
(1910,1331,l),
(1808,1619,l),
(963,1288,l),
(963,979,l),
(1482,437,l),
(1516,400,o),
(1495,340,o),
(1440,340,cs)
);
}
);
width = 1954;
},
{
anchors = (
{
name = "top-arab";
pos = (579,890);
},
{
name = "bottom-arab";
pos = (976,0);
}
);
associatedMasterId = m004;
attr = {
coordinates = (
1000,
1
);
};
layerId = m006;
name = ExtraBlack;
shapes = (
{
closed = 1;
nodes = (
(626,500,l),
(522,500,o),
(559,593,o),
(577,642,c),
(646,857,l),
(177,987,l),
(116,732,l),
(22,331,o),
(255,0,o),
(618,0,cs),
(1454,0,l),
(1839,0,o),
(2038,461,o),
(1772,740,cs),
(1445,1079,l),
(1991,1296,l),
(1842,1717,l),
(950,1374,l),
(950,922,l),
(1332,525,l),
(1348,509,o),
(1338,500,o),
(1318,500,cs)
);
}
);
width = 1973;
}
);
unicode = (1705,64398);
},
{
glyphname = "keheh-arab.fina";
layers = (
{
anchors = (
{
name = "top-arab";
pos = (477,632);
},
{
name = "bottom-arab";
pos = (945,0);
}
);
layerId = m004;
shapes = (
{
closed = 1;
nodes = (
(509,60,l),
(330,60,o),
(192,231,o),
(241,432,cs),
(292,624,l),
(234,642,l),
(183,444,l),
(122,197,o),
(298,0,o),
(509,0,cs),
(1424,0,l),
(1600,0,o),
(1710,156,o),
(1687,302,c),
(1895,83,l),
(1947,30,o),
(2017,0,o),
(2090,0,cs),
(2140,0,l),
(2140,60,l),
(2090,60,l),
(2032,60,o),
(1977,84,o),
(1937,125,cs),
(1007,1098,l),
(1729,1392,l),
(1708,1448,l),
(945,1137,l),
(945,1078,l),
(1590,405,l),
(1705,271,o),
(1608,60,o),
(1430,60,cs)
);
}
);
width = 2140;
},
{
anchors = (
{
name = "top-arab";
pos = (542,796);
},
{
name = "bottom-arab";
pos = (972,0);
}
);
associatedMasterId = m004;
attr = {
coordinates = (
800,
1
);
};
layerId = m005;
name = ExtraBold;
shapes = (
{
closed = 1;
nodes = (
(583,340,l),
(452,340,o),
(426,462,o),
(455,565,cs),
(517,773,l),
(198,861,l),
(141,627,l),
(59,282,o),
(271,0,o),
(578,0,cs),
(1354,0,l),
(1544,0,o),
(1664,75,o),
(1727,180,c),
(1786,117,l),
(1859,42,o),
(1956,0,o),
(2059,0,cs),
(2059,0,l),
(2059,340,l),
(2059,340,l),
(2034,340,o),
(2009,344,o),
(1995,358,cs),
(1300,1086,l),
(1910,1331,l),
(1808,1619,l),
(963,1288,l),
(963,979,l),
(1482,437,l),
(1516,400,o),
(1495,340,o),
(1440,340,cs)
);
}
);
width = 2059;
},
{
anchors = (
{
name = "top-arab";
pos = (579,890);
},
{
name = "bottom-arab";
pos = (976,0);
}
);
associatedMasterId = m004;
attr = {
coordinates = (
1000,
1
);
};
layerId = m006;
name = ExtraBlack;
shapes = (
{
closed = 1;
nodes = (
(626,500,l),
(522,500,o),
(560,593,o),
(577,642,cs),
(646,857,l),
(178,987,l),
(116,732,l),
(22,331,o),
(255,0,o),
(618,0,cs),
(1291,0,l),
(1489,0,o),
(1614,28,o),
(1728,111,c),
(1731.641,107.73,l),
(1811.552,38.205,o),
(1912.157,0,o),
(2019,0,cs),
(2021,0,l),
(2021,500,l),
(2019,500,l),
(2012,500,o),
(1997.736,499.902,o),
(1987.789,510.088,cs),
(1445,1079,l),
(1991,1296,l),
(1842,1717,l),
(950,1374,l),
(950,922,l),
(1332,525,l),
(1348,509,o),
(1338,500,o),
(1318,500,cs)
);
}
);
width = 2021;
}
);
unicode = 64399;
},
{
glyphname = "keheh-arab.init";
layers = (
{
anchors = (
{
name = "top-arab";
pos = (200,1301);
},
{
name = "bottom-arab";
pos = (320,0);
}
);
layerId = m004;
shapes = (
{
closed = 1;
nodes = (
(0,60,l),
(-80,54,o),
(-80,6,o),
(0,0,c),
(530,0,l),
(765,0,o),
(884,284,o),
(723,452,cs),
(105,1098,l),
(827,1392,l),
(807,1448,l),
(43,1137,l),
(43,1078,l),
(679,414,l),
(807,281,o),
(710,60,o),
(528,60,cs)
);
}
);
width = 978;
},
{
anchors = (
{
name = "top-arab";
pos = (270,1335);
},
{
name = "bottom-arab";
pos = (490,0);
}
);
associatedMasterId = m004;
attr = {
coordinates = (
800,
1
);
};
layerId = m005;
name = ExtraBold;
shapes = (
{
closed = 1;
nodes = (
(0,340,l),
(-85,255,o),
(-85,84,o),
(0,0,c),
(562,0,l),
(893,0,o),
(1063,397,o),
(835,635,cs),
(402,1086,l),
(1011,1331,l),
(909,1619,l),
(65,1288,l),
(65,979,l),
(583,437,l),
(617,400,o),
(597,340,o),
(542,340,cs)
);
}
);
width = 1055;
},
{
anchors = (
{
name = "top-arab";
pos = (310,1354);
},
{
name = "bottom-arab";
pos = (587,0);
}
);
associatedMasterId = m004;
attr = {
coordinates = (
1000,
1
);
};
layerId = m006;
name = ExtraBlack;
shapes = (
{
closed = 1;
nodes = (
(0,500,l),
(-89,369,o),
(-89,129,o),
(0,0,c),
(580,0,l),
(965,0,o),
(1165,461,o),
(899,740,cs),
(571,1079,l),
(1116,1296,l),
(967,1717,l),
(77,1374,l),
(77,922,l),
(461,525,l),
(477,509,o),
(467,500,o),
(447,500,cs)
);
}
);
width = 1099;
}
);
unicode = 64400;
},
{
glyphname = "keheh-arab.medi";
layers = (
{
anchors = (
{
name = "top-arab";
pos = (200,1301);
},
{
name = "bottom-arab";
pos = (320,0);
}
);
layerId = m004;
shapes = (
{
closed = 1;
nodes = (
(0,60,l),
(-80,54,o),
(-80,6,o),
(0,0,c),
(523,0,l),
(699,0,o),
(808,156,o),
(785,302,c),
(994,83,l),
(1045,30,o),
(1115,0,o),
(1188,0,cs),
(1247,0,l),
(1247,60,l),
(1188,60,l),
(1131,60,o),
(1075,84,o),
(1036,125,cs),
(105,1098,l),
(827,1392,l),
(807,1448,l),
(43,1137,l),
(43,1078,l),
(688,405,l),
(803,271,o),
(706,60,o),
(528,60,cs)
);
}
);
width = 1247;
},
{
anchors = (
{
name = "top-arab";
pos = (270,1335);
},
{
name = "bottom-arab";
pos = (490,0);
}
);
associatedMasterId = m004;
attr = {
coordinates = (
800,
1
);
};
layerId = m005;
name = ExtraBold;
shapes = (
{
closed = 1;
nodes = (
(0,340,l),
(-85,255,o),
(-85,84,o),
(0,0,c),
(456,0,l),
(646,0,o),
(765,75,o),
(828,180,c),
(888,117,l),
(960,42,o),
(1058,0,o),
(1161,0,cs),
(1161,0,l),
(1161,340,l),
(1161,340,l),
(1135,340,o),
(1111,344,o),
(1097,358,cs),
(402,1086,l),
(1011,1331,l),
(909,1619,l),
(65,1288,l),
(65,979,l),
(584,437,l),
(617,400,o),
(597,340,o),
(542,340,cs)
);
}
);
width = 1161;
},
{
anchors = (
{
name = "top-arab";
pos = (310,1354);
},
{
name = "bottom-arab";
pos = (587,0);
}
);
associatedMasterId = m004;
attr = {
coordinates = (
1000,
1
);
};
layerId = m006;
name = ExtraBlack;
shapes = (
{
closed = 1;
nodes = (
(0,500,l),
(-89,369,o),
(-89,129,o),
(0,0,c),
(418,0,l),
(615,0,o),
(741,28,o),
(854,111,c),
(857.626,108.01,l),
(938.268,38.308,o),
(1038.898,0,o),
(1145,0,cs),
(1152,0,l),
(1152,500,l),
(1145,500,l),
(1138,500,o),
(1123.871,500.002,o),
(1113.871,510.002,cs),
(571,1079,l),
(1116,1296,l),
(967,1717,l),
(77,1374,l),
(77,922,l),
(461,525,l),
(477,509,o),
(467,500,o),
(447,500,cs)
);
}
);
width = 1152;
}
);
unicode = 64401;
},
{
glyphname = uniE021;
layers = (
{
layerId = m004;
shapes = (
{
closed = 1;
nodes = (
(1685,329,l),
(1685,180,o),
(1565,60,o),
(1416,60,cs),
(509,60,l),
(354.792,60,o),
(231.014,186.912,o),
(231.014,350.583,cs),
(231.014,420.808,o),
(268.334,534.906,o),
(292,624,c),
(234,642,l),
(205.539,531.504,o),
(170.754,423.001,o),
(170.754,345.919,cs),
(170.754,146.839,o),
(326.833,0,o),
(509,0,cs),
(1416,0,l),
(1597,0,o),
(1743,146,o),
(1743,326,cs),
(1743,1513,l),
(1684,1513,l)
);
}
);
width = 1964;
},
{
associatedMasterId = m004;
attr = {
coordinates = (
800,
1
);
};
layerId = m005;
name = ExtraBold;
shapes = (
{
closed = 1;
nodes = (
(1411,451,l),
(1411,390,o),
(1360,340,o),
(1300,340,cs),
(583,340,l),
(483.166,340,o),
(444.314,410.856,o),
(444.314,490.159,cs),
(444.314,514.915,o),
(448.101,540.495,o),
(517,773,c),
(198,861,l),
(166.803,732.929,o),
(123.265,589.33,o),
(123.265,479.882,cs),
(123.265,205.309,o),
(316.05,0,o),
(578,0,cs),
(1300,0,l),
(1536,0,o),
(1729,182,o),
(1729,409,cs),
(1729,1504,l),
(1411,1504,l)
);
}
);
width = 1865;
},
{
associatedMasterId = m004;
attr = {
coordinates = (
1000,
1
);
};
layerId = m006;
name = ExtraBlack;
shapes = (
{
closed = 1;
nodes = (
(1354,521,l),
(1354,509,o),
(1344,500,o),
(1333,500,cs),
(626,500,l),
(571.559,500,o),
(556.029,525.484,o),
(556.029,556.8,cs),
(556.029,585.308,o),
(568.899,618.65,o),
(646,857,c),
(178,987,l),
(142.296,840.151,o),
(95.107,684.53,o),
(95.107,556.529,cs),
(95.107,238.833,o),
(309.653,0,o),
(618,0,cs),
(1333,0,l),
(1602,0,o),
(1821,203,o),
(1821,457,cs),
(1821,1499,l),
(1354,1499,l)
);
}
);
width = 1909;
}
);
unicode = 57377;
},
{
glyphname = uniE022;
layers = (
{
layerId = m004;
shapes = (
{
closed = 1;
nodes = (
(1685,1513,l),
(1685,329,l),
(1685,180,o),
(1565,60,o),
(1416,60,cs),
(509,60,l),
(354.792,60,o),
(231.014,186.912,o),
(231.014,350.583,cs),
(231.014,420.808,o),
(268.334,534.906,o),
(292,624,c),
(234,642,l),
(205.539,531.504,o),
(170.754,423.001,o),
(170.754,345.919,cs),
(170.754,146.839,o),
(326.833,0,o),
(509,0,cs),
(1416,0,l),
(1553,0,o),
(1668,84,o),
(1714,203,c),
(1761,84,o),
(1875,0,o),
(2012,0,cs),
(2084,0,l),
(2084,60,l),
(2012,60,l),
(1864,60,o),
(1744,180,o),
(1744,329,cs),
(1744,1513,l)
);
}
);
width = 2084;
},
{
associatedMasterId = m004;
attr = {
coordinates = (
800,
1
);
};
layerId = m005;
name = ExtraBold;
shapes = (
{
closed = 1;
nodes = (
(1411,1504,l),
(1411,451,l),
(1411,390,o),
(1360,340,o),
(1300,340,cs),
(583,340,l),
(483.166,340,o),
(444.314,410.856,o),
(444.314,490.159,cs),
(444.314,514.915,o),
(448.101,540.495,o),
(517,773,c),
(198,861,l),
(166.803,732.929,o),
(123.265,589.33,o),
(123.265,479.882,cs),
(123.265,205.309,o),
(316.05,0,o),
(578,0,cs),
(1300,0,l),
(1422,0,o),
(1505,52,o),
(1570,134,c),
(1636,52,o),
(1718,0,o),
(1841,0,cs),
(1916,0,l),
(1916,340,l),
(1841,340,l),
(1779,340,o),
(1729,390,o),
(1729,451,cs),
(1729,1504,l)
);
}
);
width = 1916;
},
{
associatedMasterId = m004;
attr = {
coordinates = (
1000,
1
);
};
layerId = m006;
name = ExtraBlack;
shapes = (
{
closed = 1;
nodes = (
(1354,1499,l),
(1354,521,l),
(1354,509,o),
(1343,500,o),
(1333,500,cs),
(626,500,l),
(571.559,500,o),
(556.029,525.484,o),
(556.029,556.8,cs),
(556.029,585.308,o),
(568.899,618.65,o),
(646,857,c),
(178,987,l),
(142.296,840.151,o),
(95.107,684.53,o),
(95.107,556.529,cs),
(95.107,238.833,o),
(309.653,0,o),
(618,0,cs),
(1333,0,l),
(1447,0,o),
(1511,33,o),
(1588,95,c),
(1664,33,o),
(1729,0,o),
(1843,0,cs),
(1919,0,l),
(1919,500,l),
(1843,500,l),
(1830,500,o),
(1821,509,o),
(1821,521,cs),
(1821,1499,l)
);
}
);
width = 1919;
}
);
unicode = 57378;
},
{
glyphname = "lam-arab";
layers = (
{
anchors = (
{
name = "top-arab";
pos = (600,468);
},
{
name = "bottom-arab";
pos = (714,-551);
}
);
layerId = m004;
shapes = (
{
closed = 1;
nodes = (
(1315,1433,l),
(1373,1433,l),
(1373,44,l),
(1374,-138,o),
(1230,-394,o),
(991,-531,o),
(853,-541,qs),
(698,-551,l),
(479,-561,o),
(261,-395,o),
(157,-133,o),
(157,15,qs),
(157,162,o),
(236,391,o),
(266,468,q),
(323,443,l),
(295,382,o),
(216,155,o),
(216,18,qs),
(216,-178,o),
(425,-509,o),
(698,-491,qs),
(853,-481,l),
(977,-471,o),
(1186,-352,o),
(1313,-129,o),
(1313,47,qs)
);
}
);
width = 1614;
},
{
anchors = (
{
name = "top-arab";
pos = (470,567);
},
{
name = "bottom-arab";
pos = (817,-539);
}
);
associatedMasterId = m004;
attr = {
coordinates = (
800,
1
);
};
layerId = m005;
name = ExtraBold;
shapes = (
{
closed = 1;
nodes = (
(1195,1524,l),
(1513,1524,l),
(1513,80,l),
(1512,-73,o),
(1364,-346,o),
(1084,-529,o),
(892,-539,qs),
(774,-548,l),
(560,-558,o),
(270,-366,o),
(110,-65,o),
(110,64,qs),
(111,241,o),
(162,506,o),
(220,667,q),
(512,549,l),
(484,462,o),
(428,235,o),
(428,108,qs),
(430,-34,o),
(573,-225,o),
(774,-208,qs),
(892,-199,l),
(992,-192,o),
(1116,-113,o),
(1196,17,o),
(1196,116,qs)
);
}
);
width = 1670;
},
{
anchors = (
{
name = "top-arab";
pos = (396,624);
},
{
name = "bottom-arab";
pos = (876,-532);
}
);
associatedMasterId = m004;
attr = {
coordinates = (
1000,
1
);
};
layerId = m006;
name = ExtraBlack;
shapes = (
{
closed = 1;
nodes = (
(1126,1546,l),
(1592,1546,l),
(1593,101,l),
(1590,-36,o),
(1440,-318,o),
(1137,-518,o),
(915,-538,qs),
(817,-546,l),
(606,-566,o),
(276,-399,o),
(83,-56,o),
(83,93,qs),
(85,286,o),
(120,571,o),
(194,781,q),
(621,610,l),
(592,509,o),
(549,280,o),
(550,159,qs),
(552,48,o),
(657,-63,o),
(817,-46,qs),
(915,-38,l),
(1001,-33,o),
(1076,23,o),
(1129,100,o),
(1129,156,qs)
);
}
);
width = 1715;
}
);
unicode = (1604,65245);
},
{
glyphname = "lam-arab.fina";
layers = (
{
anchors = (
{
name = "top-arab";
pos = (600,468);
},
{
name = "bottom-arab";
pos = (714,-551);
}
);
layerId = m004;
shapes = (
{
closed = 1;
nodes = (
(1373,313,l),
(1378,211,o),
(1530,59,o),
(1641,59,qs),
(1714,59,l),
(1714,-1,l),
(1641,-1,l),
(1556,-1,o),
(1414,85,o),
(1373,156,q),
(1373,44,l),
(1374,-138,o),
(1230,-394,o),
(991,-531,o),
(853,-541,qs),
(698,-551,l),
(479,-561,o),
(261,-395,o),
(157,-133,o),
(157,15,qs),
(157,162,o),
(236,391,o),
(266,468,q),
(323,443,l),
(295,382,o),
(216,155,o),
(216,18,qs),
(216,-178,o),
(425,-509,o),
(698,-491,qs),
(853,-481,l),
(977,-471,o),
(1186,-352,o),
(1313,-129,o),
(1313,47,qs),
(1315,1433,l),
(1373,1433,l)
);
}
);
width = 1714;
},
{
anchors = (
{
name = "top-arab";
pos = (470,567);
},
{
name = "bottom-arab";
pos = (817,-539);
}
);
associatedMasterId = m004;
attr = {
coordinates = (
800,
1
);
};
layerId = m005;
name = ExtraBold;
shapes = (
{
closed = 1;
nodes = (
(1514,450,l),
(1514,404,o),
(1580,339,o),
(1625,339,qs),
(1700,339,l),
(1700,-1,l),
(1625,-1,l),
(1597,-1,o),
(1529,31,o),
(1512,50,q),
(1512,49,l),
(1504,-87,o),
(1364,-346,o),
(1084,-529,o),
(892,-539,qs),
(774,-548,l),
(560,-558,o),
(270,-366,o),
(110,-65,o),
(110,64,qs),
(111,241,o),
(162,506,o),
(220,667,q),
(512,549,l),
(484,462,o),
(428,235,o),
(428,108,qs),
(430,-34,o),
(573,-225,o),
(774,-208,qs),
(892,-199,l),
(992,-192,o),
(1116,-113,o),
(1196,17,o),
(1196,116,qs),
(1195,1524,l),
(1513,1524,l)
);
}
);
width = 1700;
},
{
anchors = (
{
name = "top-arab";
pos = (396,624);
},
{
name = "bottom-arab";
pos = (876,-532);
}
);
associatedMasterId = m004;
attr = {
coordinates = (
1000,
1
);
};
layerId = m006;
name = ExtraBlack;
shapes = (
{
closed = 1;
nodes = (
(1595,529,l),
(1592,515,o),
(1608,499,o),
(1616,499,qs),
(1692,499,l),
(1692,0,l),
(1616,0,l),
(1610,0,o),
(1597,4,o),
(1592,12,qs),
(1592,12,l),
(1579,-78,o),
(1440,-318,o),
(1137,-518,o),
(915,-538,qs),
(817,-546,l),
(606,-566,o),
(276,-399,o),
(83,-56,o),
(83,93,qs),
(85,286,o),
(120,571,o),
(194,781,q),
(621,610,l),
(592,509,o),
(549,280,o),
(550,159,qs),
(552,48,o),
(657,-63,o),
(817,-46,qs),
(915,-38,l),
(1001,-33,o),
(1076,23,o),
(1129,100,o),
(1129,156,qs),
(1126,1546,l),
(1592,1546,l)
);
}
);
width = 1692;
}
);
unicode = 65246;
},
{
glyphname = "lam-arab.init";
layers = (
{
anchors = (
{
name = "top-arab";
pos = (381,1433);
},
{
name = "bottom-arab";
pos = (287,50);
}
);
layerId = m004;
shapes = (
{
closed = 1;
nodes = (
(0,60,l),
(-80,54,o),
(-80,6,o),
(0,0,c),
(83,0,l),
(264,0,o),
(410,146,o),
(410,327,cs),
(410,1433,l),
(352,1433,l),
(352,329,l),
(352,180,o),
(232,60,o),
(83,60,cs)
);
}
);
width = 651;
},
{
anchors = (
{
name = "top-arab";
pos = (379,1524);
},
{
name = "bottom-arab";
pos = (377,92);
}
);
associatedMasterId = m004;
attr = {
coordinates = (
800,
1
);
};
layerId = m005;
name = ExtraBold;
shapes = (
{
closed = 1;
nodes = (
(0,340,l),
(-85,255,o),
(-85,84,o),
(0,0,c),
(109,0,l),
(346,0,o),
(538,192,o),
(538,430,cs),
(539,1524,l),
(221,1524,l),
(220,451,l),
(220,390,o),
(170,340,o),
(109,340,cs)
);
}
);
width = 695;
},
{
anchors = (
{
name = "top-arab";
pos = (372,1517);
},
{
name = "bottom-arab";
pos = (423,116);
}
);
associatedMasterId = m004;
attr = {
coordinates = (
1000,
1
);
};
layerId = m006;
name = ExtraBlack;
shapes = (
{
closed = 1;
nodes = (
(0,500,l),
(-89,369,o),
(-89,129,o),
(0,0,c),
(117,0,l),
(387,0,o),
(605,218,o),
(605,488,cs),
(606,1547,l),
(139,1547,l),
(138,521,l),
(138,509,o),
(128,500,o),
(117,500,cs)
);
}
);
width = 724;
}
);
unicode = 65247;
},
{
glyphname = "lam-arab.medi";
layers = (
{
anchors = (
{
name = "top-arab";
pos = (381,1433);
},
{
name = "bottom-arab";
pos = (381,0);
}
);
layerId = m004;
shapes = (
{
closed = 1;
nodes = (
(0,60,l),
(-80,54,o),
(-80,6,o),
(0,0,c),
(83,0,l),
(220,0,o),
(335,84,o),
(381,203,c),
(427,84,o),
(542,0,o),
(679,0,cs),
(751,0,l),
(751,60,l),
(679,60,l),
(530,60,o),
(410,180,o),
(410,329,cs),
(410,1433,l),
(352,1433,l),
(352,329,l),
(352,180,o),
(232,60,o),
(83,60,cs)
);
}
);
width = 751;
},
{
anchors = (
{
name = "top-arab";
pos = (379,1524);
},
{
name = "bottom-arab";
pos = (379,0);
}
);
associatedMasterId = m004;
attr = {
coordinates = (
800,
1
);
};
layerId = m005;
name = ExtraBold;
shapes = (
{
closed = 1;
nodes = (
(0,340,l),
(-85,255,o),
(-85,84,o),
(0,0,c),
(109,0,l),
(231,0,o),
(314,52,o),
(379,134,c),
(445,52,o),
(528,0,o),
(650,0,cs),
(724,0,l),
(724,340,l),
(650,340,l),
(589,340,o),
(538,390,o),
(538,451,cs),
(539,1524,l),
(221,1524,l),
(220,451,l),
(220,390,o),
(170,340,o),
(109,340,cs)
);
}
);
width = 724;
},
{
anchors = (
{
name = "top-arab";
pos = (372,1516);
},
{
name = "bottom-arab";
pos = (372,0);
}
);
associatedMasterId = m004;
attr = {
coordinates = (
1000,
1
);
};
layerId = m006;
name = ExtraBlack;
shapes = (
{
closed = 1;
nodes = (
(0,500,l),
(-89,369,o),
(-89,129,o),
(0,0,c),
(117,0,l),
(231,0,o),
(295,33,o),
(372,95,c),
(448,33,o),
(513,0,o),
(627,0,cs),
(702,0,l),
(702,500,l),
(627,500,l),
(616,500,o),
(605,509,o),
(605,521,cs),
(606,1547,l),
(139,1547,l),
(138,521,l),
(138,509,o),
(128,500,o),
(117,500,cs)
);
}
);
width = 703;
}
);
unicode = 65248;
},
{
glyphname = "meem-arab";
layers = (
{
anchors = (
{
name = "top-arab";
pos = (913,782);
},
{
name = "bottom-arab";
pos = (913,27);
}
);
layerId = m004;
shapes = (
{
closed = 1;
nodes = (
(1185,211,o),
(1138,66,o),
(973,66,cs),
(780,66,o),
(627,107,o),
(550,147,c),
(552,157,o),
(592,344,o),
(596,364,cs),
(641,605,o),
(739,763,o),
(913,763,cs),
(1087,763,o),
(1178,582,o),
(1181,404,cs)
);
},
{
closed = 1;
nodes = (
(244,277,l),
(171,211,l),
(171,-628,l),
(230,-628,l),
(230,220,l),
(524,95,o),
(590,63,o),
(705,38,cs),
(805,16,o),
(889,7,o),
(973,7,cs),
(1168,7,o),
(1244,171,o),
(1240,404,cs),
(1236,637,o),
(1112,822,o),
(913,822,cs),
(713,822,o),
(584,627,o),
(545,393,c),
(496.387,169.061,l)
);
}
);
width = 1406;
},
{
anchors = (
{
name = "top-arab";
pos = (1005,1007);
},
{
name = "bottom-arab";
pos = (1005,0);
}
);
associatedMasterId = m004;
attr = {
coordinates = (
800,
1
);
};
layerId = m005;
name = ExtraBold;
shapes = (
{
closed = 1;
nodes = (
(1158,427,o),
(1125,348,o),
(1034,348,cs),
(943,348,o),
(869,365,o),
(813,392,c),
(819,419,o),
(841,511,o),
(845,533,cs),
(867,642,o),
(918,718,o),
(1009,718,cs),
(1105,718,o),
(1154,627,o),
(1156,534,cs)
);
},
{
closed = 1;
nodes = (
(332,547,l),
(120,342,l),
(120,-598,l),
(438,-598,l),
(438,152,l),
(483.227,138.906,o),
(598.266,100.945,o),
(669,77,cs),
(729,57,o),
(889,9,o),
(1033,9,cs),
(1302,9,o),
(1478,249,o),
(1470,543,cs),
(1462,838,o),
(1273,1049,o),
(1005,1047,cs),
(718,1045,o),
(568,812,o),
(527,533,cs),
(519.118,478.465,l)
);
}
);
width = 1569;
},
{
anchors = (
{
name = "top-arab";
pos = (1058,1136);
},
{
name = "bottom-arab";
pos = (1058,-15);
}
);
associatedMasterId = m004;
attr = {
coordinates = (
1000,
1
);
};
layerId = m006;
name = ExtraBlack;
shapes = (
{
closed = 1;
nodes = (
(1142,551,o),
(1118,509,o),
(1069,509,cs),
(1036,509,o),
(1007,513,o),
(963,532,c),
(973,569,o),
(982,606,o),
(987,629,c),
(997,664,o),
(1020,692,o),
(1064,693,cs),
(1115,693,o),
(1141,653,o),
(1141,608,cs)
);
},
{
closed = 1;
nodes = (
(383,701,l),
(91,418,l),
(91,-581,l),
(558,-581,l),
(558,144,l),
(586.98,127.892,o),
(645.865,99.168,o),
(680.081,86.193,cs),
(752.432,59.35,o),
(919.6,10,o),
(1068,10,cs),
(1378,10,o),
(1612,294,o),
(1602,623,cs),
(1591,953,o),
(1364,1178,o),
(1058,1175,cs),
(735.286,1172.136,o),
(573.925,940.461,o),
(523,653,cs),
(523,653,l)
);
}
);
width = 1662;
}
);
unicode = (1605,65249);
},
{
glyphname = "meem-arab.fina";
layers = (
{
anchors = (
{
name = "top-arab";
pos = (913,782);
},
{
name = "bottom-arab";
pos = (913,17);
}
);
layerId = m004;
shapes = (
{
closed = 1;
nodes = (
(1185,211,o),
(1138,66,o),
(973,66,cs),
(780,66,o),
(627,107,o),
(550,147,c),
(552,157,o),
(592,344,o),
(596,364,cs),
(641,605,o),
(739,763,o),
(913,763,cs),
(1087,763,o),
(1178,582,o),
(1181,404,cs)
);
},
{
closed = 1;
nodes = (
(244,277,l),
(171,211,l),
(171,-628,l),
(230,-628,l),
(230,220,l),
(524,95,o),
(590,63,o),
(705,38,cs),
(805,16,o),
(889,7,o),
(973,7,cs),
(1106.432,7,o),
(1184.145,83.788,o),
(1218.632,206.916,c),
(1257.311,81.107,o),
(1376.727,0,o),
(1509,0,cs),
(1586,0,l),
(1586,60,l),
(1509,60,l),
(1368.289,60,o),
(1251.658,167.911,o),
(1239.959,367.718,c),
(1240,404,l),
(1236,637,o),
(1112,822,o),
(913,822,cs),
(713,822,o),
(584,627,o),
(545,393,c),
(496.387,169.061,l)
);
}
);
width = 1586;
},
{
anchors = (
{
name = "top-arab";
pos = (1005,1007);
},
{
name = "bottom-arab";
pos = (1005,0);
}
);
associatedMasterId = m004;
attr = {
coordinates = (
800,
1
);
};
layerId = m005;
name = ExtraBold;
shapes = (
{
closed = 1;
nodes = (
(1158,427,o),
(1125,348,o),
(1034,348,cs),
(943,348,o),
(869,365,o),
(813,392,c),
(819,419,o),
(841,511,o),
(845,533,cs),
(867,642,o),
(918,718,o),
(1009,718,cs),
(1105,718,o),
(1154,627,o),
(1156,534,cs)
);
},
{
closed = 1;
nodes = (
(332,547,l),
(120,342,l),
(120,-598,l),
(438,-598,l),
(438,152,l),
(487.917,136.335,o),
(603.417,98.706,o),
(669,77,cs),
(729,57,o),
(889,9,o),
(1033,9,cs),
(1149.275,9,o),
(1248.174,53.841,o),
(1322.345,128.501,c),
(1401.393,42.329,o),
(1475.624,1,o),
(1582,1,cs),
(1655,1,l),
(1655,341,l),
(1582,341,l),
(1518,341,o),
(1468,388,o),
(1470,493,cs),
(1470,543,l),
(1462,838,o),
(1273,1049,o),
(1005,1047,cs),
(718,1045,o),
(568,812,o),
(527,533,cs),
(519.118,478.465,l)
);
}
);
width = 1655;
},
{
anchors = (
{
name = "top-arab";
pos = (1058,1136);
},
{
name = "bottom-arab";
pos = (1058,-10);
}
);
associatedMasterId = m004;
attr = {
coordinates = (
1000,
1
);
};
layerId = m006;
name = ExtraBlack;
shapes = (
{
closed = 1;
nodes = (
(1142,551,o),
(1118,509,o),
(1069,509,cs),
(1036,509,o),
(1007,513,o),
(963,532,c),
(973,569,o),
(982,606,o),
(987,629,c),
(997,664,o),
(1020,692,o),
(1064,693,cs),
(1115,693,o),
(1141,653,o),
(1141,608,cs)
);
},
{
closed = 1;
nodes = (
(383,701,l),
(91,418,l),
(91,-581,l),
(558,-581,l),
(558,144,l),
(587,128,o),
(646,99,o),
(680.081,86.193,cs),
(752.432,59.35,o),
(919.6,10,o),
(1068,10,cs),
(1176.38,10,o),
(1275.471,44.713,o),
(1358.102,103.931,c),
(1475.028,24.987,o),
(1526.027,2,o),
(1623,2,cs),
(1694,2,l),
(1694,502,l),
(1623,502,l),
(1609,502,o),
(1600,506,o),
(1602,544,c),
(1602,623,l),
(1591,953,o),
(1364,1178,o),
(1058,1175,cs),
(734.802,1172.131,o),
(573.44,939.765,o),
(523,653,cs),
(523,653,l)
);
}
);
width = 1694;
}
);
unicode = 65250;
},
{
glyphname = "meem-arab.init";
layers = (
{
anchors = (
{
name = "top-arab";
pos = (713,782);
},
{
name = "bottom-arab";
pos = (713,0);
}
);
layerId = m004;
shapes = (
{
closed = 1;
nodes = (
(985,221,o),
(938,56,o),
(773,56,cs),
(580,56,o),
(453,143,o),
(368,242,c),
(370,252,o),
(393,354,o),
(396,374,cs),
(435,624,o),
(539,763,o),
(713,763,cs),
(887,763,o),
(978,592,o),
(981,414,cs)
);
},
{
closed = 1;
nodes = (
(513,822,o),
(374,645,o),
(338,375,cs),
(333,340,l),
(324,280,o),
(266,60,o),
(87,60,cs),
(-1,60,l),
(-80,54,o),
(-80,6,o),
(-1,0,c),
(87,0,l),
(221,0,o),
(294,99,o),
(320,147,c),
(330,164,o),
(338,182,o),
(344,195,c),
(450,58,o),
(614,-3,o),
(773,-3,cs),
(968,-3,o),
(1044,181,o),
(1040,414,cs),
(1036,647,o),
(912,822,o),
(713,822,cs)
);
}
);
width = 1206;
},
{
anchors = (
{
name = "top-arab";
pos = (684,987);
},
{
name = "bottom-arab";
pos = (684,0);
}
);
associatedMasterId = m004;
attr = {
coordinates = (
800,
1
);
};
layerId = m005;
name = ExtraBold;
shapes = (
{
closed = 1;
nodes = (
(836,412,o),
(793,332,o),
(712,332,cs),
(631,332,o),
(552,368,o),
(502,415,c),
(509,442,o),
(520,496,o),
(523,517,cs),
(539,626,o),
(596,703,o),
(687,703,cs),
(783,703,o),
(832,612,o),
(834,519,cs)
);
},
{
closed = 1;
nodes = (
(396,1025,o),
(246,792,o),
(206,513,cs),
(200,476,l),
(194,438,o),
(164,340,o),
(83,340,cs),
(0,340,l),
(-85,255,o),
(-85,84,o),
(0,0,c),
(93,0,l),
(215,0,o),
(300,79,o),
(338,122,c),
(342,125,o),
(343,129,o),
(344,131,c),
(402,86,o),
(568,-11,o),
(712,-11,cs),
(980,-11,o),
(1157,229,o),
(1148,523,cs),
(1140,818,o),
(951,1029,o),
(684,1027,cs)
);
}
);
width = 1248;
},
{
anchors = (
{
name = "top-arab";
pos = (667,1104);
},
{
name = "bottom-arab";
pos = (667,0);
}
);
associatedMasterId = m004;
attr = {
coordinates = (
1000,
1
);
};
layerId = m006;
name = ExtraBlack;
shapes = (
{
closed = 1;
nodes = (
(750,521,o),
(710,491,o),
(677,491,cs),
(660,491,o),
(608,497,o),
(578,513,c),
(588,550,o),
(592,577,o),
(596,599,c),
(599,627,o),
(629,668,o),
(672,669,cs),
(724,669,o),
(749,624,o),
(750,579,cs)
);
},
{
closed = 1;
nodes = (
(329,1141,o),
(174,877,o),
(130,592,cs),
(124,554,l),
(120,528,o),
(106,500,o),
(81,500,cs),
(1,500,l),
(-89,370,o),
(-89,129,o),
(1,0,c),
(97,0,l),
(211,0,o),
(292,58,o),
(337,98,c),
(338,99,o),
(339,100,o),
(340,101,c),
(367,61,o),
(471,-16,o),
(677,-16,cs),
(987,-16,o),
(1221,257,o),
(1210,586,cs),
(1200,915,o),
(973,1147,o),
(667,1144,cs)
);
}
);
width = 1272;
}
);
unicode = 65251;
},
{
glyphname = "meem-arab.medi";
layers = (
{
anchors = (
{
name = "top-arab";
pos = (713,782);
},
{
name = "bottom-arab";
pos = (713,0);
}
);
layerId = m004;
shapes = (
{
closed = 1;
nodes = (
(1300,60,l),
(1151,60,o),
(1029,182,o),
(1040,414,c),
(1001,229,l),
(1046,82,o),
(1166,0,o),
(1300,0,cs),
(1376,0,l),
(1376,60,l)
);
},
{
closed = 1;
nodes = (
(985,221,o),
(938,56,o),
(773,56,cs),
(580,56,o),
(453,143,o),
(368,242,c),
(370,252,o),
(393,354,o),
(396,374,cs),
(435,624,o),
(539,763,o),
(713,763,cs),
(887,763,o),
(978,592,o),
(981,414,cs)
);
},
{
closed = 1;
nodes = (
(513,822,o),
(374,645,o),
(338,375,cs),
(333,340,l),
(324,280,o),
(266,60,o),
(87,60,cs),
(-1,60,l),
(-80,54,o),
(-80,6,o),
(-1,0,c),
(87,0,l),
(221,0,o),
(294,99,o),
(320,147,c),
(330,164,o),
(338,182,o),
(344,195,c),
(450,58,o),
(614,-3,o),
(773,-3,cs),
(968,-3,o),
(1044,181,o),
(1040,414,cs),
(1036,647,o),
(912,822,o),
(713,822,cs)
);
}
);
width = 1376;
},
{
anchors = (
{
name = "top-arab";
pos = (684,987);
},
{
name = "bottom-arab";
pos = (684,0);
}
);
associatedMasterId = m004;
attr = {
coordinates = (
800,
1
);
};
layerId = m005;
name = ExtraBold;
shapes = (
{
closed = 1;
nodes = (
(1260,340,l),
(1196,340,o),
(1146,387,o),
(1148,523,c),
(1008,122,l),
(1073,45,o),
(1149,0,o),
(1260,0,cs),
(1333,0,l),
(1333,340,l)
);
},
{
closed = 1;
nodes = (
(836,412,o),
(793,332,o),
(712,332,cs),
(631,332,o),
(552,368,o),
(502,415,c),
(509,442,o),
(520,496,o),
(523,517,cs),
(539,626,o),
(596,703,o),
(687,703,cs),
(783,703,o),
(832,612,o),
(834,519,cs)
);
},
{
closed = 1;
nodes = (
(396,1025,o),
(246,792,o),
(206,513,cs),
(200,476,l),
(194,438,o),
(164,340,o),
(83,340,cs),
(0,340,l),
(-85,255,o),
(-85,84,o),
(0,0,c),
(93,0,l),
(215,0,o),
(300,79,o),
(338,122,c),
(342,125,o),
(343,129,o),
(344,131,c),
(402,86,o),
(568,-11,o),
(712,-11,cs),
(980,-11,o),
(1157,229,o),
(1148,523,cs),
(1140,818,o),
(951,1029,o),
(684,1027,cs)
);
}
);
width = 1333;
},
{
anchors = (
{
name = "top-arab";
pos = (667,1104);
},
{
name = "bottom-arab";
pos = (667,0);
}
);
associatedMasterId = m004;
attr = {
coordinates = (
1000,
1
);
};
layerId = m006;
name = ExtraBlack;
shapes = (
{
closed = 1;
nodes = (
(1237,500,l),
(1222,500,o),
(1213,504,o),
(1210,586,c),
(971,78,l),
(1089,23,o),
(1140,0,o),
(1237,0,cs),
(1308,0,l),
(1308,500,l)
);
},
{
closed = 1;
nodes = (
(750,521,o),
(710,491,o),
(677,491,cs),
(660,491,o),
(608,497,o),
(578,513,c),
(588,550,o),
(592,577,o),
(596,599,c),
(599,627,o),
(629,668,o),
(672,669,cs),
(724,669,o),
(749,624,o),
(750,579,cs)
);
},
{
closed = 1;
nodes = (
(329,1141,o),
(174,877,o),
(130,592,cs),
(124,554,l),
(120,528,o),
(106,500,o),
(81,500,cs),
(1,500,l),
(-89,370,o),
(-89,129,o),
(1,0,c),
(97,0,l),
(211,0,o),
(292,58,o),
(337,98,c),
(338,99,o),
(339,100,o),
(340,101,c),
(367,61,o),
(471,-16,o),
(677,-16,cs),
(987,-16,o),
(1221,257,o),
(1210,586,cs),
(1200,915,o),
(973,1147,o),
(667,1144,cs)
);
}
);
width = 1308;
}
);
unicode = 65252;
},
{
glyphname = "noonghunna-arab";
layers = (
{
anchors = (
{
name = "top-arab";
pos = (800,468);
},
{
name = "bottom-arab";
pos = (764,-551);
}
);
layerId = m004;
shapes = (
{
closed = 1;
nodes = (
(1333,632,l),
(1394,632,l),
(1393,44,l),
(1394,-138,o),
(1250,-394,o),
(1011,-531,o),
(873,-541,qs),
(698,-551,l),
(479,-561,o),
(261,-395,o),
(157,-133,o),
(157,15,qs),
(157,162,o),
(236,391,o),
(266,468,q),
(323,443,l),
(295,382,o),
(216,155,o),
(216,18,qs),
(216,-178,o),
(425,-509,o),
(698,-491,qs),
(873,-481,l),
(997,-471,o),
(1206,-352,o),
(1333,-129,o),
(1333,47,qs)
);
}
);
width = 1561;
},
{
anchors = (
{
name = "top-arab";
pos = (540,557);
},
{
name = "bottom-arab";
pos = (843,-539);
}
);
associatedMasterId = m004;
attr = {
coordinates = (
800,
1
);
};
layerId = m005;
name = ExtraBold;
shapes = (
{
closed = 1;
nodes = (
(1216,816,l),
(1533,816,l),
(1533,80,l),
(1532,-73,o),
(1384,-346,o),
(1104,-529,o),
(912,-539,qs),
(774,-548,l),
(560,-558,o),
(270,-366,o),
(110,-65,o),
(110,64,qs),
(111,241,o),
(162,506,o),
(220,667,q),
(512,549,l),
(484,462,o),
(428,235,o),
(428,108,qs),
(430,-34,o),
(573,-218,o),
(774,-208,qs),
(912,-199,l),
(1012,-195,o),
(1136,-113,o),
(1216,17,o),
(1216,116,qs)
);
}
);
width = 1657;
},
{
anchors = (
{
name = "top-arab";
pos = (391,608);
},
{
name = "bottom-arab";
pos = (888,-532);
}
);
associatedMasterId = m004;
attr = {
coordinates = (
1000,
1
);
};
layerId = m006;
name = ExtraBlack;
shapes = (
{
closed = 1;
nodes = (
(1147,921,l),
(1613,921,l),
(1613,101,l),
(1610,-36,o),
(1460,-318,o),
(1157,-518,o),
(935,-538,qs),
(817,-546,l),
(606,-556,o),
(276,-399,o),
(83,-56,o),
(83,93,qs),
(85,286,o),
(120,571,o),
(194,781,q),
(621,610,l),
(592,509,o),
(549,280,o),
(550,159,qs),
(552,48,o),
(657,-53,o),
(817,-46,qs),
(935,-38,l),
(1021,-32,o),
(1096,23,o),
(1147,100,o),
(1147,156,qs)
);
}
);
width = 1712;
}
);
unicode = (1722,2237,64414);
},
{
glyphname = "noonghunna-arab.fina";
layers = (
{
anchors = (
{
name = "top-arab";
pos = (800,468);
},
{
name = "bottom-arab";
pos = (764,-551);
}
);
layerId = m004;
shapes = (
{
closed = 1;
nodes = (
(1393,308,l),
(1400,209,o),
(1550,59,o),
(1661,59,qs),
(1734,59,l),
(1734,-1,l),
(1661,-1,l),
(1576,-1,o),
(1434,84,o),
(1393,156,q),
(1393,44,l),
(1394,-138,o),
(1250,-394,o),
(1011,-531,o),
(873,-541,qs),
(698,-551,l),
(479,-561,o),
(261,-395,o),
(157,-133,o),
(157,15,qs),
(157,162,o),
(236,391,o),
(266,468,q),
(323,443,l),
(295,382,o),
(216,155,o),
(216,18,qs),
(216,-178,o),
(425,-509,o),
(698,-491,qs),
(873,-481,l),
(997,-471,o),
(1206,-352,o),
(1333,-129,o),
(1333,47,qs),
(1333,632,l),
(1394,632,l)
);
}
);
width = 1734;
},
{
anchors = (
{
name = "top-arab";
pos = (540,557);
},
{
name = "bottom-arab";
pos = (843,-539);
}
);
associatedMasterId = m004;
attr = {
coordinates = (
800,
1
);
};
layerId = m005;
name = ExtraBold;
shapes = (
{
closed = 1;
nodes = (
(1534,450,l),
(1534,404,o),
(1600,339,o),
(1645,339,qs),
(1720,339,l),
(1720,-1,l),
(1645,-1,l),
(1617,-1,o),
(1549,31,o),
(1532,50,q),
(1532,49,l),
(1524,-87,o),
(1384,-346,o),
(1104,-529,o),
(912,-539,qs),
(774,-548,l),
(560,-558,o),
(270,-366,o),
(110,-65,o),
(110,64,qs),
(111,241,o),
(162,506,o),
(220,667,q),
(512,549,l),
(484,462,o),
(428,235,o),
(428,108,qs),
(430,-34,o),
(573,-218,o),
(774,-208,qs),
(912,-199,l),
(1012,-195,o),
(1136,-113,o),
(1216,17,o),
(1216,116,qs),
(1215,816,l),
(1533,816,l)
);
}
);
width = 1720;
},
{
anchors = (
{
name = "top-arab";
pos = (391,608);
},
{
name = "bottom-arab";
pos = (888,-532);
}
);
associatedMasterId = m004;
attr = {
coordinates = (
1000,
1
);
};
layerId = m006;
name = ExtraBlack;
shapes = (
{
closed = 1;
nodes = (
(1612,532,l),
(1612,516,o),
(1628,499,o),
(1636,499,qs),
(1712,499,l),
(1712,0,l),
(1636,0,l),
(1630,0,o),
(1616,5,o),
(1612,12,qs),
(1612,12,l),
(1599,-78,o),
(1460,-318,o),
(1157,-518,o),
(935,-538,qs),
(817,-546,l),
(606,-556,o),
(276,-399,o),
(83,-56,o),
(83,93,qs),
(85,286,o),
(120,571,o),
(194,781,q),
(621,610,l),
(592,509,o),
(549,280,o),
(550,159,qs),
(552,48,o),
(657,-53,o),
(817,-46,qs),
(935,-38,l),
(1021,-32,o),
(1096,23,o),
(1147,100,o),
(1147,156,qs),
(1147,921,l),
(1612,921,l)
);
}
);
width = 1712;
}
);
unicode = 64415;
},
{
glyphname = "waw-arab";
layers = (
{
anchors = (
{
name = "top-arab";
pos = (524,726);
},
{
name = "bottom-arab";
pos = (524,-591);
}
);
layerId = m004;
shapes = (
{
closed = 1;
nodes = (
(813,-264,o),
(614,-475,o),
(369,-501,cs),
(101,-532,l),
(107,-589,l),
(369,-561,l),
(648,-531,o),
(875,-295,o),
(875,5,cs),
(875,373,l),
(875,608,o),
(734,766,o),
(524,766,cs),
(317,766,o),
(173,604,o),
(173,373,cs),
(173,126,o),
(302,0,o),
(524,0,cs),
(816,0,l)
);
},
{
closed = 1;
nodes = (
(816,60,l),
(524,60,l),
(336,60,o),
(232,160,o),
(232,373,cs),
(232,569,o),
(346,708,o),
(524,708,cs),
(741,708,o),
(817,527,o),
(817,373,cs)
);
}
);
width = 1046;
},
{
anchors = (
{
name = "top-arab";
pos = (566,955);
},
{
name = "bottom-arab";
pos = (566,-538);
}
);
associatedMasterId = m004;
attr = {
coordinates = (
800,
1
);
};
layerId = m005;
name = ExtraBold;
shapes = (
{
closed = 1;
nodes = (
(689,-134,o),
(588,-211,o),
(437,-225,cs),
(60,-254,l),
(89,-580,l),
(494,-550,l),
(747,-536,o),
(1008,-281,o),
(1008,15,cs),
(1008,476,l),
(1008,764,o),
(832,975,o),
(566,975,cs),
(305,975,o),
(104,760,o),
(104,476,cs),
(104,195,o),
(197,0,o),
(526,0,cs),
(689,0,l)
);
},
{
closed = 1;
nodes = (
(713,337,l),
(566,337,l),
(453,337,o),
(411,379,o),
(411,472,cs),
(411,589,o),
(463,670,o),
(566,670,cs),
(673,670,o),
(713,572,o),
(713,472,cs)
);
}
);
width = 1138;
},
{
anchors = (
{
name = "top-arab";
pos = (590,1086);
},
{
name = "bottom-arab";
pos = (590,-508);
}
);
associatedMasterId = m004;
attr = {
coordinates = (
1000,
1
);
};
layerId = m006;
name = ExtraBlack;
shapes = (
{
closed = 1;
nodes = (
(619,-59,o),
(573,-60,o),
(475,-67,cs),
(36,-95,l),
(79,-575,l),
(566,-544,l),
(803,-539,o),
(1084,-273,o),
(1084,21,cs),
(1084,534,l),
(1084,853,o),
(888,1094,o),
(590,1094,cs),
(298,1094,o),
(65,849,o),
(65,534,cs),
(65,235,o),
(138,0,o),
(527,0,cs),
(617,0,l)
);
},
{
closed = 1;
nodes = (
(653,495,l),
(590,495,l),
(520,495,o),
(513,504,o),
(513,528,cs),
(513,600,o),
(530,648,o),
(590,648,cs),
(634,648,o),
(653,598,o),
(653,528,cs)
);
}
);
width = 1191;
}
);
unicode = (1608,65261);
},
{
glyphname = "waw-arab.fina";
layers = (
{
anchors = (
{
name = "top-arab";
pos = (524,726);
},
{
name = "bottom-arab";
pos = (524,-591);
}
);
layerId = m004;
shapes = (
{
closed = 1;
nodes = (
(813,-264,o),
(614,-475,o),
(369,-501,cs),
(101,-532,l),
(107,-589,l),
(369,-561,l),
(647,-531,o),
(873,-297,o),
(875,0,c),
(1121,0,l),
(1121,60,l),
(875,60,l),
(875,373,l),
(875,608,o),
(734,766,o),
(524,766,cs),
(317,766,o),
(173,604,o),
(173,373,cs),
(173,126,o),
(302,0,o),
(524,0,cs),
(816,0,l)
);
},
{
closed = 1;
nodes = (
(816,60,l),
(524,60,l),
(336,60,o),
(232,160,o),
(232,373,cs),
(232,569,o),
(346,708,o),
(524,708,cs),
(741,708,o),
(817,527,o),
(817,373,cs)
);
}
);
width = 1121;
},
{
anchors = (
{
name = "top-arab";
pos = (566,955);
},
{
name = "bottom-arab";
pos = (566,-538);
}
);
associatedMasterId = m004;
attr = {
coordinates = (
800,
1
);
};
layerId = m005;
name = ExtraBold;
shapes = (
{
closed = 1;
nodes = (
(689,-134,o),
(588,-211,o),
(437,-225,cs),
(60,-254,l),
(89,-580,l),
(494,-550,l),
(747,-536,o),
(1001,-289,o),
(1008,0,c),
(1180,0,l),
(1180,340,l),
(1008,340,l),
(1008,476,l),
(1008,764,o),
(832,975,o),
(566,975,cs),
(305,975,o),
(104,760,o),
(104,476,cs),
(104,195,o),
(197,0,o),
(526,0,cs),
(689,0,l)
);
},
{
closed = 1;
nodes = (
(713,337,l),
(566,337,l),
(453,337,o),
(411,379,o),
(411,472,cs),
(411,589,o),
(463,670,o),
(566,670,cs),
(673,670,o),
(713,572,o),
(713,472,cs)
);
}
);
width = 1180;
},
{
anchors = (
{
name = "top-arab";
pos = (590,1086);
},
{
name = "bottom-arab";
pos = (590,-508);
}
);
associatedMasterId = m004;
attr = {
coordinates = (
1000,
1
);
};
layerId = m006;
name = ExtraBlack;
shapes = (
{
closed = 1;
nodes = (
(619,-59,o),
(573,-60,o),
(475,-67,cs),
(37,-95,l),
(79,-575,l),
(566,-544,l),
(805,-540,o),
(1075,-285,o),
(1083,0,c),
(1213,0,l),
(1213,500,l),
(1084,500,l),
(1084,534,l),
(1084,853,o),
(888,1094,o),
(590,1094,cs),
(298,1094,o),
(65,849,o),
(65,534,cs),
(65,235,o),
(138,0,o),
(527,0,cs),
(617,0,l)
);
},
{
closed = 1;
nodes = (
(653,495,l),
(590,495,l),
(520,495,o),
(513,504,o),
(513,528,cs),
(513,600,o),
(530,648,o),
(590,648,cs),
(634,648,o),
(653,598,o),
(653,528,cs)
);
}
);
width = 1214;
}
);
unicode = 65262;
},
{
glyphname = "heh-arab";
layers = (
{
anchors = (
{
name = "top-arab";
pos = (518,960);
},
{
name = "bottom-arab";
pos = (513,0);
}
);
layerId = m004;
shapes = (
{
closed = 1;
nodes = (
(523,814,c),
(705,627,o),
(807,463,o),
(807,335,cs),
(807,151,o),
(657,53,o),
(513,53,cs),
(372,53,o),
(220,153,o),
(220,335,cs),
(220,523,o),
(408,714,o)
);
},
{
closed = 1;
nodes = (
(482,855,l),
(428,809,o),
(161,560,o),
(161,335,cs),
(161,119,o),
(342,-6,o),
(513,-6,cs),
(687,-6,o),
(865,114,o),
(865,335,cs),
(865,505,o),
(718,713,o),
(444,973,c),
(403,931,l)
);
}
);
width = 1021;
},
{
anchors = (
{
name = "top-arab";
pos = (533,1142);
},
{
name = "bottom-arab";
pos = (562,0);
}
);
associatedMasterId = m004;
attr = {
coordinates = (
800,
1
);
};
layerId = m005;
name = ExtraBold;
shapes = (
{
closed = 1;
nodes = (
(562,692,c),
(656,602,o),
(718,497,o),
(718,427,cs),
(718,337,o),
(637,283,o),
(562,283,cs),
(487,283,o),
(406,337,o),
(406,427,cs),
(406,532,o),
(505,634,o)
);
},
{
closed = 1;
nodes = (
(357,884,l),
(268,813,o),
(109,634,o),
(109,423,cs),
(109,169,o),
(313,-22,o),
(562,-22,cs),
(785,-22,o),
(1015,137,o),
(1015,423,cs),
(1015,622,o),
(878,851,o),
(539,1182,c),
(288,966,l)
);
}
);
width = 1119;
},
{
anchors = (
{
name = "top-arab";
pos = (542,1246);
},
{
name = "bottom-arab";
pos = (590,0);
}
);
associatedMasterId = m004;
attr = {
coordinates = (
1000,
1
);
};
layerId = m006;
name = ExtraBlack;
shapes = (
{
closed = 1;
nodes = (
(585,622,c),
(628,587,o),
(667,516,o),
(667,480,cs),
(667,444,o),
(626,414,o),
(590,414,cs),
(553,414,o),
(512,442,o),
(512,480,cs),
(512,537,o),
(560,589,o)
);
},
{
closed = 1;
nodes = (
(285,902,l),
(177,815,o),
(79,677,o),
(79,473,cs),
(79,198,o),
(296,-31,o),
(590,-31,cs),
(841,-31,o),
(1100,151,o),
(1100,473,cs),
(1100,689,o),
(969,930,o),
(593,1302,c),
(222,985,l)
);
}
);
width = 1175;
}
);
unicode = (1607,1749,65257);
},
{
glyphname = "heh-arab.fina";
layers = (
{
anchors = (
{
name = "top-arab";
pos = (677,1048);
},
{
name = "bottom-arab";
pos = (555,76);
}
);
layerId = m004;
shapes = (
{
closed = 1;
nodes = (
(874,213,c),
(911,88,o),
(1025,1,o),
(1156,0,cs),
(1215,0,l),
(1215,60,l),
(1156,60,l),
(1037,61,o),
(937,147,o),
(919,265,cs),
(801,1069,l),
(742,1062,l),
(770,872,l),
(330,889,o),
(140,647,o),
(157,346,cs),
(173,45,o),
(580,-31,o)
);
},
{
closed = 1;
nodes = (
(779,814,c),
(859,271,l),
(547,17,o),
(227,126,o),
(215,349,cs),
(201,628,o),
(378,832,o)
);
}
);
width = 1215;
},
{
anchors = (
{
name = "top-arab";
pos = (673,1189);
},
{
name = "bottom-arab";
pos = (541,97);
}
);
associatedMasterId = m004;
attr = {
coordinates = (
800,
1
);
};
layerId = m005;
name = ExtraBold;
shapes = (
{
closed = 1;
nodes = (
(830,191,c),
(905,54,o),
(1014,0,o),
(1134,0,cs),
(1249,0,l),
(1249,340,l),
(1132,340,l),
(1090,340,o),
(1054,370,o),
(1048,412,cs),
(929,1228,l),
(614,1182,l),
(634,1031,l),
(310,980,o),
(81,737,o),
(106,425,cs),
(129,120,o),
(504,-23,o)
);
},
{
closed = 1;
nodes = (
(690,748,c),
(734,441,l),
(563,340,o),
(410,398,o),
(405,507,cs),
(398,639,o),
(506,742,o)
);
}
);
width = 1249;
},
{
anchors = (
{
name = "top-arab";
pos = (671,1270);
},
{
name = "bottom-arab";
pos = (533,109);
}
);
associatedMasterId = m004;
attr = {
coordinates = (
1000,
1
);
};
layerId = m006;
name = ExtraBlack;
shapes = (
{
closed = 1;
nodes = (
(805,179,c),
(902,34,o),
(1009,-1,o),
(1121,0,cs),
(1268,0,l),
(1268,500,l),
(1118,500,l),
(1120,499,o),
(1121,498,o),
(1122,496,c),
(1003,1318,l),
(541,1251,l),
(556,1122,l),
(299,1032,o),
(47,788,o),
(77,471,cs),
(103,163,o),
(460,-18,o)
);
},
{
closed = 1;
nodes = (
(638,711,c),
(662,539,l),
(572,524,o),
(515,553,o),
(513,597,cs),
(511,645,o),
(579,690,o)
);
}
);
width = 1268;
}
);
unicode = 65258;
},
{
glyphname = "heh-arab.init";
layers = (
{
anchors = (
{
name = "top-arab";
pos = (682,844);
},
{
name = "bottom-arab";
pos = (682,0);
}
);
layerId = m004;
shapes = (
{
closed = 1;
nodes = (
(582,785,cs),
(751,785,o),
(881,672,o),
(881,496,cs),
(881,248,o),
(633,89,o),
(582,62,c),
(531,89,o),
(284,248,o),
(284,496,cs),
(284,672,o),
(414,785,o)
);
},
{
closed = 1;
nodes = (
(650,0,cs),
(1151,0,l),
(1365,0,o),
(1501,249,o),
(1364,430,cs),
(1009,898,l),
(962,863,l),
(1317,395,l),
(1419,262,o),
(1329,59,o),
(1151,59,cs),
(680,59,l),
(777,122,o),
(939,280,o),
(939,496,cs),
(939,702,o),
(786,844,o),
(582,844,cs),
(379,844,o),
(225,702,o),
(225,496,cs),
(225,280,o),
(387,122,o),
(483,60,c),
(0,60,l),
(-80,54,o),
(-80,6,o),
(0,0,c),
(514,0,l),
(547,0,o),
(581,12,o),
(582,23,c),
(584,12,o),
(617,0,o)
);
}
);
width = 1575;
},
{
anchors = (
{
name = "top-arab";
pos = (690,1036);
},
{
name = "bottom-arab";
pos = (690,0);
}
);
associatedMasterId = m004;
attr = {
coordinates = (
800,
1
);
};
layerId = m005;
name = ExtraBold;
shapes = (
{
closed = 1;
nodes = (
(588,733,cs),
(673,733,o),
(750,677,o),
(750,581,cs),
(750,463,o),
(649,378,o),
(588,324,c),
(526,378,o),
(426,463,o),
(426,581,cs),
(426,677,o),
(504,733,o)
);
},
{
closed = 1;
nodes = (
(907,0,cs),
(1252,0,l),
(1553,0,o),
(1744,350,o),
(1552,603,cs),
(1148,1134,l),
(907,951,l),
(1268,478,l),
(1312,422,o),
(1279,340,o),
(1205,340,cs),
(960,340,l),
(1001,393,o),
(1045,497,o),
(1045,585,cs),
(1045,846,o),
(844,1036,o),
(588,1036,cs),
(332,1036,o),
(132,846,o),
(132,585,cs),
(132,497,o),
(175,393,o),
(217,340,c),
(0,340,l),
(-86,255,o),
(-86,84,o),
(0,0,c),
(270,0,l),
(482,0,o),
(567,42,o),
(588,64,c),
(610,42,o),
(695,0,o)
);
}
);
width = 1703;
},
{
anchors = (
{
name = "top-arab";
pos = (695,1146);
},
{
name = "bottom-arab";
pos = (695,0);
}
);
associatedMasterId = m004;
attr = {
coordinates = (
1000,
1
);
};
layerId = m006;
name = ExtraBlack;
shapes = (
{
closed = 1;
nodes = (
(592,703,cs),
(628,703,o),
(676,679,o),
(676,629,cs),
(676,585,o),
(659,544,o),
(592,473,c),
(524,544,o),
(508,585,o),
(508,629,cs),
(508,679,o),
(556,703,o)
);
},
{
closed = 1;
nodes = (
(1054,0,cs),
(1309,0,l),
(1660,0,o),
(1882,407,o),
(1659,702,cs),
(1227,1269,l),
(876,1002,l),
(1240,525,l),
(1251,511,o),
(1250,501,o),
(1236,501,cs),
(1090,501,l),
(1099,548,o),
(1106,622,o),
(1106,636,cs),
(1106,928,o),
(878,1146,o),
(592,1146,cs),
(304,1146,o),
(78,928,o),
(78,636,cs),
(78,622,o),
(83,548,o),
(94,500,c),
(0,500,l),
(-89,369,o),
(-89,129,o),
(0,0,c),
(130,0,l),
(445,0,o),
(559,60,o),
(592,88,c),
(625,60,o),
(739,0,o)
);
}
);
width = 1776;
}
);
unicode = 65259;
},
{
glyphname = "heh-arab.medi";
layers = (
{
anchors = (
{
name = "top-arab";
pos = (583,771);
},
{
name = "bottom-arab";
pos = (572,-535);
}
);
layerId = m004;
shapes = (
{
closed = 1;
nodes = (
(285,59,l),
(285,394,l),
(285,603,o),
(383,753,o),
(583,752,cs),
(783,752,o),
(880,630,o),
(880,435,cs),
(880,226,o),
(761,59,o),
(542,59,cs)
);
},
{
closed = 1;
nodes = (
(0,60,l),
(-80,54,o),
(-80,6,o),
(0,0,c),
(226,0,l),
(226,-271,o),
(308,-535,o),
(759,-535,cs),
(809,-535,l),
(968,-235,l),
(1042,-82,o),
(1145,0,o),
(1266,0,cs),
(1315,0,l),
(1315,60,l),
(1266,60,l),
(1120,60,o),
(1007,-46,o),
(916,-214,cs),
(779,-476,l),
(758,-476,l),
(430,-476,o),
(285,-309,o),
(285,0,c),
(542,0,l),
(792,0,o),
(939,194,o),
(939,435,cs),
(938,667,o),
(814,811,o),
(584,811,cs),
(352,811,o),
(227,632,o),
(226,394,cs),
(226,60,l)
);
}
);
width = 1315;
},
{
anchors = (
{
name = "top-arab";
pos = (611,986);
},
{
name = "bottom-arab";
pos = (578,-519);
}
);
associatedMasterId = m004;
attr = {
coordinates = (
800,
1
);
};
layerId = m005;
name = ExtraBold;
shapes = (
{
closed = 1;
nodes = (
(437,340,l),
(437,480,l),
(437,618,o),
(497,704,o),
(606,702,cs),
(719,701,o),
(760,633,o),
(760,524,cs),
(760,419,o),
(697,340,o),
(558,340,cs)
);
},
{
closed = 1;
nodes = (
(0,340,l),
(-85,255,o),
(-85,84,o),
(0,0,c),
(133,0,l),
(133,-368,o),
(435,-519,o),
(719,-519,cs),
(854,-519,l),
(1015,-266,l),
(1138,-78,o),
(1204,0,o),
(1272,0,cs),
(1327,0,l),
(1327,340,l),
(1252,340,l),
(1080,340,o),
(931,116,o),
(824,-45,cs),
(719,-212,l),
(668,-212,l),
(512,-212,o),
(451,-126,o),
(451,20,c),
(562,20,l),
(859,20,o),
(1068,235,o),
(1065,515,cs),
(1063,796,o),
(888,1001,o),
(601,1006,cs),
(309,1011,o),
(134,756,o),
(132,481,cs),
(133,340,l)
);
}
);
width = 1327;
},
{
anchors = (
{
name = "top-arab";
pos = (627,1109);
},
{
name = "bottom-arab";
pos = (581,-510);
}
);
associatedMasterId = m004;
attr = {
coordinates = (
1000,
1
);
};
layerId = m006;
name = ExtraBlack;
shapes = (
{
closed = 1;
nodes = (
(524,501,l),
(524,529,l),
(524,626,o),
(562,676,o),
(619,674,cs),
(682,671,o),
(692,635,o),
(692,576,cs),
(692,529,o),
(660,501,o),
(568,501,cs)
);
},
{
closed = 1;
nodes = (
(0,500,l),
(-89,369,o),
(-89,129,o),
(0,0,c),
(79,0,l),
(79,-424,o),
(507,-510,o),
(696,-510,cs),
(880,-510,l),
(1042,-284,l),
(1194,-76,o),
(1238,0,o),
(1275,0,cs),
(1333,0,l),
(1333,500,l),
(1244,500,l),
(1057,500,o),
(888,209,o),
(771,51,cs),
(685,-61,l),
(617,-61,l),
(559,-61,o),
(546,-21,o),
(546,31,c),
(573,31,l),
(897,31,o),
(1142,258,o),
(1138,561,cs),
(1133,870,o),
(930,1109,o),
(612,1117,cs),
(285,1125,o),
(80,826,o),
(77,531,c),
(79,500,l)
);
}
);
width = 1334;
}
);
unicode = 65260;
},
{
glyphname = "hehgoal-arab.fina";
layers = (
{
anchors = (
{
name = "top-arab";
pos = (595,682);
},
{
name = "bottom-arab";
pos = (595,0);
}
);
layerId = m004;
shapes = (
{
closed = 1;
nodes = (
(239,-3,l),
(274,279,l),
(291,404,o),
(377,509,o),
(497,550,cs),
(784,645,l),
(816,298,l),
(830,129,o),
(972,0,o),
(1141,0,cs),
(1204,0,l),
(1204,60,l),
(1141,60,l),
(1002,60,o),
(886,164,o),
(873,303,cs),
(839,688,l),
(801,713,l),
(478,606,l),
(337,558,o),
(235,434,o),
(216,287,cs),
(181,4,l)
);
}
);
width = 1204;
},
{
anchors = (
{
name = "top-arab";
pos = (552,814);
},
{
name = "bottom-arab";
pos = (600,0);
}
);
associatedMasterId = m004;
attr = {
coordinates = (
800,
1
);
};
layerId = m005;
name = ExtraBold;
shapes = (
{
closed = 1;
nodes = (
(426,-18,l),
(474,370,l),
(481,432,o),
(526,486,o),
(586,507,cs),
(688,540,l),
(701,391,l),
(721,170,o),
(908,0,o),
(1130,0,cs),
(1193,0,l),
(1193,340,l),
(1130,340,l),
(1072,340,o),
(1025,363,o),
(1018,420,c),
(987,770,l),
(778,907,l),
(484,810,l),
(308,749,o),
(181,595,o),
(158,410,cs),
(109,22,l)
);
}
);
width = 1193;
},
{
anchors = (
{
name = "top-arab";
pos = (527,889);
},
{
name = "bottom-arab";
pos = (603,0);
}
);
associatedMasterId = m004;
attr = {
coordinates = (
1000,
1
);
};
layerId = m006;
name = ExtraBlack;
shapes = (
{
closed = 1;
nodes = (
(532,-26,l),
(589,422,l),
(590,449,o),
(612,473,o),
(637,482,c),
(632,480,l),
(635,444,l),
(658,194,o),
(872,0,o),
(1123,0,cs),
(1187,0,l),
(1187,500,l),
(1123,500,l),
(1112,500,o),
(1104,476,o),
(1101,487,c),
(1072,817,l),
(765,1018,l),
(488,926,l),
(292,858,o),
(150,686,o),
(125,481,cs),
(68,32,l)
);
}
);
width = 1187;
}
);
unicode = 64423;
},
{
glyphname = "hehgoal-arab.medi";
layers = (
{
anchors = (
{
name = "top-arab";
pos = (470,519);
},
{
name = "bottom-arab";
pos = (618,-596);
}
);
layerId = m004;
shapes = (
{
closed = 1;
nodes = (
(0,60,l),
(-80,54,o),
(-80,6,o),
(0,0,c),
(312,0,l),
(318,-434,o),
(534,-596,o),
(877,-596,c),
(906,-566,l),
(906,-80,l),
(906,-30,o),
(936,0,o),
(986,0,cs),
(1144,0,l),
(1144,60,l),
(986,60,l),
(907,60,o),
(847,0,o),
(848,-80,cs),
(848,-536,l),
(544,-528,o),
(372,-376,o),
(370,13,cs),
(370,519,l),
(311,519,l),
(311,60,l)
);
}
);
width = 1144;
},
{
anchors = (
{
name = "top-arab";
pos = (483,671);
},
{
name = "bottom-arab";
pos = (575,-541);
}
);
associatedMasterId = m004;
attr = {
coordinates = (
800,
1
);
};
layerId = m005;
name = ExtraBold;
shapes = (
{
closed = 1;
nodes = (
(0,340,l),
(-86,255,o),
(-86,84,o),
(0,0,c),
(174,0,l),
(219,-353,o),
(444,-541,o),
(811,-541,c),
(1011,-341,l),
(1011,-30,l),
(1011,-14,o),
(1025,0,o),
(1041,0,cs),
(1184,0,l),
(1184,340,l),
(932,340,l),
(782,340,o),
(692,250,o),
(692,100,cs),
(692,-199,l),
(547,-166,o),
(484,-71,o),
(483,145,cs),
(483,671,l),
(165,671,l),
(165,340,l)
);
}
);
width = 1184;
},
{
anchors = (
{
name = "top-arab";
pos = (490,758);
},
{
name = "bottom-arab";
pos = (550,-510);
}
);
associatedMasterId = m004;
attr = {
coordinates = (
1000,
1
);
};
layerId = m006;
name = ExtraBlack;
shapes = (
{
closed = 1;
nodes = (
(0,500,l),
(-89,369,o),
(-89,129,o),
(0,0,c),
(94,0,l),
(162,-306,o),
(393,-510,o),
(773,-510,c),
(1071,-213,l),
(1071,-1,l),
(1071,-5,o),
(1075,0,o),
(1072,0,c),
(1207,0,l),
(1207,500,l),
(901,500,l),
(710,500,o),
(603,393,o),
(603,203,cs),
(603,-7,l),
(548,41,o),
(548,104,o),
(548,220,cs),
(548,758,l),
(81,758,l),
(81,500,l)
);
}
);
width = 1207;
}
);
unicode = 64425;
},
{
glyphname = "hehgoal-arab.init";
layers = (
{
anchors = (
{
name = "top-arab";
pos = (266,632);
},
{
name = "bottom-arab";
pos = (307,-648);
}
);
layerId = m004;
shapes = (
{
closed = 1;
nodes = (
(417,-576,cs),
(417,-508,o),
(336,-463,o),
(251,-529,c),
(251,-501,l),
(250,-399,o),
(324,-312,o),
(425,-295,cs),
(439,-293,l),
(431,-241,l),
(421,-243,l),
(292,-264,o),
(197,-376,o),
(198,-504,cs),
(198,-567,l),
(198,-625,o),
(246,-673,o),
(307,-673,cs),
(368,-673,o),
(417,-636,o)
);
},
{
closed = 1;
nodes = (
(0,60,l),
(-80,54,o),
(-80,6,o),
(0,0,c),
(168,0,l),
(349,0,o),
(495,146,o),
(495,326,cs),
(495,632,l),
(437,632,l),
(437,329,l),
(437,180,o),
(317,60,o),
(168,60,cs)
);
}
);
width = 666;
},
{
anchors = (
{
name = "top-arab";
pos = (453,816);
},
{
name = "bottom-arab";
pos = (296,-888);
}
);
associatedMasterId = m004;
attr = {
coordinates = (
800,
1
);
};
layerId = m005;
name = ExtraBold;
shapes = (
{
closed = 1;
nodes = (
(541,-706,cs),
(541,-593,o),
(446,-545,o),
(290,-553,c),
(290,-521,l),
(290,-492,o),
(308,-468,o),
(337,-464,cs),
(507,-439,l),
(475,-209,l),
(375,-227,l),
(193,-259,o),
(60,-414,o),
(61,-566,cs),
(61,-706,l),
(61,-813,o),
(156,-898,o),
(296,-898,cs),
(434,-898,o),
(541,-813,o)
);
},
{
closed = 1;
nodes = (
(0,340,l),
(-86,255,o),
(-86,84,o),
(0,0,c),
(185,0,l),
(422,0,o),
(615,182,o),
(615,409,cs),
(615,816,l),
(296,816,l),
(296,451,l),
(296,390,o),
(246,340,o),
(185,340,cs)
);
}
);
width = 735;
},
{
anchors = (
{
name = "top-arab";
pos = (560,921);
},
{
name = "bottom-arab";
pos = (290,-1025);
}
);
associatedMasterId = m004;
attr = {
coordinates = (
1000,
1
);
};
layerId = m006;
name = ExtraBlack;
shapes = (
{
closed = 1;
nodes = (
(612,-781,cs),
(612,-642,o),
(509,-593,o),
(312,-566,c),
(312,-532,l),
(313,-545,o),
(299,-557,o),
(287,-560,c),
(546,-522,l),
(500,-191,l),
(348,-219,l),
(136,-257,o),
(-18,-436,o),
(-18,-601,cs),
(-18,-786,l),
(-18,-920,o),
(105,-1027,o),
(289,-1027,cs),
(472,-1027,o),
(612,-915,o)
);
},
{
closed = 1;
nodes = (
(0,500,l),
(-89,369,o),
(-89,129,o),
(0,0,c),
(194,0,l),
(464,0,o),
(683,203,o),
(683,457,cs),
(683,922,l),
(216,922,l),
(216,521,l),
(216,509,o),
(205,500,o),
(194,500,cs)
);
}
);
width = 774;
}
);
unicode = 64424;
},
{
glyphname = "hehdoachashmee-arab";
layers = (
{
anchors = (
{
name = "top-arab";
pos = (592,844);
},
{
name = "bottom-arab";
pos = (592,0);
}
);
layerId = m004;
shapes = (
{
closed = 1;
nodes = (
(493,785,cs),
(662,785,o),
(792,672,o),
(792,496,cs),
(792,248,o),
(544,89,o),
(493,62,c),
(442,89,o),
(195,248,o),
(195,496,cs),
(195,672,o),
(325,785,o)
);
},
{
closed = 1;
nodes = (
(1062,0,l),
(1276,0,o),
(1412,249,o),
(1275,430,cs),
(920,898,l),
(873,863,l),
(1228,395,l),
(1330,262,o),
(1240,59,o),
(1062,59,cs),
(591,59,l),
(688,122,o),
(850,280,o),
(850,496,cs),
(850,702,o),
(697,844,o),
(493,844,cs),
(290,844,o),
(136,702,o),
(136,496,cs),
(136,240,o),
(418,0,o),
(493,0,cs)
);
}
);
width = 1456;
},
{
anchors = (
{
name = "top-arab";
pos = (673,1036);
},
{
name = "bottom-arab";
pos = (673,0);
}
);
associatedMasterId = m004;
attr = {
coordinates = (
800,
1
);
};
layerId = m005;
name = ExtraBold;
shapes = (
{
closed = 1;
nodes = (
(571,733,cs),
(655,733,o),
(733,677,o),
(733,581,cs),
(733,463,o),
(632,378,o),
(571,324,c),
(509,378,o),
(409,463,o),
(409,581,cs),
(409,677,o),
(487,733,o)
);
},
{
closed = 1;
nodes = (
(1234,0,l),
(1535,0,o),
(1726,350,o),
(1534,603,cs),
(1130,1134,l),
(878,940,l),
(1264,433,l),
(1291,397,o),
(1267,340,o),
(1217,340,cs),
(943,340,l),
(984,393,o),
(1028,497,o),
(1028,585,cs),
(1028,846,o),
(827,1036,o),
(571,1036,cs),
(314,1036,o),
(114,846,o),
(114,585,cs),
(114,115,o),
(459,0,o),
(570,0,cs)
);
}
);
width = 1715;
},
{
anchors = (
{
name = "top-arab";
pos = (719,1146);
},
{
name = "bottom-arab";
pos = (719,0);
}
);
associatedMasterId = m004;
attr = {
coordinates = (
1000,
1
);
};
layerId = m006;
name = ExtraBlack;
shapes = (
{
closed = 1;
nodes = (
(616,703,cs),
(652,703,o),
(699,680,o),
(699,629,cs),
(699,586,o),
(682,544,o),
(616,474,c),
(547,544,o),
(532,586,o),
(532,629,cs),
(532,680,o),
(579,703,o)
);
},
{
closed = 1;
nodes = (
(1332,0,l),
(1683,0,o),
(1905,407,o),
(1682,702,cs),
(1251,1269,l),
(900,1002,l),
(1265,525,l),
(1276,511,o),
(1275,501,o),
(1261,501,cs),
(1113,501,l),
(1123,548,o),
(1129,622,o),
(1129,636,cs),
(1129,928,o),
(901,1146,o),
(615,1146,cs),
(328,1146,o),
(101,928,o),
(101,636,cs),
(101,44,o),
(483,0,o),
(615,0,cs)
);
}
);
width = 1863;
}
);
unicode = (1726,64426);
},
